<?xml version="1.0" encoding="UTF-8" standalone="no"?>
<!-- Created with Inkscape (http://www.inkscape.org/) -->

<svg
   xmlns:dc="http://purl.org/dc/elements/1.1/"
   xmlns:cc="http://creativecommons.org/ns#"
   xmlns:rdf="http://www.w3.org/1999/02/22-rdf-syntax-ns#"
   xmlns:svg="http://www.w3.org/2000/svg"
   xmlns="http://www.w3.org/2000/svg"
   xmlns:sodipodi="http://sodipodi.sourceforge.net/DTD/sodipodi-0.dtd"
   xmlns:inkscape="http://www.inkscape.org/namespaces/inkscape"
   width="111.26826mm"
   height="111.26826mm"
   viewBox="0 0 111.26826 111.26826"
   version="1.1"
   id="svg8"
   inkscape:version="0.92.2 (5c3e80d, 2017-08-06)"
   sodipodi:docname="logo.svg"
   inkscape:export-filename="D:\repositories\studioav\publicidad-bt\bt-software\resources\logo.png"
   inkscape:export-xdpi="96"
   inkscape:export-ydpi="96">
  <defs
     id="defs2" />
  <sodipodi:namedview
     id="base"
     pagecolor="#ffffff"
     bordercolor="#666666"
     borderopacity="1.0"
     inkscape:pageopacity="0.0"
     inkscape:pageshadow="2"
     inkscape:zoom="2"
     inkscape:cx="216.34897"
     inkscape:cy="234.76849"
     inkscape:document-units="mm"
     inkscape:current-layer="layer1"
     showgrid="false"
     showguides="false"
     inkscape:window-width="1920"
     inkscape:window-height="1001"
     inkscape:window-x="-9"
     inkscape:window-y="-9"
     inkscape:window-maximized="1"
     fit-margin-top="0"
     fit-margin-left="0"
     fit-margin-right="0"
     fit-margin-bottom="0" />
  <metadata
     id="metadata5">
    <rdf:RDF>
      <cc:Work
         rdf:about="">
        <dc:format>image/svg+xml</dc:format>
        <dc:type
           rdf:resource="http://purl.org/dc/dcmitype/StillImage" />
        <dc:title />
      </cc:Work>
    </rdf:RDF>
  </metadata>
  <g
     inkscape:label="Capa 1"
     inkscape:groupmode="layer"
     id="layer1"
     transform="translate(-48.106541,-85.801647)">
    <circle
       style="fill:#0079bc;fill-opacity:1;stroke:none;stroke-width:0.31408596;stroke-opacity:1"
       id="path4816"
       cx="103.74067"
       cy="141.43578"
       r="55.634129" />
    <path
       id="path3857"
       style="fill:#ffffff;fill-opacity:1;stroke:#ffffff;stroke-width:0.34019473px;stroke-linecap:butt;stroke-linejoin:miter;stroke-opacity:1"
       d="m 79.883078,113.26609 h 8.273358 v 59.9473 h -8.273358 z m 11.998237,30.45316 c -2.348039,0.44467 2.323293,0.0957 2.766539,0.0111 z m 14.023635,-39.57208 c -14.306379,0.14462 -25.817244,8.83244 -25.817244,8.83244 l 8.06873,0.28648 c 0,0 2.928404,-3.77055 11.596441,-3.90374 1.238283,-0.019 3.394263,-0.0157 4.663793,0.16796 10.15625,1.46998 18.19049,15.3746 11.10785,23.92722 -7.08264,8.55263 -25.256845,10.15648 -25.256845,10.15648 0,0 2.851716,3.07341 17.906905,2.53887 12.59914,-0.44733 23.25264,-11.49237 22.45083,-21.51497 -0.80181,-10.02261 -7.20226,-19.64377 -22.58415,-20.44629 -0.72038,-0.0376 -1.43271,-0.0516 -2.13631,-0.0444 z m -15.637286,39.46685 37.284086,20.17885 2.80633,10.15624 -13.22984,-2.27179 z" />
  </g>
</svg>
