<?xml version="1.0" encoding="UTF-8" standalone="no"?>
<!-- Created with Inkscape (http://www.inkscape.org/) -->

<svg
   xmlns:dc="http://purl.org/dc/elements/1.1/"
   xmlns:cc="http://creativecommons.org/ns#"
   xmlns:rdf="http://www.w3.org/1999/02/22-rdf-syntax-ns#"
   xmlns:svg="http://www.w3.org/2000/svg"
   xmlns="http://www.w3.org/2000/svg"
   xmlns:sodipodi="http://sodipodi.sourceforge.net/DTD/sodipodi-0.dtd"
   xmlns:inkscape="http://www.inkscape.org/namespaces/inkscape"
   width="111.26826mm"
   height="111.26826mm"
   viewBox="0 0 111.26826 111.26826"
   version="1.1"
   id="svg8"
   inkscape:version="0.92.2 (5c3e80d, 2017-08-06)"
   sodipodi:docname="logoV2.svg"
   inkscape:export-filename="D:\repositories\studioav\publicidad-bt\bt-software\resources\logov2.png"
   inkscape:export-xdpi="96"
   inkscape:export-ydpi="96">
  <defs
     id="defs2" />
  <sodipodi:namedview
     id="base"
     pagecolor="#ffffff"
     bordercolor="#666666"
     borderopacity="1.0"
     inkscape:pageopacity="0.0"
     inkscape:pageshadow="2"
     inkscape:zoom="1"
     inkscape:cx="138.97457"
     inkscape:cy="168.14026"
     inkscape:document-units="mm"
     inkscape:current-layer="layer1"
     showgrid="false"
     showguides="false"
     inkscape:window-width="1920"
     inkscape:window-height="1001"
     inkscape:window-x="-9"
     inkscape:window-y="-9"
     inkscape:window-maximized="1"
     fit-margin-top="0"
     fit-margin-left="0"
     fit-margin-right="0"
     fit-margin-bottom="0" />
  <metadata
     id="metadata5">
    <rdf:RDF>
      <cc:Work
         rdf:about="">
        <dc:format>image/svg+xml</dc:format>
        <dc:type
           rdf:resource="http://purl.org/dc/dcmitype/StillImage" />
        <dc:title />
      </cc:Work>
    </rdf:RDF>
  </metadata>
  <g
     inkscape:label="Capa 1"
     inkscape:groupmode="layer"
     id="layer1"
     transform="translate(-48.106541,-85.801647)">
    <circle
       style="fill:#0079bc;fill-opacity:1;stroke:none;stroke-width:0.31408596;stroke-opacity:1"
       id="path4816"
       cx="104.26984"
       cy="141.43578"
       r="55.634129" />
    <path
       id="path3857"
       style="fill:#ffffff;fill-opacity:1;stroke:#ffffff;stroke-width:0.34019473px;stroke-linecap:butt;stroke-linejoin:miter;stroke-opacity:1"
       d="m 87.092662,143.61402 37.284068,20.17885 2.80633,10.15624 -13.22984,-2.27179 z m 8.509513,-39.1871 c -13.370932,3.32513 -18.689471,8.55269 -18.689471,8.55269 l 8.06873,0.28648 c 0,0 3.468114,-2.6995 12.136154,-3.34718 1.039954,0 14.065242,-1.15243 22.941592,4.13834 9.27424,4.79663 10.96549,12.40255 3.82046,19.84806 -7.91854,8.25156 -36.786967,9.7087 -36.786967,9.7087 0,0 3.696279,2.34038 17.906887,2.53887 6.93282,0.0968 13.0973,-0.46527 18.87895,-3.12643 30.13317,-13.8696 6.29086,-35.38268 -3.47837,-37.44805 -6.87355,-1.84176 -19.03275,-2.69627 -24.797965,-1.15148 z m -6.895862,39.29233 c -2.348039,0.44467 2.323293,0.0957 2.766539,0.0111 z M 76.708076,113.26609 h 8.273358 v 59.9473 h -8.273358 z"
       inkscape:connector-curvature="0" />
  </g>
</svg>
