<?xml version="1.0" encoding="UTF-8" standalone="no"?>
<!-- Generator: Adobe Illustrator 21.0.0, SVG Export Plug-In . SVG Version: 6.00 Build 0)  -->

<svg
   xmlns:dc="http://purl.org/dc/elements/1.1/"
   xmlns:cc="http://creativecommons.org/ns#"
   xmlns:rdf="http://www.w3.org/1999/02/22-rdf-syntax-ns#"
   xmlns:svg="http://www.w3.org/2000/svg"
   xmlns="http://www.w3.org/2000/svg"
   xmlns:sodipodi="http://sodipodi.sourceforge.net/DTD/sodipodi-0.dtd"
   xmlns:inkscape="http://www.inkscape.org/namespaces/inkscape"
   version="1.1"
   id="Capa_1"
   x="0px"
   y="0px"
   viewBox="0 0 2317.5 741.3858"
   xml:space="preserve"
   inkscape:version="0.91 r13725"
   sodipodi:docname="logo.svg"
   width="2317.5"
   height="741.3858"><metadata
     id="metadata117"><rdf:RDF><cc:Work
         rdf:about=""><dc:format>image/svg+xml</dc:format><dc:type
           rdf:resource="http://purl.org/dc/dcmitype/StillImage" /><dc:title></dc:title></cc:Work></rdf:RDF></metadata><defs
     id="defs115" /><sodipodi:namedview
     pagecolor="#ffffff"
     bordercolor="#666666"
     borderopacity="1"
     objecttolerance="10"
     gridtolerance="10"
     guidetolerance="10"
     inkscape:pageopacity="0"
     inkscape:pageshadow="2"
     inkscape:window-width="1366"
     inkscape:window-height="705"
     id="namedview113"
     showgrid="false"
     fit-margin-top="0"
     fit-margin-left="0"
     fit-margin-right="0"
     fit-margin-bottom="0"
     inkscape:zoom="0.078666667"
     inkscape:cx="-459.52712"
     inkscape:cy="158.18035"
     inkscape:window-x="-8"
     inkscape:window-y="-8"
     inkscape:window-maximized="1"
     inkscape:current-layer="Capa_1" /><style
     type="text/css"
     id="style3">
	.st0{fill-rule:evenodd;clip-rule:evenodd;fill:#1F1F1F;}
	.st1{fill-rule:evenodd;clip-rule:evenodd;fill:#FF6600;}
	.st2{fill-rule:evenodd;clip-rule:evenodd;fill:#FFFFFF;}
	.st3{fill:#201E1E;}
	.st4{fill-rule:evenodd;clip-rule:evenodd;fill:#444444;}
</style><path
     class="st0"
     d="m 1356.8,305.40539 c 0.7,-8.5 1.2,-14.4 1.7,-21.5 17.5,0 34.8,0 54.1,0 0,4.7 0,9.4 0,14 0.1,62.5 0.1,125 0.2,187.5 0.1,58.3 -28,101.8 -79.1,122.5 -50.3,20.4 -115.5,7.3 -152.1,-30.1 -6.3,-6.4 -7.4,-11 0.1,-17.1 9.9,-8 19.1,-16.8 27.2,-23.9 19.6,9.5 37.1,21 56.3,26.8 36.7,10.9 77.4,-13.5 88.7,-52.5 -34.2,26.4 -70.9,38.3 -110.9,25 -25.5,-8.5 -49.4,-21.9 -66.1,-45.3 -37.5,-52.8 -36.5,-120 2.9,-170.5 21.4,-27.3 49.8,-42.9 84.3,-46.5 34.8,-3.8 64.5,9.1 92.7,31.6 z m 5.7,104 c 3.7,-45.6 -39.6,-84 -79.5,-84.6 -44.8,-0.6 -82.5,41.8 -82.7,83.5 -0.2,45.6 40.5,85.5 80.3,84.2 47.4,-1.6 81.9,-35.1 81.9,-83.1 z"
     id="path5"
     inkscape:connector-curvature="0"
     style="clip-rule:evenodd;fill:#1f1f1f;fill-rule:evenodd" /><path
     class="st0"
     d="m 434.3,531.10539 c -17.5,0 -33.7,0 -51.3,0 -0.3,-5.6 -0.8,-10.7 -0.8,-15.8 -0.1,-47.1 0.1,-94.2 -0.1,-141.3 -0.1,-19.9 -6.4,-36.6 -26.3,-44.7 -28.4,-11.6 -61.5,14.4 -61.9,49.2 -0.5,45.8 -0.1,91.6 -0.1,137.4 0,4.8 0,9.5 0,15 -18.4,0 -35.3,0 -53.9,0 -0.3,-4.6 -0.7,-9.2 -0.7,-13.8 -0.1,-45.8 0.1,-91.6 -0.2,-137.4 0,-7 -0.7,-14.1 -2.5,-20.9 -8.1,-30.6 -39.4,-42.5 -65.5,-24.8 -16.2,11 -27,24.6 -26.3,46.7 1.4,44.9 0.4,89.8 0.4,134.7 0,4.8 0,9.6 0,15.2 -17.1,0 -33.2,0 -50.1,0 0,-81.9 0,-164 0,-246.8 16.3,0 32.4,0 49.1,0 0.7,4.6 1.3,9.1 2,13.9 58,-31.6 70.1,-30.5 123.5,10.5 1.8,-1.6 3.8,-3.2 5.6,-5 50.2,-49.9 135.2,-29.3 157.1,38.2 0.9,2.9 1.9,6 1.9,9 0.1,60.1 0.1,119.9 0.1,180.7 z"
     id="path7"
     inkscape:connector-curvature="0"
     style="clip-rule:evenodd;fill:#1f1f1f;fill-rule:evenodd" /><path
     class="st0"
     d="m 943.3,431.60539 c 13.9,51.4 78.1,68.1 117.3,33 14,-12.5 14,-12.6 28.1,0 5.6,5 10.8,10.5 16.8,14.9 9.5,7 9.2,12.5 0.7,20.8 -53.5,52.3 -140.4,50.6 -192,-4.1 -39.5,-42 -47.7,-105.2 -20.1,-155.5 28.1,-51.2 86.7,-78.5 144.3,-67.3 55.6,10.8 99,57.1 106.2,113.8 1.3,9.9 0.8,20.1 1,30.2 0.2,11.3 -5.5,14.6 -16.5,14.6 -56.8,-0.5 -113.5,-0.2 -170.3,-0.2 -4.7,-0.2 -9.4,-0.2 -15.5,-0.2 z m -0.8,-50.6 c 46.9,0 93,0 139.3,0 -4.4,-30 -39,-55.7 -70.3,-55.5 -28.7,0.2 -64.5,24.1 -69,55.5 z"
     id="path9"
     inkscape:connector-curvature="0"
     style="clip-rule:evenodd;fill:#1f1f1f;fill-rule:evenodd" /><path
     class="st0"
     d="m 521.2,503.80539 c 0,34.7 0,66.2 0,98.4 -17.5,0 -33.6,0 -50.8,0 0,-105.3 0,-211.1 0,-317.9 15.8,0 32.3,0 49.8,0 0.4,8.3 0.8,16.9 1.2,26.8 2.4,-1 4.1,-1.3 5.1,-2.3 57.2,-57.9 158.2,-41.3 193.9,46.7 28.2,69.5 -3.6,152 -70.3,178.3 -43.6,17.3 -83.7,8.8 -119.4,-21.3 -2.1,-1.9 -4.3,-4 -9.5,-8.7 z m -1.7,-96.9 c -0.1,46.6 33.8,85.7 76,87.7 40.1,1.9 74,-25.8 83.3,-68.2 9.1,-41.3 -12.7,-85.1 -49.9,-100.3 -52.8,-21.7 -109.2,20 -109.4,80.8 z"
     id="path11"
     inkscape:connector-curvature="0"
     style="clip-rule:evenodd;fill:#1f1f1f;fill-rule:evenodd" /><path
     class="st0"
     d="m 1935,531.60539 c -16.4,0 -32.1,0 -49,0 -0.8,-7.5 -1.5,-14.5 -2.4,-22.9 -3,1.7 -5,2.4 -6.5,3.7 -68,56.4 -164.4,24.1 -193.3,-59.2 -24.5,-70.7 9.5,-149.1 76.4,-173.7 40.2,-14.7 77.9,-8.1 112.4,17.1 2.5,1.8 4.8,3.8 7.3,5.6 0.6,0.4 1.7,0.3 3.9,0.6 0.6,-5.9 1.2,-11.8 1.9,-18.6 16.3,0 32.3,0 49.4,0 -0.1,81.8 -0.1,163.8 -0.1,247.4 z m -46.6,-125.3 c 4.6,-46.1 -41,-86.4 -81.8,-87 -48,-0.7 -85.1,45.3 -85.7,85.4 -0.7,47.8 42.4,88.3 84.2,88.4 43.9,0 88,-42.6 83.3,-86.8 z"
     id="path13"
     inkscape:connector-curvature="0"
     style="clip-rule:evenodd;fill:#1f1f1f;fill-rule:evenodd" /><path
     class="st0"
     d="m 1443.6,530.60539 c 0,-82.7 0,-164.4 0,-246.8 17.3,0 33.9,0 50.9,0 0.7,4 1.3,7.8 2.1,12.9 3.4,-1.6 6.1,-2.6 8.5,-4.1 33.9,-21.2 69.1,-21.7 104.5,-4.8 26.7,12.8 44.4,33.9 47,64.1 2.5,29.3 2.8,58.8 3.4,88.3 0.5,26.4 -0.2,52.9 0.3,79.3 0.2,9.3 -2.8,12.7 -12.1,11.9 -13.9,-1.1 -32.3,3.6 -40.3,-3.6 -7,-6.3 -2.7,-25.6 -2.7,-39.2 -0.2,-33.9 0.4,-67.8 -0.3,-101.7 -0.6,-32.1 -23.5,-55.9 -54,-57.3 -28.5,-1.3 -55.1,23.5 -55.2,52 -0.2,44.5 -0.1,89 -0.1,133.4 0,4.8 0,9.6 0,15.5 -17.7,0.1 -34.4,0.1 -52,0.1 z"
     id="path15"
     inkscape:connector-curvature="0"
     style="clip-rule:evenodd;fill:#1f1f1f;fill-rule:evenodd" /><path
     class="st0"
     d="m 752.1,283.70539 c 16.1,0 31.4,0 47.2,0 0.4,5.3 0.7,9.9 1.2,16.1 3.6,-2.3 5.8,-4.2 8.3,-5.4 11,-5.3 21.7,-12 33.3,-15.3 37.6,-10.9 51.7,2.4 43.8,40.8 -0.6,2.9 -7,5.8 -11.1,6.5 -12,2 -24.7,1.2 -36.2,4.6 -25.2,7.6 -35.9,23.5 -36.4,50.1 -0.8,44.9 -1.4,89.8 -2.1,134.7 -0.1,4.8 0,9.5 0,15.1 -16.2,0 -31.4,0 -48,0 0,-82.4 0,-164.5 0,-247.2 z"
     id="path17"
     inkscape:connector-curvature="0"
     style="clip-rule:evenodd;fill:#1f1f1f;fill-rule:evenodd" /><path
     class="st0"
     d="m 13,283.90539 c 15.8,0 30.6,0 46,0 0,82.3 0,164 0,246.7 -14.9,0 -30,0 -46,0 0,-81.7 0,-163.7 0,-246.7 z"
     id="path19"
     inkscape:connector-curvature="0"
     style="clip-rule:evenodd;fill:#1f1f1f;fill-rule:evenodd" /><path
     class="st0"
     d="m 34.3,263.60539 c -18.7,-0.1 -34.2,-15 -34.3,-32.8 0,-18.6 15.6,-33 35.4,-32.6 18.8,0.4 34.3,15.6 33.9,33.1 -0.4,17.6 -16.6,32.5 -35,32.3 z"
     id="path21"
     inkscape:connector-curvature="0"
     style="clip-rule:evenodd;fill:#1f1f1f;fill-rule:evenodd" /><g
     id="g23"
     transform="translate(-376.9,-916.79461)"><path
       class="st1"
       d="m 2694.1,1166.3 c 0.1,0 0.2,0 0.3,0 0,2.7 0,5.4 0,8.1 l -0.1,0.1 -0.1,0 c -0.4,-0.3 -0.5,-0.7 -0.5,-1.1 -0.1,-2 -0.1,-4 0,-6 -0.1,-0.4 0.1,-0.8 0.4,-1.1 z"
       id="path25"
       inkscape:connector-curvature="0"
       style="clip-rule:evenodd;fill:#ff6600;fill-rule:evenodd" /><path
       class="st1"
       d="m 2502.5,1198.7 c 2.7,-1.2 5,-2.9 6.8,-5.2 2.5,-3 3.8,-6.6 4.6,-10.4 0.7,-3.1 1.3,-6.2 1.9,-9.3 0.3,-1.7 0.8,-3.4 1.7,-5 1.5,-2.4 3.6,-3.4 6.3,-2.8 1.9,0.4 3.2,1.5 3.7,3.3 0.6,1.8 0.5,3.6 0.2,5.4 -0.7,4.6 0,9 1.6,13.3 1,2.6 2.1,5.2 3.2,7.8 3.5,8.4 4.7,17.1 3.9,26.2 -1.1,11.8 -5.2,22.4 -12.3,31.9 -3,4 -6.5,7.4 -10.4,10.4 -4.7,3.6 -9.3,7.5 -13,12.2 -3.2,4.1 -5.6,8.6 -7,13.6 -0.2,0.6 -0.4,1.2 -0.7,1.7 -3.6,6.9 -7.2,13.8 -10.8,20.7 -0.1,0.3 -0.3,0.6 -0.5,0.8 -3.6,4 -7,8.2 -10.9,12 -7,6.7 -15.2,10.6 -24.9,11.6 -1.1,0.1 -2.2,0.2 -3.2,0.3 -0.1,0 -0.3,0.1 -0.4,-0.3 1.7,-1.7 3.5,-3.5 5.2,-5.3 12.9,-13.3 24,-28 32.5,-44.6 7.4,-14.5 12.6,-29.7 15.5,-45.7 1.8,-9.8 2.7,-19.7 2.8,-29.7 0,-0.4 0,-0.8 0,-1.2 0,-0.1 -0.1,-0.2 -0.1,-0.3 -0.4,0.2 -0.6,0.5 -0.8,0.8 -4.1,5.4 -6.6,11.5 -8.5,18 -1.6,5.6 -2.7,11.4 -3.8,17.1 -1.4,7.2 -3.7,14.2 -6.1,21.2 -2.7,8 -5.7,16 -9.4,23.7 -5.1,10.4 -11.9,19.6 -20.7,27.1 -1.1,0.9 -2.2,1.8 -3.4,2.4 -2.2,1.1 -4.3,0.9 -6.2,-0.7 -1.9,-1.6 -2.9,-3.6 -2.3,-6.2 0.6,-2.6 2.1,-4.6 3.9,-6.4 1.4,-1.4 2.9,-2.7 4.2,-4.1 8.2,-8.5 13.9,-18.6 17.8,-29.8 2.5,-7.3 4.2,-14.7 5.6,-22.3 1.6,-9 2.7,-18.1 4.1,-27.2 0.5,-3.5 1.1,-6.9 1.7,-10.4 0,-0.2 0,-0.4 0,-0.6 -0.4,-0.4 -0.7,-0.1 -1.1,0 -1.3,0.1 -2.6,0.3 -3.9,0.1 -2.4,-0.3 -4.1,-1.6 -5,-3.9 -0.4,-1 -0.6,-2.1 -0.6,-3.2 -0.1,-3.7 -0.3,-7.4 -0.3,-11 0,-4.5 0.7,-8.9 1.4,-13.3 0.4,-2.8 1,-5.6 1.3,-8.7 -6.3,3.2 -10.8,7.6 -11.7,14.8 -0.6,4.5 0.3,8.9 1.4,13.2 1.2,4.8 2.6,9.6 3.4,14.5 1.2,6.9 1.5,13.9 0.9,20.9 -1,13.8 -5.3,26.6 -11.1,39.1 -2.1,4.5 -4.3,8.8 -6.7,13.1 -1.5,2.7 -3.3,5.3 -5.5,7.5 -3,2.8 -6.5,4.6 -10.6,5 -1.2,0.1 -1.2,0.1 -1.6,-1 -1.6,-4.7 -1.5,-9.5 0.2,-14.2 0.9,-2.5 2.1,-4.9 3.5,-7.1 1.5,-2.4 3.1,-4.8 4.7,-7.1 4.9,-7.2 8.5,-14.9 10.3,-23.4 2.3,-10.4 1.7,-20.7 -1.1,-30.9 -1.6,-5.9 -4,-11.4 -6.7,-16.8 -2.9,-5.7 -5.2,-11.6 -6.5,-17.9 -2,-10 -1.1,-19.8 2.7,-29.3 2.5,-6.4 6,-12.2 9.8,-17.8 5.6,-8.2 11.4,-16.2 18.1,-23.5 7.4,-8.1 15.7,-15.2 25.4,-20.5 6.4,-3.5 13.1,-5.8 20.2,-7.2 7.6,-1.5 15.3,-1.9 23.1,-1.2 15.4,1.4 28.8,7.3 40.4,17.4 10.6,9.3 18,20.8 21.6,34.5 2.6,10 2.7,20.1 0.2,30.1 -0.1,0.2 -0.2,0.5 -0.2,0.7 0,0 -0.1,0 -0.3,0.1 -0.7,-1.3 -1.4,-2.6 -2,-3.9 -3.9,-8.1 -7.7,-16.2 -11.6,-24.2 -3.6,-7.4 -7.5,-14.6 -12.4,-21.2 -4.3,-5.8 -9.2,-10.8 -15.4,-14.5 -5.7,-3.4 -12,-5.3 -18.7,-5.8 -8.7,-0.7 -17.1,1 -25.4,3.3 -6.4,1.8 -12.5,4.3 -18.2,7.9 -7.6,4.8 -13.8,11.1 -19.1,18.3 -4.6,6.3 -8.5,13 -12.1,19.9 -4.3,8.1 -8.2,16.4 -12.7,24.4 -0.1,0.1 -0.1,0.3 0,0.6 0.6,-0.5 1.3,-1.1 1.9,-1.6 5.2,-4.8 9.9,-10 14.2,-15.6 5.1,-6.5 10,-13.1 15,-19.6 4.5,-5.8 9.3,-11.3 14.6,-16.3 5.6,-5.1 11.7,-9.4 18.6,-12.6 0.9,-0.4 1.8,-0.7 2.8,-0.7 7.4,-0.4 14.8,-0.3 22.2,1.1 10.8,2 19.4,7.4 25.6,16.6 3.7,5.5 6.3,11.5 8.5,17.7 4.7,13.4 8.4,27 10.9,40.9 2.2,12.5 3.3,25.2 2.8,37.9 -0.8,21.7 -6.2,42.2 -16.2,61.5 -4.7,9.1 -11,17.1 -18.2,24.5 -6.9,7.1 -14.5,13.5 -22.1,19.9 -5.3,4.4 -10.5,8.8 -15.8,13.1 -0.3,0.2 -0.5,0.5 -1,0.6 -0.1,-1.4 0.2,-2.8 0.3,-4.1 1.2,-9.5 5.4,-17.5 12.1,-24.3 3,-3 6.2,-5.8 9.3,-8.7 4.5,-4.1 8.9,-8.3 12.9,-12.9 5.3,-6.1 9.7,-12.7 12.4,-20.3 1.8,-5.2 2.8,-10.6 2.8,-16.1 -0.5,0 -0.5,0.4 -0.6,0.6 -4.2,8.1 -9.6,15.4 -15.5,22.3 -5.1,5.9 -10.5,11.5 -16,17 -7.1,7.2 -14.3,14.5 -20.6,22.4 -5.1,6.4 -9.6,13.2 -13.3,20.6 -3.4,6.9 -9,11.2 -16.2,13.6 -3.5,1.2 -7.1,1.8 -10.8,1.9 -0.4,-0.4 0,-0.7 0.1,-1.1 1.3,-4 3.5,-7.5 6.2,-10.7 2.5,-3 5.4,-5.6 8.2,-8.3 2.9,-2.9 5.8,-5.8 7.8,-9.5 0.8,-1.5 1.8,-2.8 2.9,-3.9 2.5,-2.5 4.2,-5.7 5.4,-9 1.2,-3.2 2.3,-6.4 3.4,-9.7 0.4,-1 0.9,-2 1.6,-2.8 2.7,-3.5 5.8,-6.5 9.2,-9.2 3,-2.4 6,-4.9 9.2,-7.2 8,-5.9 13.7,-13.6 17.9,-22.5 4.6,-9.7 7.6,-19.9 8.6,-30.6 0.8,-8.3 0.5,-16.6 -0.6,-24.9 -1.6,-12.2 -4.8,-23.9 -8.5,-35.6 -0.4,-1.2 -1,-2.4 -1.7,-3.5 -2.4,-3.6 -5.8,-5.1 -10.1,-5 -1.3,0 -2.7,0.2 -4,0.6 -3.9,1.1 -6.6,3.6 -8.2,7.3 -1.2,2.7 -1.7,5.5 -2.4,8.4 -1.9,8.3 -3.7,16.7 -5.6,25 0,0.1 -0.2,0.5 0.1,1 z"
       id="path27"
       inkscape:connector-curvature="0"
       style="clip-rule:evenodd;fill:#ff6600;fill-rule:evenodd" /><path
       class="st1"
       d="m 2390.2,1265 c -0.7,-3.1 -1,-6.1 -1.2,-9.2 -0.5,-9 0.7,-17.8 2.6,-26.5 1.8,-7.9 4,-15.7 5.9,-23.6 1.8,-7.7 3.2,-15.4 3.2,-23.3 0,-2.5 -0.2,-5 -0.5,-7.4 -0.1,-0.7 -0.1,-1.3 0.1,-2 3.1,-13.5 8.2,-26.4 14.3,-38.8 5.5,-11.3 11.7,-22.3 17.8,-33.3 6.3,-11.4 12.6,-22.7 18,-34.6 0.8,-1.8 1.6,-3.7 2.5,-5.5 3.5,-6.8 8.7,-12.1 14.9,-16.4 6.6,-4.5 13.8,-7.5 21.4,-9.9 2.2,-0.7 4.4,-1.4 6.7,-2 1.9,-0.5 3.9,-0.8 5.8,-0.5 2.1,0.3 3.7,1.3 4.8,3.1 0.5,0.8 0.8,1.6 1,2.4 0.7,2.4 -0.1,4.4 -2,5.9 -1.5,1.2 -3.3,2 -5.1,2.6 -5.3,1.7 -10.6,3.6 -15.7,5.9 -7.2,3.1 -13.7,7.3 -19.1,13 -1.7,1.8 -3.2,3.6 -4.7,5.6 -0.4,0.6 -0.8,1.2 -1.3,1.9 1,0.1 1.7,-0.2 2.5,-0.4 6,-1.5 11.6,-4.1 17.1,-6.9 2.3,-1.2 4.6,-2.3 6.9,-3.5 4.9,-2.4 10,-3.8 15.5,-4.3 5.5,-0.5 11,-0.8 16.4,-0.6 17.4,0.5 33.6,5 48.7,13.5 11.5,6.5 21.5,14.8 30.5,24.4 2.7,2.9 5.4,5.9 7.9,9 0.4,0.4 0.7,0.9 0.9,1.4 3.6,6.2 5.7,12.9 6.8,19.9 1.3,7.6 1.5,15.4 1.6,23.1 0,6.4 0.2,12.7 0.7,19.1 0.3,3.7 0.7,7.3 1.6,10.9 1.2,4.7 1.9,9.5 2.7,14.3 0.5,3.1 1.3,6.1 2.7,8.9 0.2,0.5 0.3,0.9 0.3,1.5 -0.3,4.2 -0.2,8.4 0,12.6 0.2,6.2 0.4,12.3 0.1,18.5 -0.4,5.8 -1.4,11.4 -3.7,16.8 -0.4,1 -0.4,2.1 -0.5,3.2 -1.6,14.7 -8.3,26.7 -19.1,36.6 -4.9,4.5 -10.4,8.2 -16,11.8 -4.3,2.8 -8.6,5.5 -12.8,8.6 -5.7,4.2 -10.9,8.9 -15,14.8 -0.5,0.7 -1,1.4 -1.4,2.2 -1.5,3 -3.8,5.3 -6.3,7.4 -4.9,4.3 -10.5,7.4 -16.4,10 -5.7,2.6 -11.6,4.7 -17.4,7.1 -4.6,1.9 -9.1,4 -13.4,6.6 -3.6,2.2 -6.9,4.8 -9.9,7.8 -0.5,0.5 -1,0.9 -1.6,1.2 -2.7,1.3 -5.1,0.3 -5.9,-2.7 -0.7,-2.8 -0.5,-5.5 1.1,-8.1 1.8,-2.9 4.2,-5.2 7.1,-7.1 2.6,-1.7 5.4,-3 8.3,-4.3 12.4,-5.4 24.1,-12 34.9,-20.2 24.7,-18.8 41.2,-43 49,-73 1.9,-7.3 3.2,-14.7 3.9,-22.2 1,-9.7 1.1,-19.3 0.5,-29 -0.2,-3.6 -0.6,-7.2 -0.7,-10.9 -0.2,-4 0.2,-8 1.4,-11.8 0.3,-1 0.7,-2 1.2,-3 6.4,3.9 10.1,9.2 10.6,16.7 0.4,6.3 0.2,12.6 -0.2,18.9 -0.3,4.3 -0.6,8.7 -1,13 -0.6,6 -1.2,12.1 -1.8,18.1 -0.5,5.2 -1.1,10.4 -1.6,15.6 -0.6,5.5 -1.2,10.9 -1.8,16.4 0,0.5 -0.1,0.9 -0.1,1.5 0.6,0 0.9,-0.5 1.3,-0.8 6.6,-6.1 10.6,-13.6 12.8,-22.2 1.2,-4.7 1.8,-9.5 2.1,-14.3 0.4,-5.3 0.5,-10.7 0.5,-16 0,-9 -0.5,-17.9 -1.3,-26.9 -1.4,-14.6 -3.7,-29.1 -6.5,-43.5 -1.4,-7.2 -2.9,-14.4 -4.6,-21.6 -5,-20.9 -17,-36.6 -35.5,-47.3 -9.6,-5.6 -20,-9.2 -30.9,-11.4 -6.1,-1.3 -12.3,-1.9 -18.5,-1.6 -9.5,0.4 -18.5,2.8 -27,6.9 -9.3,4.5 -17.4,10.7 -24.7,17.9 -17.5,17.2 -30.3,37.4 -38.9,60.4 -4.8,12.9 -8.3,26.3 -10.6,39.8 -1.7,9.4 -2.9,18.9 -3.8,28.5 -0.5,5.6 -1.1,11.2 -2.4,16.7 -2.3,9.5 -7,17.4 -14.4,23.8 -0.2,0.2 -0.5,0.4 -0.7,0.6 -0.3,0.1 -0.4,0.1 -0.6,0.2 z"
       id="path29"
       inkscape:connector-curvature="0"
       style="clip-rule:evenodd;fill:#ff6600;fill-rule:evenodd" /><path
       class="st1"
       d="m 2694.1,1166.3 c 0,2.7 0,5.4 0,8.1 -0.4,5.5 -4.1,11.2 -9.1,13.7 -0.3,-1.5 -0.2,-3 -0.3,-4.5 -0.8,-18.9 -3.8,-37.5 -9.9,-55.5 -7.5,-22.5 -19.4,-42.5 -35.1,-60.3 -2.8,-3.2 -5.8,-6.2 -8.8,-9.3 -2.5,-2.6 -4.8,-5.4 -7.3,-8.1 -11.7,-12.4 -24.5,-23.3 -39.4,-31.8 -13.4,-7.6 -27.7,-12.6 -42.9,-14.9 -0.7,-0.1 -1.3,-0.3 -1.9,-0.5 -8,-2.5 -16.1,-3.9 -24.5,-3.7 -6.2,0.1 -12.4,1 -18.4,2.9 -2.5,0.8 -5,1.3 -7.6,1.7 -16.3,2.2 -30.6,9 -43.2,19.5 -9.1,7.6 -16.6,16.5 -23.4,26 -0.9,1.2 -1.7,2.4 -2.6,3.7 -1.5,-0.8 -2.8,-1.7 -3.9,-2.8 -1.8,-1.9 -2.2,-4 -1.1,-6.4 0.4,-1 1,-1.9 1.6,-2.8 0.7,-1 1.4,-2 2.1,-3.1 0.6,-0.9 1.3,-1.8 1.5,-2.9 0.4,-1.6 1.3,-2.6 2.4,-3.7 5.9,-5.9 11.9,-11.9 17.8,-17.9 0.7,-0.7 1.4,-1.2 2.2,-1.7 12.7,-6.7 25.4,-13.4 38.1,-20.1 0.9,-0.5 1.9,-0.7 3,-0.7 6,0 12,-0.5 18,-1.1 3.4,-0.3 6.8,-0.5 10.2,-0.7 4.2,-0.3 8.4,-0.3 12.6,0 6.4,0.5 12.6,1.6 18.9,3 20.8,4.6 40,13.1 58.1,24.3 9.6,5.9 18.8,12.5 27.7,19.5 0.4,0.3 0.8,0.8 1.5,0.9 0.3,-2.1 0.2,-4.1 -0.3,-6.2 -0.7,-3.1 -2.3,-5.7 -4.5,-8 -1.9,-1.9 -4,-3.5 -6.3,-4.8 -6.3,-3.6 -12.1,-8 -18.1,-12.1 -2.8,-1.9 -5.4,-4 -7.7,-6.5 -2.2,-2.4 -3.9,-5.1 -5.2,-8.1 -2.3,-5.2 -5.2,-10 -9.1,-14.2 -5.5,-5.8 -12.3,-9.2 -20,-10.9 -6.3,-1.4 -12.7,-1.5 -19.2,-1.2 -1.7,0.1 -3.3,0.2 -5,0.4 -0.4,0 -0.9,0.2 -1.5,0.3 0.9,0.7 1.7,1.1 2.6,1.5 4,1.9 8.4,3 12.7,4.1 3.1,0.8 6.2,1.5 9.3,2.5 4,1.4 7.7,3.3 10.6,6.5 1.5,1.7 2.8,3.6 3.7,5.8 -2.1,0.8 -4.2,1.1 -6.4,1.3 -4.6,0.4 -9.1,-0.3 -13.6,-1.3 -7.1,-1.6 -14.1,-3.2 -21.3,-4.4 -7,-1.2 -14,-1.9 -21,-1.7 -9.4,0.4 -18.3,2.6 -26.6,7.3 -1,0.6 -2.1,1 -3.3,1.2 -3.4,0.7 -6.7,1.5 -10,2.2 -1.4,0.3 -2.7,0.6 -4.1,0.7 -2.9,0.3 -5.8,0.2 -8.6,-0.6 -4.5,-1.3 -9.1,-2 -13.8,-2.1 -8.7,-0.1 -16.6,2.5 -23.7,7.7 -5.4,4 -9.8,8.9 -13.8,14.2 -1.5,2.1 -3.1,4.2 -4.4,6.4 -1.5,2.5 -3.4,4.7 -5.4,6.8 -5.5,5.6 -11,11.3 -16.5,16.9 -0.5,0.6 -1.1,1 -1.9,1.3 -0.7,0.2 -1.4,0.7 -2.1,1.1 -0.7,0.4 -1.4,0.9 -2.1,1.3 -3.8,2.2 -7.8,-0.1 -8,-4.5 -0.1,-2.6 0.9,-4.7 2.9,-6.5 2.2,-2 4.4,-3.9 6.5,-6 5.7,-5.6 11,-11.6 16.1,-17.7 6.5,-7.9 12.8,-16.1 19.4,-23.9 5.1,-6.1 10.5,-11.9 16.3,-17.3 3.6,-3.4 7.9,-5.2 12.7,-6 3.5,-0.6 7,-0.8 10.5,-0.6 7.8,0.3 15.5,-0.9 23.1,-2.3 9.8,-1.8 19.6,-3.8 29.5,-5.4 10.1,-1.6 20.3,-2.7 30.6,-2.7 14.6,0 28.7,2.9 42.4,7.9 2.1,0.8 4.1,1.7 6,2.8 7.4,4.1 12.8,10 15.9,17.9 2.1,5.4 5.6,9.6 10.3,12.9 2.5,1.7 5.1,3.2 7.7,4.7 9.7,5.6 17.7,13 23.5,22.6 1.8,3 3.4,6.1 4.7,9.3 0.6,1.5 1.1,3.1 1.3,4.8 0.4,3.1 -0.4,5.7 -2.8,7.8 -1.3,1.1 -2.8,2 -4.3,2.8 0.2,0.6 0.7,1.1 1.1,1.5 9.4,11.6 18.5,23.4 26.6,36 8,12.5 14.8,25.5 19.8,39.5 3.7,10.5 6.3,21.2 7.6,32.3 0.6,4.1 0.9,8 0.9,11.9 z"
       id="path31"
       inkscape:connector-curvature="0"
       style="clip-rule:evenodd;fill:#ff6600;fill-rule:evenodd" /><path
       class="st1"
       d="m 2379.1,1160.7 c -1.5,1.3 -2.5,2.7 -3.3,4.4 -1.1,2.4 -1.6,5 -1.9,7.7 -0.3,2.9 -0.4,5.8 -0.9,8.7 -0.7,4.1 -2.3,7.7 -5.7,10.3 -0.2,0.2 -0.5,0.4 -0.9,0.4 -0.4,-0.2 -0.4,-0.6 -0.6,-1 -2.5,-6 -3.4,-12.2 -3.5,-18.7 -0.2,-9.5 1.6,-18.7 4,-27.7 3.5,-13.2 8.5,-25.9 14,-38.3 1.8,-4 3.7,-8 5.5,-12 1.5,-3.3 3.6,-6.2 6,-8.8 4.2,-4.6 9,-8.4 14,-12.1 4.4,-3.3 8.9,-6.6 13.1,-10.3 3.2,-2.9 6,-6.2 9,-9.3 7.7,-8.2 15.7,-16.1 24.6,-23.1 10.1,-8 21.1,-14.6 33.5,-18.7 6.5,-2.2 13.2,-3.7 20,-4.3 1.1,-0.1 2.3,0 3.4,0 5.6,0 11.2,0.2 16.8,0.1 5,-0.1 9.8,0.7 14.6,1.7 15.9,3.4 30.4,10.2 43.9,19.1 10.5,6.9 20.2,14.9 29.6,23.2 3.9,3.4 7.7,6.9 11.5,10.4 0.2,0.2 0.4,0.4 0.5,0.6 10,12.3 19.4,25.1 27.3,38.9 7.4,13 13.3,26.7 17,41.2 1.8,7 3,14.2 4,21.4 0.4,2.9 0.7,5.9 0.6,8.8 -0.1,1.5 -0.3,2.9 -0.9,4.2 -0.9,2.1 -2.6,3.1 -4.9,3.4 -1.8,0.2 -3.1,-0.7 -4.1,-2 -1.3,-1.7 -2,-3.8 -2.2,-5.9 -0.4,-3 -0.6,-6 -1.1,-8.9 -1.3,-8.2 -3.7,-16 -6.6,-23.7 -3,-7.9 -6,-15.9 -9.7,-23.6 -7.4,-15.6 -16.6,-30 -28,-42.9 -13.9,-15.7 -30.2,-28.1 -48.9,-37.5 -12.3,-6.2 -25.3,-10.4 -38.8,-12.7 -6.7,-1.2 -13.4,-1.6 -20.1,-1.2 -14.6,0.8 -28,5.4 -40.2,13.4 -9.3,6.1 -17.3,13.6 -24.6,21.8 -1.1,1.3 -2.3,2.5 -3.3,3.9 -3.9,5.2 -8.6,9.5 -13.4,13.8 -2.5,2.2 -5.1,3.9 -8.1,5.3 -16.2,7.2 -26.3,19.7 -31.2,36.6 -0.5,1.9 -1,3.8 -1.4,5.7 -0.1,0.4 -0.3,0.9 0,1.5 12.4,-13.6 24.8,-27.1 37.2,-40.8 1.4,2 2.3,4.1 2.8,6.4 0.8,3.8 -0.1,7.3 -1.9,10.6 -1.8,3.5 -4.4,6.4 -6.9,9.4 -10.6,12.2 -17.2,26.4 -20.2,42.2 -1,5.1 -1.6,10.2 -1.9,15.4 0,0.9 -0.2,1.8 -0.5,2.8 -1.3,5.1 -2.2,10.3 -2.9,15.6 -1.1,7.8 -2.1,15.7 -4.3,23.3 -1.9,6.5 -4.5,12.7 -8.3,18.3 -0.3,0.5 -0.5,1 -1.1,1.4 -1,-2 -1.6,-4.2 -2.1,-6.3 -1.6,-6.5 -1.8,-13.1 -1.1,-19.8 0.7,-6.7 2.1,-13.3 3.1,-20 0.8,-5.5 1.5,-11.1 0.8,-16.7 -0.4,-1.9 -0.6,-3.8 -1.3,-5.6 z"
       id="path33"
       inkscape:connector-curvature="0"
       style="clip-rule:evenodd;fill:#ff6600;fill-rule:evenodd" /><path
       class="st1"
       d="m 2636.1,1198.9 c 0.6,0.3 0.7,0.8 1,1.2 2.9,4.7 4.5,9.8 5.1,15.2 0.6,5.6 0.2,11.2 -0.2,16.8 -0.2,2.4 -0.4,4.9 -0.4,7.3 0,2.5 -0.5,4.8 -1.1,7.2 -1.5,5.3 -3.7,10.5 -5.6,15.6 -1.7,4.6 -3.3,9.1 -4.3,13.9 -0.8,3.9 -1,7.9 -0.7,11.9 0,0.3 0,0.6 0.3,0.9 1,-0.6 1.7,-1.6 2.5,-2.4 4.8,-5.4 7.7,-11.7 9.5,-18.6 1.2,-4.7 2,-9.4 2.5,-14.2 0.4,-3.6 0.8,-7.3 1.2,-11 0.2,-1.6 0.8,-3.1 1,-4.7 0.5,-4.2 0.3,-8.5 0.1,-12.7 -0.2,-4.8 -0.5,-9.6 0.1,-14.4 0.7,-4.9 2.5,-9.4 5.7,-13.3 2.3,2.4 4,5.1 5.2,8.1 1.6,4 1.9,8.2 1.7,12.5 -0.3,4.6 -1,9.2 -1.6,13.7 -0.5,4.3 -0.7,8.7 -0.1,13 0,0.2 0,0.5 0.3,0.7 0.5,-0.3 0.8,-0.9 1.2,-1.3 3.6,-4.8 5.6,-10.4 6.5,-16.3 0.9,-5.3 1.1,-10.6 1.6,-15.9 0.5,-5.1 1.2,-10.1 3.1,-14.8 0.8,-2 1.8,-3.9 2.9,-5.6 0.5,-0.1 0.6,0.3 0.7,0.5 5.5,7.5 8.2,15.9 7.9,25.3 -0.2,6.5 -1.6,12.8 -3.3,19.1 -1.4,5 -2.8,10 -4.3,14.9 -0.7,2.3 -1.6,4.5 -3.2,6.4 -1.5,1.9 -2.8,4 -4.8,5.5 -0.3,0.2 -0.6,0.6 -1,0.7 -1.7,0.4 -3,1.4 -4.6,2 -2.8,1 -5,2.8 -6.8,5.2 -1.6,2.2 -2.8,4.6 -3.8,7.1 -3,7.7 -6.9,14.9 -10.3,22.4 -1.8,4.1 -4.4,7.7 -7.9,10.6 -2.1,1.7 -4.3,3 -6.7,4.1 -1,0.5 -2.1,0.8 -3.3,0.9 -1.9,0.1 -3.2,-0.6 -3.9,-2.4 -0.4,-1.1 -0.5,-2.2 -0.6,-3.3 -0.1,-2 0.2,-4 0.4,-6 -0.3,-0.2 -0.5,0 -0.6,0.1 -5.5,4.1 -11.3,7.7 -17.1,11.4 -6.8,4.3 -13.5,8.7 -19.6,14 -4,3.5 -7.7,7.3 -11.1,11.5 -0.2,0.3 -0.4,0.6 -0.7,0.9 0.4,0.2 0.8,0.1 1.1,0 6.8,-1.3 12.9,-4.1 18.6,-8 3.2,-2.2 6.3,-4.4 9.4,-6.6 1.4,-1 2.6,-2.2 3.9,-3.4 1.1,-1 2.2,-1.9 3.5,-2.6 2.5,-1.3 5.4,-0.6 7,1.8 0.8,1.2 0.8,2.5 0.4,3.9 -0.3,1 -0.8,2 -1.3,3 -0.8,1.6 -1.7,3.1 -2.1,4.8 -0.1,0.4 -0.3,0.7 -0.5,0.9 -0.3,0.4 -0.7,0.8 -1,1.2 -2.6,3.2 -2.6,3.1 -6.5,4.3 -6.5,2.1 -13.2,3.9 -19.6,6.4 -19,7.4 -35.2,18.9 -48.5,34.3 -0.5,0.6 -1,1.2 -1.6,1.9 -0.1,-0.9 0.3,-1.5 0.5,-2.1 2.2,-6.4 5.3,-12.3 8.7,-18.2 3.1,-5.4 6.5,-10.7 9.3,-16.3 2.2,-4.3 4,-8.6 5.3,-13.2 0.2,-0.6 0.3,-1 0.8,-1.4 6.6,-5 12.7,-10.4 19.4,-15.4 3.6,-2.7 7.4,-5.2 11.3,-7.4 8.9,-5 16.8,-11.2 23.2,-19.3 6.9,-8.7 11.1,-18.6 13.3,-29.5 0.7,-3.7 1.1,-7.4 1.5,-11.1 0.6,-5.8 1.4,-11.5 2.1,-17.3 0.6,-4.7 1.2,-9.3 1.7,-14 0.2,-1.7 0.8,-3.2 1,-4.9 0.3,-2.4 0.5,-4.8 0.9,-7.2 0.7,-3.3 2.3,-6.2 5.3,-8.3 z"
       id="path35"
       inkscape:connector-curvature="0"
       style="clip-rule:evenodd;fill:#ff6600;fill-rule:evenodd" /><path
       class="st1"
       d="m 2646.4,1191 c -0.6,-2.5 -1,-4.7 -1.5,-7 -3.3,-14.9 -7.3,-29.7 -12.9,-43.9 -5.8,-14.6 -13.3,-28.2 -23.1,-40.5 -2,-2.5 -3.6,-5.3 -5.6,-7.9 -10.7,-14.2 -23.8,-25.5 -39.6,-33.6 -9.9,-5.1 -20.4,-8.5 -31.3,-10.8 -3.4,-0.7 -6.9,-1.4 -10.3,-2.5 -1.7,-0.6 -3.3,-1.3 -4.5,-2.6 -1.6,-1.7 -2.1,-3.6 -1.7,-5.9 0.4,-1.9 1.6,-3 3.4,-3.5 1.7,-0.5 3.4,-0.6 5.1,-0.8 6.2,-0.8 12.2,0 18.2,1.4 5.5,1.2 10.8,2.8 16.3,3.9 0.5,0.1 0.9,0.3 1.3,0.6 15.6,9.3 30,20 42.9,32.7 21.2,20.8 36.8,45.2 47.1,73 0.2,0.4 0.3,0.9 0.3,1.3 -0.1,4.1 0.9,8 1.8,12 1,4.5 2,9 2.1,13.6 0,7.9 -2.9,14.4 -8,20.5 z"
       id="path37"
       inkscape:connector-curvature="0"
       style="clip-rule:evenodd;fill:#ff6600;fill-rule:evenodd" /><path
       class="st1"
       d="m 2525.2,935.5 c 4.4,-0.3 8.8,-0.4 13.2,-0.4 5.8,0 11.6,0.6 17.2,2.3 3.5,1.1 6.8,2.6 9.8,4.5 0.7,0.5 1,0.9 0.9,1.8 -0.1,0.6 -0.2,1.2 -0.4,1.8 -0.5,1 -1.2,1.5 -2.3,1.6 -0.8,0 -1.6,0 -2.3,-0.2 -11.8,-2.8 -23.8,-3.4 -35.8,-2.8 -10.1,0.5 -20.1,1.8 -30.1,3.1 -8.5,1.1 -16.9,2.2 -25.5,3 -5.9,0.5 -11.8,0.9 -17.7,0.8 -6.5,-0.1 -12.5,1.5 -18.2,4.6 -4,2.2 -7.6,4.8 -11.3,7.4 -2.8,2 -5.6,4 -8.4,5.9 -1.2,0.8 -2.4,1.6 -3.8,2.1 -2.3,0.8 -4.2,0.2 -5.7,-1.6 -2.1,-2.5 -2.4,-5.3 -0.8,-8.2 1.5,-2.7 3.6,-4.8 5.9,-6.8 3.3,-3 7.2,-5 11.4,-6.5 5.1,-1.8 10.3,-3.2 15.4,-4.9 0.8,-0.3 1.6,-0.2 2.4,-0.4 4.3,-0.7 8.7,-1.4 13,-2.5 2,-0.5 3.8,-1.4 5.4,-2.6 4,-2.9 8.6,-4.7 13,-6.9 3,-1.5 6.1,-3 8.7,-5.2 3.4,-2.8 7.1,-5 11.1,-6.8 2.2,-1 4.4,-1.7 6.9,-1.8 3.2,-0.1 5.9,1.2 8.4,3.1 0.3,0.3 0.6,0.6 0.6,1 -0.1,2.6 -0.9,4.4 -3.6,5.1 -1.5,0.4 -3.1,0.4 -4.6,0.6 -0.8,0.1 -1.6,0.3 -2.4,0.5 -2.2,0.8 -3.2,2.5 -3.6,4.7 -0.1,0.7 0.4,0.9 0.9,1 2.8,1 5.7,1.8 8.7,2.2 6.8,1.1 13.5,0.8 20.3,0.5 1,0.1 2.2,0 3.3,0 z"
       id="path39"
       inkscape:connector-curvature="0"
       style="clip-rule:evenodd;fill:#ff6600;fill-rule:evenodd" /><path
       class="st1"
       d="m 2360.5,1124.5 c -2.9,-8 -2.8,-15.7 0.2,-23.4 1.8,-4.6 4.3,-8.7 6.8,-12.9 1.6,-2.6 3.2,-5.2 4.8,-7.8 0.3,-0.5 0.7,-1 1.2,-1.4 0.6,-0.5 1.2,-1 1.9,-1.4 2.7,-2 5,-4.3 6.7,-7.3 0.8,-1.6 2,-2.9 3.4,-4 3.8,-3.3 6,-7.6 7.5,-12.3 1.2,-4.1 1.9,-8.3 2.8,-12.4 0.7,-3.1 1.4,-6.3 2.6,-9.2 1.3,-3.1 3,-5.9 5.4,-8.3 4,-4.1 7.7,-8.5 11.8,-12.6 4,-4 8.3,-7.5 13.4,-10 4.5,-2.2 9.2,-3.3 14.2,-3.5 0.3,0.5 -0.1,0.7 -0.3,1 -1.9,2.9 -3.8,5.8 -5.7,8.7 -0.4,0.6 -1,1.1 -1.5,1.5 -4.6,3.3 -9.1,6.8 -13.1,11 -0.5,0.5 -1,1 -1.5,1.6 -4.4,6 -9.5,11.4 -12.9,18 -2.5,4.9 -4.4,10 -6.2,15.2 -2.1,5.8 -4,11.6 -6.8,17.2 -2.7,5.4 -6.1,10.2 -10.7,14.1 -3.7,3.2 -6.3,7.2 -8.3,11.7 -1.6,3.6 -3.1,7.3 -4.7,11 -1.9,4.4 -4.2,8.6 -7.4,12.2 -1.1,1.2 -2.1,2.3 -3.6,3.3 z"
       id="path41"
       inkscape:connector-curvature="0"
       style="clip-rule:evenodd;fill:#ff6600;fill-rule:evenodd" /><path
       class="st1"
       d="m 2642,1312.5 c 5,-6.5 9.3,-13.4 13.1,-20.7 2.9,-5.6 5.5,-11.4 7.8,-17.3 0.5,-1.3 1.2,-2.4 1.7,-3.6 2.8,-5.9 6.6,-11.1 10.9,-16 0.4,-0.5 0.9,-0.9 1,-1.5 0.2,-1.1 1,-1.5 2,-1.6 0.9,-0.2 1.8,-0.5 2.8,-0.4 1.3,0.1 1.9,0.7 2,1.9 0,0.6 0,1.1 -0.1,1.7 -1.5,8.9 -2.8,17.9 -5.3,26.6 -1.4,5 -3.3,9.8 -5.9,14.3 -1.5,2.7 -3.5,5 -5.8,7 -2.8,2.4 -5.9,4.4 -8.9,6.4 -3.3,2.1 -6.7,4.2 -9.8,6.5 -0.5,0.4 -1,0.8 -1.5,1.1 -1.4,-1.4 -2.8,-2.8 -4,-4.4 z"
       id="path43"
       inkscape:connector-curvature="0"
       style="clip-rule:evenodd;fill:#ff6600;fill-rule:evenodd" /><path
       class="st1"
       d="m 2411.3,1284.5 c -1.6,-3.1 -2.7,-6 -3.5,-9 -1.8,-7 -1.5,-14.1 0.1,-21.1 1.5,-6.4 3.9,-12.5 6.2,-18.7 2.2,-5.6 4.4,-11.2 5.9,-17 1.3,-4.8 2,-9.6 1.9,-14.6 0,-0.4 0,-0.7 0,-1.1 0.6,0 0.6,0.4 0.8,0.7 4.8,7.9 7.2,16.4 6.7,25.7 -0.3,5.9 -1.7,11.6 -3.5,17.1 -1.5,4.3 -3.2,8.5 -5,12.7 -3.3,8.3 -7,16.4 -9.6,25.3 z"
       id="path45"
       inkscape:connector-curvature="0"
       style="clip-rule:evenodd;fill:#ff6600;fill-rule:evenodd" /><path
       class="st1"
       d="m 2537.9,1354.1 c 0,0.2 0,0.3 0,0.5 -2.3,5.7 -5.2,10.9 -9.6,15.3 -5.4,5.3 -12,8.2 -19.3,9.5 -1.1,0.2 -2.2,0.2 -3.2,-0.1 -3.2,-0.7 -5,-3.5 -4.4,-6.7 0.5,-2.6 2,-4.6 4,-6.3 4.5,-4 9.5,-7.1 15.2,-9.2 5.5,-2 11.1,-2.9 16.9,-3 0.1,-0.1 0.2,0 0.4,0 z"
       id="path47"
       inkscape:connector-curvature="0"
       style="clip-rule:evenodd;fill:#ff6600;fill-rule:evenodd" /><path
       class="st1"
       d="m 2381,1046 c 0.8,-0.1 1.6,0.1 2.3,0.3 1.8,0.5 2.8,1.7 2.9,3.6 0.1,2.3 -0.4,4.5 -1.5,6.4 -1.2,2.1 -2.1,4.4 -3.9,6.1 -0.5,0.5 -0.5,1.1 -0.6,1.7 -0.2,4.9 -2.7,8.7 -5.9,12.1 -0.2,0.2 -0.4,0.5 -0.7,0.6 -2.1,0.8 -4.2,1.7 -6.5,2 -1.3,0.2 -2.6,0 -3.8,-0.4 -1.9,-0.6 -2.8,-2 -3,-3.9 -0.1,-1.6 0.1,-3.2 0.6,-4.8 1.6,-6.1 5.1,-11 9.6,-15.3 2.8,-2.7 5.8,-5.1 8.5,-8 0.6,-0.6 1.3,-0.4 2,-0.4 z"
       id="path49"
       inkscape:connector-curvature="0"
       style="clip-rule:evenodd;fill:#ff6600;fill-rule:evenodd" /><path
       class="st1"
       d="m 2642,1312.5 c 1.6,1.3 3.1,2.6 3.9,4.5 -1.1,1.8 -2.4,3.4 -3.7,5 -8.3,10.3 -18,19.2 -28.4,27.3 -1.3,1 -2.8,2 -4.5,2.5 -1.9,0.5 -3.1,0 -3.7,-1.9 -0.5,-1.3 -0.6,-2.6 -0.6,-4 0,-0.4 0,-0.7 0.2,-1 1,-1.4 1.6,-3.2 3.3,-4 0.3,-0.2 0.6,-0.5 0.8,-0.8 0.9,-1.2 2,-2.1 3.3,-2.8 1.4,-0.7 2.7,-1.5 4.1,-2.1 4,-1.9 7.1,-4.9 9.9,-8.1 2.9,-3.2 5.5,-6.7 8.7,-9.7 2.1,-2 4.2,-3.8 6.7,-4.9 z"
       id="path51"
       inkscape:connector-curvature="0"
       style="clip-rule:evenodd;fill:#ff6600;fill-rule:evenodd" /><path
       class="st1"
       d="m 2403.5,979.7 c -0.6,2.8 -1.5,5.4 -2.6,8 -2.4,5.5 -6,10 -10.8,13.7 -4.2,3.3 -8.9,5.8 -13.8,8 -0.3,-0.6 0,-1.1 0.1,-1.5 1,-4.3 2.2,-8.5 4.1,-12.5 2.4,-5.3 5.9,-9.6 11.1,-12.4 3.4,-1.8 7,-2.8 10.8,-3.3 0.3,0 0.5,0 0.8,0 0,-0.1 0.1,0 0.3,0 z"
       id="path53"
       inkscape:connector-curvature="0"
       style="clip-rule:evenodd;fill:#ff6600;fill-rule:evenodd" /><path
       class="st1"
       d="m 2558.2,1378.7 c 2.5,-6.8 6.5,-12.2 13,-15.7 4,-2.1 8.2,-3.3 12.6,-4.4 1.9,-0.4 3.7,-0.8 5.6,-1.2 0.4,-0.1 0.8,-0.2 1.3,0 -3.7,8.1 -9.2,14.4 -17.7,17.7 -4.5,1.8 -9.2,2.7 -13.9,3.6 -0.3,0.1 -0.6,0.2 -0.9,0 z"
       id="path55"
       inkscape:connector-curvature="0"
       style="clip-rule:evenodd;fill:#ff6600;fill-rule:evenodd" /><path
       class="st1"
       d="m 2452.3,932.9 c -1.4,-0.1 -2.9,-0.1 -4.2,-0.8 -2.3,-1.1 -2.6,-2.4 -1.9,-4.4 0.6,-1.4 1.4,-2.5 2.5,-3.5 4.4,-3.4 9.3,-5.1 14.8,-5 1.4,0 2.7,0.3 3.9,1 1.5,0.9 1.9,2 1.5,3.7 -0.4,1.6 -1.4,2.8 -2.6,3.8 -2.9,2.4 -6.2,3.8 -9.9,4.6 -1.3,0.4 -2.7,0.5 -4.1,0.6 z"
       id="path57"
       inkscape:connector-curvature="0"
       style="clip-rule:evenodd;fill:#ff6600;fill-rule:evenodd" /><path
       class="st1"
       d="m 2545.9,925.3 c -9.6,1.4 -18.8,2.3 -27.9,-0.7 -0.2,-0.5 0.2,-0.7 0.4,-0.9 1,-1.1 2.1,-2.1 3.3,-3.1 3.7,-2.9 7.8,-3.6 12.3,-2.1 2.2,0.7 4.3,1.8 6.3,3 1.9,1.1 3.6,2.3 5.6,3.8 z"
       id="path59"
       inkscape:connector-curvature="0"
       style="clip-rule:evenodd;fill:#ff6600;fill-rule:evenodd" /><path
       class="st2"
       d="m 2560,1240.7 c -0.4,-0.3 -0.6,-0.9 -0.9,-1.3 -1.8,-3.1 -2.7,-6.5 -3.1,-10 -0.5,-4.2 -0.1,-8.5 0.1,-12.7 0.2,-3.4 0.6,-6.7 0.3,-10.1 -0.1,-0.7 -0.2,-1.4 -0.4,-2.1 -2.2,-6.8 -4,-13.7 -5.1,-20.8 -0.9,-5.2 -1.2,-10.4 -1.4,-15.6 -0.1,-2.8 -0.6,-5.4 -1.5,-8.1 -2.4,-6.9 -7.1,-11.3 -14.1,-13.2 -6.4,-1.7 -12.8,-1.6 -19.2,0.4 -7.9,2.5 -12.9,7.9 -15.6,15.6 -1.1,3.2 -1.9,6.4 -3.1,9.6 -2.7,7.2 -6.2,14 -11.2,19.9 -1.8,2.1 -3.9,4 -6,5.9 -0.6,0.5 -1.1,0.5 -1.7,0.1 -4.2,-2.7 -4.9,-6.2 -1.9,-10.2 0.7,-1 1.6,-1.9 2.5,-2.8 4.7,-4.3 8.1,-9.4 10.9,-15 1.9,-3.7 3.5,-7.5 5.2,-11.3 1.8,-3.9 3.6,-7.8 5.9,-11.4 1.3,-2.1 2.8,-4.1 4.4,-6 0.9,-1 1.7,-2 2.3,-3.2 1.3,-2.5 0.7,-4.1 -2,-5.1 -1.5,-0.5 -3,-0.7 -4.6,-0.8 -1.3,-0.1 -2.6,0 -3.9,-0.1 -0.8,-0.1 -1.4,0.2 -2,0.7 -2.2,1.7 -3.8,3.9 -5.1,6.4 -1.4,2.6 -2.4,5.3 -3.5,8 -1.1,2.8 -2.3,5.6 -4,8 -1.7,2.5 -3.9,4.5 -6.6,5.8 -0.3,0.1 -0.5,0.3 -0.9,0.3 -0.4,-0.2 -0.2,-0.5 -0.3,-0.8 -0.5,-7.2 1.5,-13.7 5.5,-19.7 3.1,-4.6 6.9,-8.7 11.1,-12.3 2.3,-2 5.1,-3.3 7.8,-4.7 5.7,-3 11.7,-5.3 18.1,-6.3 13.1,-1.9 23.6,2.4 31.3,13.3 3.9,5.5 6.2,11.8 7.9,18.3 1.4,5.4 2.1,10.9 2.8,16.4 0.9,7.7 1.6,15.4 2.2,23.2 0.3,3.7 1.5,7.1 2.3,10.6 1.5,6.6 2.5,13.3 2.3,20.2 -0.2,7.1 -1.6,13.9 -4.4,20.4 0,0 0,0.4 -0.4,0.5 z"
       id="path61"
       inkscape:connector-curvature="0"
       style="clip-rule:evenodd;fill:#ffffff;fill-rule:evenodd" /><path
       class="st2"
       d="m 2507.8,1252.7 c -0.6,-3.4 -0.9,-6.5 -1,-9.7 -0.2,-8.8 1.4,-17.3 4,-25.6 1.9,-6 4.2,-11.8 6.6,-17.6 0.1,-0.2 0.2,-0.4 0.4,-0.8 1.1,2.4 1.8,4.8 2.6,7.2 1.6,5.2 2.8,10.5 3,16 0.1,4.9 -0.7,9.7 -2.7,14.2 -2.9,6.4 -7.5,11.4 -12.9,16.3 z"
       id="path63"
       inkscape:connector-curvature="0"
       style="clip-rule:evenodd;fill:#ffffff;fill-rule:evenodd" /><path
       class="st2"
       d="m 2508.2,967.4 c -3.1,0.8 -6.1,1.7 -9.1,2.5 -8.8,2.4 -17.7,4.8 -26.6,6.8 -4.7,1.1 -9.4,2 -14.3,2.1 -3.2,0 -6.2,-0.6 -9,-1.9 -2,-0.9 -3.9,-1.9 -5.7,-3 0,-0.4 0.2,-0.4 0.4,-0.4 7.6,0.2 15.1,-1.2 22.5,-2.7 6.3,-1.3 12.6,-2.8 19,-3.7 7.3,-1.1 14.5,-1.5 21.8,-0.2 0.3,0 0.5,0.1 0.8,0.2 0,0 0.1,0.1 0.2,0.3 z"
       id="path65"
       inkscape:connector-curvature="0"
       style="clip-rule:evenodd;fill:#ffffff;fill-rule:evenodd" /><path
       class="st1"
       d="m 2510.6,1136.4 c 0.8,-2 1.4,-3.7 2.1,-5.4 0.2,-0.4 0.5,-0.6 0.9,-0.8 4.2,-1.9 8.5,-3.2 13.2,-3 3.8,0.1 7.2,1.4 10.3,3.4 0.8,0.5 1.3,1.2 1.4,2.1 0,0.2 0.1,0.4 0.1,0.6 0.5,2.8 0.3,3.1 -2.3,3.8 -3.7,1 -7.5,0.9 -11.3,0.6 -4.7,-0.5 -9.4,-1.4 -14.4,-1.3 z"
       id="path67"
       inkscape:connector-curvature="0"
       style="clip-rule:evenodd;fill:#ff6600;fill-rule:evenodd" /></g><g
     id="g69"
     transform="translate(-376.9,-916.79461)"><path
       class="st3"
       d="m 2400.9,1460.4 c -17.7,0 -32.2,-14.4 -32.2,-32.2 0,-17.8 14.4,-32.2 32.2,-32.2 17.8,0 32.2,14.4 32.2,32.2 0,17.8 -14.5,32.2 -32.2,32.2 z m 0,-59 c -14.8,0 -26.8,12 -26.8,26.8 0,14.8 12,26.8 26.8,26.8 14.8,0 26.8,-12 26.8,-26.8 0,-14.8 -12,-26.8 -26.8,-26.8 z"
       id="path71"
       inkscape:connector-curvature="0"
       style="fill:#201e1e" /><g
       id="g73"><path
         class="st3"
         d="m 2414.7,1423.3 c 0,5.1 -2.2,8.3 -6.7,9.6 l 8.1,11.2 -6.6,0 -7.4,-10.4 -6.8,0 0,10.4 -5.2,0 0,-30.9 11.5,0 c 4.7,0 8.1,0.8 10.1,2.4 2,1.6 3,4.2 3,7.7 z m -6.9,4.3 c 1.1,-0.9 1.6,-2.4 1.6,-4.4 0,-2 -0.5,-3.4 -1.6,-4.2 -1.1,-0.8 -3,-1.1 -5.8,-1.1 l -6.6,0 0,11 6.5,0 c 2.8,0.1 4.8,-0.3 5.9,-1.3 z"
         id="path75"
         inkscape:connector-curvature="0"
         style="fill:#201e1e" /></g></g><path
     class="st1"
     d="m 678.7,657.60539 c 7.7,0 15.3,0 23,0 1.8,0 4.6,-1 4.3,2.6 -0.2,2.6 1.1,6 -3.2,6.3 -5,0.3 -5.5,3.3 -5.5,7.5 0.2,17 0.2,33.9 0,50.9 0,3.6 0.4,6.2 4.7,5.1 3.4,-0.9 9.6,3.5 9.4,-4.7 -0.1,-2.5 0.6,-5.1 0.5,-7.6 -0.3,-5 2.1,-5.9 6.7,-5.9 5.4,0 3.7,3.5 3.8,6.2 0.1,5.8 -0.2,11.6 0.1,17.4 0.2,3.8 -1.2,4.6 -4.8,4.6 -12.1,-0.2 -24.2,0 -36.3,-0.1 -2.1,0 -5,1.1 -4.8,-3 0.1,-2.8 -0.5,-5.7 3.7,-5.9 4.1,-0.2 5,-2.6 5,-6.5 -0.2,-17 -0.3,-33.9 0,-50.9 0.1,-4.8 -1.6,-7.1 -6.1,-6.8 -4,0.3 -8.2,0.1 -8,6.7 0.4,14.2 0.3,28.4 -0.5,42.5 -1,17.7 -9.2,24.9 -26.7,24.6 -11.2,-0.2 -18,-5.9 -20.7,-17.8 -2.8,-12.2 -1.3,-24.5 -1.6,-36.8 -0.1,-4.4 -0.4,-8.9 0.1,-13.2 0.5,-4.8 -2.7,-5.6 -5.9,-5.7 -3.9,-0.1 -1.8,3.3 -2.1,5.1 -0.3,2.5 -0.5,5.2 0,7.6 1.2,6.5 -1.8,7.8 -7.6,7.4 -3.3,-0.3 -4.4,-1.1 -4.6,-4.3 -0.2,-3.7 -0.9,-7.4 -2.8,-10.7 -2.3,-3.9 -5.4,-6.2 -10.1,-6.1 -5,0 -7.7,3 -9.5,7 -2.2,4.9 -2.9,10.3 -3.1,15.6 -0.3,9.5 -0.8,19.1 1.1,28.5 1.9,9.2 6.5,14.2 13,13.9 6.3,-0.3 10.2,-5.2 11.7,-14.3 0.5,-3 -0.9,-6.7 5,-6.9 6.7,-0.2 7.7,2.1 7,8 -1.6,13.8 -8.6,22 -20.1,22.8 -16.8,1.2 -25,-4 -28.2,-19.1 -3.3,-15.6 -3.1,-31.4 -0.4,-47.1 3.4,-19.5 23.5,-22.2 35.4,-14.7 0.7,0.4 1,1.9 2.1,1.2 11.6,-7.3 24.3,-1.2 36.3,-3.2 2.5,-0.4 3.2,1 3,3.3 -0.2,2.4 0.8,5.6 -3,5.9 -6,0.4 -5.9,4.3 -5.8,8.8 0.4,13.2 -0.8,26.5 1,39.7 1.3,9.7 5.9,15.6 12,15.7 6.2,0.1 11.2,-5.4 12.5,-15.3 1.9,-14.8 0.4,-29.7 0.8,-44.6 0.1,-3.5 -2.4,-3.5 -4.6,-3.8 -4.2,-0.5 -4.1,-3.4 -4.1,-6.6 0,-4.6 3.3,-2.9 5.4,-3 7.7,-0.4 15.1,-0.3 22.5,-0.3 z"
     id="path77"
     inkscape:connector-curvature="0"
     style="clip-rule:evenodd;fill:#ff6600;fill-rule:evenodd" /><path
     class="st1"
     d="m 1075.5,720.00539 c 3.7,-17.2 7.4,-34.4 11.1,-51.6 0.4,-1.8 1.1,-3.6 1.1,-5.4 0.1,-4.6 2.4,-5.7 6.7,-5.5 5.8,0.4 11.6,0 17.4,0.1 1.8,0 4.6,-1 4.3,2.6 -0.2,2.5 1.2,5.9 -3.2,6.2 -4.8,0.4 -5.5,3.1 -5.5,7.5 0.3,16.7 0.2,33.5 0,50.2 0,3.8 0.6,6.3 4.9,6.6 4.6,0.3 3.9,3.6 3.8,6.6 0,4.2 -3.2,2.4 -5.1,2.5 -5.8,0.2 -11.6,0.2 -17.4,0 -1.7,-0.1 -4.7,1.4 -4.6,-2.2 0,-2.3 -1.5,-5.7 2.1,-6.4 5.3,-1.1 4.7,-4.7 4.6,-8.5 0,-12.5 0,-25.1 0,-38.3 -3.4,6 -3.4,12.3 -4.8,18.2 -2.5,10.6 -4.8,21.3 -6.7,32 -0.7,3.9 -1.9,5.4 -6.1,5.3 -11.2,-0.1 -11.2,0.1 -13.5,-10.9 -3,-14.6 -6,-29.3 -10.1,-43.8 0,13.4 0.1,26.9 0,40.3 0,2.6 0.4,4.6 3.4,5 4.5,0.6 3.6,4.1 3.5,6.9 -0.2,4.1 -3.4,2.2 -5.3,2.3 -5.8,0.2 -11.6,0.2 -17.4,0 -2,0 -5,1.2 -4.8,-2.9 0.1,-2.8 -0.6,-5.8 3.6,-6.1 4.1,-0.3 5.1,-2.5 5.1,-6.5 -0.2,-17.2 -0.2,-34.4 0,-51.6 0,-3.6 -0.7,-5.8 -4.6,-6.1 -4.3,-0.3 -4.3,-3.1 -4.1,-6.4 0.3,-4.6 3.7,-2.6 5.7,-2.7 5.6,-0.3 11.2,0.3 16.7,-0.2 4.3,-0.4 5.4,1.4 6.2,5.2 3.9,19.1 8,38.2 12,57.2 0.4,0.3 0.7,0.4 1,0.4 z"
     id="path79"
     inkscape:connector-curvature="0"
     style="clip-rule:evenodd;fill:#ff6600;fill-rule:evenodd" /><path
     class="st1"
     d="m 533.4,666.30539 c 0,4.4 0,8.5 0,12.7 0,2.8 0.6,5.7 -4.1,5.2 -3.2,-0.4 -6.7,0.5 -6.3,-4.7 0.2,-2.1 -0.4,-4.2 -0.3,-6.3 0.4,-4.9 -1.8,-5.9 -6.5,-6.1 -5.5,-0.2 -4.6,3 -4.6,6.1 0,16.7 0.1,33.5 -0.1,50.2 -0.1,4.4 0.6,7.3 5.6,7.4 4.2,0.1 4.4,2.7 4.4,6.1 -0.1,4.7 -3.4,2.9 -5.5,2.9 -7.2,0.2 -14.4,0.1 -21.6,0.1 -2,0 -4.5,0.6 -4.2,-2.8 0.2,-2.3 -1.2,-5.6 2.9,-5.9 6.4,-0.4 6.8,-4.2 6.7,-9.4 -0.3,-16.5 -0.2,-33 -0.1,-49.5 0,-3.1 0,-5.5 -4.3,-5 -2.9,0.4 -6.8,-1.3 -6.5,4.2 0.1,2.3 -0.7,4.6 -0.5,6.9 0.3,4.4 -1.3,5.7 -5.9,5.8 -5.5,0.2 -4.5,-3.1 -4.5,-6.2 0,-5.6 0.2,-11.2 -0.1,-16.7 -0.1,-3.1 1,-3.9 4,-3.9 25.6,0.1 51.1,0.1 76.7,0.1 1.8,0 4,-0.3 3.6,2.6 -0.3,2.2 1.6,5.7 -2.5,6 -6.1,0.5 -6.2,4.4 -6.1,9.2 0.2,16.3 0.2,32.5 0,48.8 0,3.8 0.6,6.4 4.8,6.6 4.6,0.3 3.9,3.6 3.9,6.5 0,4.2 -3.2,2.5 -5,2.5 -6.5,0.2 -13,0.2 -19.5,0 -1.7,0 -4.7,1.3 -4.7,-2.3 0,-2.5 -1.5,-6.1 2.9,-6.5 5.3,-0.5 5.8,-3.7 5.7,-8.2 -0.2,-16 -0.4,-32.1 0.1,-48.1 0.1,-5.6 -1.5,-8.4 -8.4,-8.3 z"
     id="path81"
     inkscape:connector-curvature="0"
     style="clip-rule:evenodd;fill:#ff6600;fill-rule:evenodd" /><path
     class="st1"
     d="m 1328.1,679.90539 c 0,15.3 0.1,30.6 -0.1,46 0,2.8 0.8,4.4 3.6,4.9 4.5,0.7 3.5,4.2 3.3,7 -0.3,3.9 -3.5,2 -5.4,2.1 -5.8,0.3 -11.6,0.2 -17.4,0 -1.8,0 -4.7,1.2 -4.6,-2.4 0.1,-2.5 -1.3,-6 3.1,-6.4 4.7,-0.5 5.7,-3.1 5.6,-7.5 -0.3,-16.7 -0.2,-33.5 0,-50.2 0,-3.7 -0.4,-6.4 -4.7,-6.7 -4.4,-0.3 -4.1,-3.4 -3.9,-6.5 0.2,-4.1 3.3,-2.5 5.2,-2.5 7.2,-0.1 15.8,-2.3 21.2,0.8 5.5,3.2 5.3,12.7 7.6,19.4 4.5,13.1 8.6,26.3 14.1,39.2 0,-15.4 0,-30.8 0,-46.1 0,-2.7 -1.3,-3.7 -3.6,-4.1 -4.5,-0.9 -3.2,-4.5 -3.1,-7.2 0.2,-3.4 3.2,-1.9 4.9,-1.9 5.8,-0.2 11.6,-0.2 17.4,0 2,0 5,-1.3 4.9,2.8 -0.1,2.7 0.7,5.9 -3.5,6.1 -5.2,0.3 -5.3,3.6 -5.3,7.7 0.2,20 -0.1,40 0.2,60 0.1,4.4 -0.9,5.9 -5.6,5.8 -13,-0.2 -13,0 -17.1,-12.7 -5.1,-15.8 -10.3,-31.7 -15.4,-47.5 -0.7,-0.1 -1,-0.1 -1.4,-0.1 z"
     id="path83"
     inkscape:connector-curvature="0"
     style="clip-rule:evenodd;fill:#ff6600;fill-rule:evenodd" /><path
     class="st1"
     d="m 791.2,734.90539 c -0.5,6.4 -5,5.2 -8.7,5 -5,-0.2 -2.3,-4.2 -2.6,-6.4 -0.5,-4.1 0.3,-8.4 -0.2,-12.5 -1,-6.8 2,-8.1 8,-7.7 3.4,0.3 4.2,1.4 4.5,4.5 0.6,6.1 3.6,10.7 10,11.6 5,0.7 8.7,-1.9 10.3,-6.5 2.1,-6.1 0.6,-11.4 -4.6,-15.5 -3.3,-2.6 -7.1,-4.3 -10.9,-6 -13.7,-6.1 -19,-16.6 -15.6,-31.1 3.1,-13.3 18.2,-19 28.9,-11 1.7,1.3 2.3,3.2 4.1,-0.4 1.5,-2.8 5.6,-1.4 8.3,-1.1 3.1,0.4 1.4,3.4 1.5,5.2 0.2,5.8 0.3,11.6 0,17.4 -0.1,2.6 2.1,7.1 -3.9,6.5 -3.9,-0.4 -8.7,1.4 -8.5,-5.5 0.1,-2.4 -0.8,-5.1 -2,-7.3 -1.7,-3.3 -3.8,-6.5 -8.2,-6.7 -3.8,-0.2 -6.1,2.2 -7.6,5.2 -2,4 -2,8.1 1.1,11.8 3.6,4.2 8.6,6.2 13.4,8.5 14.3,6.6 19.3,16.8 16.2,32.3 -1.4,7.2 -4.9,13 -12.2,14.6 -7.2,1.5 -15.2,2.8 -21.3,-4.9 z"
     id="path85"
     inkscape:connector-curvature="0"
     style="clip-rule:evenodd;fill:#ff6600;fill-rule:evenodd" /><path
     class="st1"
     d="m 1573.6,672.40539 c 0,2.6 -0.4,5.2 0.1,7.7 1.1,6.1 -1.7,7.4 -7.2,7 -3.5,-0.3 -4.9,-1.1 -5.2,-4.6 -0.2,-2.7 -0.8,-5.6 -2,-8 -1.7,-3.5 -4,-7 -8.7,-7 -3.7,0 -6,2.5 -7.4,5.5 -1.8,4 -1.7,8.2 1.5,11.7 3.5,3.9 8.2,5.9 12.9,8.1 15.2,7 20.5,18.8 16,34.8 -3.6,12.6 -20.3,18.1 -30.5,9.9 -2.2,-1.8 -2.4,-2.2 -3.7,0.7 -1.7,3.9 -5.7,1.6 -8.6,1.6 -2.8,0 -1.5,-2.9 -1.6,-4.5 -0.2,-5.6 -0.1,-11.2 0,-16.7 0,-2.3 -1,-5.9 3.3,-5 3.1,0.7 8.6,-3.3 9,3.9 0,0.7 0.1,1.4 0.3,2.1 1.2,5.2 4.1,8.9 9.5,9.9 4.3,0.7 7.9,-1.1 9.9,-5 2.5,-4.9 2.4,-9.8 -1.1,-14.3 -3.6,-4.5 -8.8,-6.6 -13.9,-8.9 -13.5,-6 -18.7,-17 -15.1,-31.3 3.3,-13.2 18.1,-18.5 29.1,-10.4 1.6,1.2 2,2.7 3.6,-0.3 1.9,-3.5 6,-1.7 8.8,-1.2 2.4,0.4 1,3.5 1.2,5.4 0,2.9 -0.2,5.9 -0.2,8.9 z"
     id="path87"
     inkscape:connector-curvature="0"
     style="clip-rule:evenodd;fill:#ff6600;fill-rule:evenodd" /><path
     class="st1"
     d="m 1223.6,666.20539 c 0,5.6 -0.2,11.2 0,16.7 0.1,2.9 -0.7,4.8 -3.8,3.9 -2.8,-0.8 -7.4,3 -8.2,-3.1 -0.5,-3.9 -0.9,-7.9 -2.9,-11.4 -2.2,-3.8 -5.2,-6.3 -10,-6.4 -4.9,-0.1 -8.3,2.6 -9.6,6.7 -5.1,16.8 -5.3,33.9 -0.2,50.7 1.4,4.7 5.5,7.6 10.7,7.5 5.5,-0.1 8.9,-3.5 10.7,-8.5 0.7,-2 1,-4.1 1.3,-6.1 0.9,-5.4 5.1,-7.9 10.3,-6.2 2.3,0.8 1.9,2.4 1.8,3.9 -0.7,24.3 -15.2,30.1 -35.1,25.3 -7.1,-1.7 -10.9,-8 -12.5,-14.7 -4.2,-17.2 -4,-34.5 -0.8,-51.8 2.9,-15.8 21.4,-21.6 35.2,-12.8 0.8,0.5 1.9,1.5 2.2,0.9 2.2,-6.1 7,-2.1 10.5,-3 2.6,2.7 2.3,5.6 0.4,8.4 z"
     id="path89"
     inkscape:connector-curvature="0"
     style="clip-rule:evenodd;fill:#ff6600;fill-rule:evenodd" /><path
     class="st1"
     d="m 1224.9,657.80539 c 8.1,-0.1 16.2,-0.2 24.3,-0.2 1.7,0 4.1,-0.5 3.7,2.5 -0.3,2.2 1.7,5.7 -2.4,6.1 -6.7,0.6 -6.3,5 -6.2,9.7 0.1,16.2 0.1,32.5 0,48.7 0,3.6 0.7,5.8 4.6,6.1 4.2,0.3 4.2,3.1 4.2,6.3 -0.1,4.7 -3.5,2.7 -5.5,2.8 -6.5,0.2 -13,0.1 -19.5,0.1 -1.9,0 -4.5,0.9 -4.4,-2.7 0.1,-2.6 -1,-5.9 3.3,-6.2 5,-0.4 5.4,-3.5 5.4,-7.7 -0.2,-15.8 -0.4,-31.6 0.1,-47.3 0.2,-6.1 -1.1,-9.7 -7.5,-10.2 -1.3,-2.7 -1.3,-5.3 -0.1,-8 z"
     id="path91"
     inkscape:connector-curvature="0"
     style="clip-rule:evenodd;fill:#ff6600;fill-rule:evenodd" /><path
     class="st1"
     d="m 565.1,636.30539 c -6.7,5.8 -9.4,17.7 -22.1,13.8 5.3,-14.2 7.2,-15.5 22.1,-13.8 z"
     id="path93"
     inkscape:connector-curvature="0"
     style="clip-rule:evenodd;fill:#ff6600;fill-rule:evenodd" /><path
     class="st4"
     d="m 1224.9,657.80539 c 0,2.7 0,5.3 0,8 -0.4,0.3 -0.8,0.4 -1.3,0.4 -0.1,-2.8 -0.2,-5.6 -0.3,-8.4 0.6,0 1.1,0 1.6,0 z"
     id="path95"
     inkscape:connector-curvature="0"
     style="clip-rule:evenodd;fill:#444444;fill-rule:evenodd" /><path
     class="st1"
     d="m 1480,731.20539 c 5.9,-0.1 7.8,-2.5 7.7,-8.1 -0.4,-16.5 -0.3,-33 -0.1,-49.5 0,-4 -0.5,-6.9 -5.1,-7.1 -4.4,-0.2 -3.5,-3.4 -3.6,-6 -0.1,-4.1 2.9,-2.8 4.9,-2.8 12.8,-0.1 25.6,0.1 38.3,-0.1 3.4,0 4.4,1 4.3,4.3 -0.3,5.1 0,10.2 -0.1,15.3 0,3.1 1.1,6.4 -4.4,6.4 -4.6,-0.1 -6.3,-1.5 -5.8,-5.8 0,-0.5 0,-0.9 -0.1,-1.4 -0.5,-2.9 0.6,-7.5 -1.7,-8.3 -4,-1.3 -8.7,-0.7 -13.1,-0.5 -2.5,0.1 -1.5,2.5 -1.6,3.9 -0.1,5.6 0.2,11.2 -0.1,16.7 -0.3,4 1.4,4.8 4.8,4.4 2.1,-0.2 4.2,0.2 6.3,-0.1 5.1,-0.8 6.9,0.9 6.6,6.3 -0.3,3.9 -1.1,5 -5.1,5 -12.5,0 -12.5,0.2 -12.5,12.5 0,1.4 0,2.8 0,4.2 0,9.8 0,9.5 9.9,9.8 4.3,0.1 6.4,-0.9 6.1,-5.5 -0.1,-2.3 0.6,-4.6 0.5,-6.9 -0.2,-4.1 0.8,-5.9 5.7,-6 5.5,-0.1 4.6,3 4.6,6.1 0,6 -0.2,12.1 0.1,18.1 0.1,3.1 -0.9,3.9 -3.9,3.9 -35.8,-0.1 -71.6,-0.1 -107.4,-0.1 -1.9,0 -4.4,0.8 -4.4,-2.7 0.1,-2.7 -0.7,-5.8 3.4,-6.3 3.8,-0.4 4.6,-2.1 3.7,-6 -2.9,-13 -7.2,-15.8 -20.5,-12.9 -2.2,0.5 -2.3,1.7 -2.7,3.3 -0.8,3.2 -1.5,6.3 -2.5,9.4 -1.1,3.5 -0.7,5.8 3.5,6.2 4.8,0.4 3.4,4 3.5,6.7 0.1,3.7 -2.9,2.2 -4.6,2.2 -6,0.2 -12.1,0.1 -18.1,0 -1.6,0 -4.2,1.1 -4.3,-1.9 0,-2.5 -1.6,-6.1 2.5,-6.9 4.4,-0.9 4.9,-4.2 5.8,-7.6 5.1,-20.2 10.5,-40.4 15.4,-60.7 0.9,-3.8 2.1,-5.3 6.3,-5.3 10.7,0.1 10.7,-0.1 13.4,10.4 4.8,18.9 9.7,37.8 14.3,56.7 1.1,4.6 3.3,6.7 8.1,6.4 5.4,-0.3 5,-4 5,-7.8 -0.1,-16.7 -0.1,-33.5 0,-50.2 0,-3.5 -0.5,-5.8 -4.6,-6.1 -4.1,-0.3 -4.3,-3.1 -4.1,-6.4 0.2,-4.6 3.6,-2.7 5.7,-2.7 6,-0.3 12.1,-0.3 18.1,0 2,0.1 5.5,-2 5.6,2.7 0.1,3.2 0.2,6.2 -4.1,6.4 -3.9,0.2 -4.7,2.4 -4.7,6 0.2,17.7 0.2,35.3 0,53 -0.1,4.1 1.7,5.1 4.8,4.2 3.2,-0.9 9.1,3.7 9.3,-4.1 0.1,-2.8 0.7,-5.6 0.5,-8.3 -0.3,-5.3 2.4,-5.7 6.8,-5.7 5.5,0 3.5,3.7 3.7,6.2 0.2,4.4 0,8.8 0,13.1 z m -75.5,-55.7 c -2.1,8.2 -4.1,16.5 -6.3,25.1 4.7,0 9.1,0 13.8,0 -2.1,-8.6 -4.2,-16.9 -6.2,-25.2 -0.5,0 -0.9,0.1 -1.3,0.1 z"
     id="path97"
     inkscape:connector-curvature="0"
     style="clip-rule:evenodd;fill:#ff6600;fill-rule:evenodd" /><path
     class="st1"
     d="m 431.4,698.70539 c 0,-8.6 -0.2,-17.2 0.1,-25.8 0.1,-3.6 -0.7,-5.9 -4.5,-6.2 -4.2,-0.3 -4.3,-3.1 -4.2,-6.3 0.3,-4.6 3.7,-2.6 5.7,-2.7 9.1,-0.2 18.1,-0.2 27.2,-0.1 11.5,0.2 17.5,5.8 18.7,17.1 0.6,5.1 0.4,10.2 -0.2,15.3 -0.5,4.3 -1.9,9.2 -5.7,10.7 -8.7,3.4 -5.1,8.1 -2.2,12.6 4,6.4 4.8,15.1 13.3,18.7 1.9,0.8 1,4.3 0.6,6.5 -0.4,2.3 -2.6,1.3 -4.1,1.3 -5.8,0.1 -11.6,0.1 -17.4,0 -1.6,0 -4.4,0.9 -3.9,-2.2 0.4,-2.1 -2.5,-6 2.7,-6.2 3.2,-0.1 2.9,-2.1 1.8,-4.4 -3.1,-6.5 -6.2,-13 -9.1,-19.5 -1.1,-2.5 -2.8,-2.8 -5,-2.5 -3,0.5 -1.6,2.9 -1.7,4.4 -0.2,4.2 0.2,8.4 -0.1,12.5 -0.3,4.8 -0.1,8.7 6.1,9.2 4.1,0.3 2.3,3.8 2.5,6 0.4,3.6 -2.5,2.6 -4.3,2.6 -14.6,0.1 -29.3,0.1 -43.9,0 -1.8,0 -4.6,1 -4.5,-2.5 0,-2.6 -1,-5.9 3.2,-6.4 4.5,-0.5 4.7,-2.6 3.7,-6.6 -3,-12.7 -6.7,-15 -20.2,-12.4 -2.1,0.4 -2.5,1.4 -2.9,3.1 -0.8,3.4 -1.5,6.8 -2.6,10.1 -1.2,3.5 -0.2,5.4 3.4,5.6 4.7,0.4 3.6,3.8 3.6,6.6 0,4.2 -3.3,2.3 -5.1,2.4 -5.8,0.2 -11.6,0.2 -17.4,0 -1.8,0 -4.6,1.1 -4.5,-2.4 0.1,-2.3 -1.3,-5.7 2.4,-6.3 4.8,-0.9 5.2,-4.6 6.1,-8.2 5.2,-20.2 10.5,-40.4 15.4,-60.7 0.9,-3.8 2.3,-4.7 6,-4.7 10.9,0 10.9,-0.2 13.5,10.2 4.8,18.9 9.8,37.7 14.3,56.7 1.1,4.6 3.2,6.8 8,6.5 5.4,-0.3 5.2,-3.9 5.1,-7.8 0,-8 0.1,-16.1 0.1,-24.2 z m 12,-7.5 c -0.3,3.6 1.2,4.2 4.4,4.1 5.1,-0.2 10.9,0.4 13.4,-5.1 2.8,-6.1 3,-12.8 -0.6,-18.7 -3.5,-5.7 -9.9,-4.9 -15.1,-3.9 -3.9,0.8 -1.2,5.4 -1.8,8.3 -0.3,1.5 -0.1,3.2 -0.1,4.8 -0.1,3.6 0.1,7.1 -0.2,10.5 z m -49.3,-15.7 c -0.4,0 -0.8,0 -1.2,0 -2.1,8.2 -4.1,16.5 -6.3,25 4.8,0 9.1,0 13.8,0 -2.1,-8.5 -4.2,-16.7 -6.3,-25 z"
     id="path99"
     inkscape:connector-curvature="0"
     style="clip-rule:evenodd;fill:#ff6600;fill-rule:evenodd" /><path
     class="st1"
     d="m 943.2,657.60539 c 4.9,0 9.8,-0.2 14.6,0 10.3,0.4 16.1,6.1 17.4,16.3 0.6,5.3 0.5,10.7 -0.1,16 -0.5,4.6 -2.1,9.4 -6.2,11.2 -6.9,2.9 -5.3,6.3 -2.5,10.9 2.2,3.5 3.8,7.4 5.6,11.2 1.6,3.4 2.9,6.7 7.1,7.9 3.5,1.1 1.9,4.3 2,6.6 0.1,3 -2.5,2.1 -4.1,2.1 -5.8,0.1 -11.6,0.1 -17.4,0 -1.9,0 -4.7,0.7 -4.1,-2.8 0.4,-2 -2,-5.5 2.7,-5.6 3.1,-0.1 3.1,-1.9 2,-4.3 -3.1,-6.5 -6.2,-13 -9.1,-19.5 -1.1,-2.4 -2.7,-2.9 -4.9,-2.6 -3.1,0.4 -1.7,2.8 -1.8,4.3 -0.2,4.4 0.1,8.8 -0.1,13.2 -0.2,4.6 0.1,8.2 6,8.6 4.1,0.2 2.4,3.7 2.7,5.9 0.5,3.6 -2.2,2.7 -4.1,2.8 -7,0.1 -13.9,0.1 -20.9,0 -1.9,0 -4.5,0.7 -4.2,-2.8 0.2,-2.3 -1.2,-5.6 2.8,-5.9 6,-0.4 5.9,-4.3 5.8,-8.7 -0.1,-16.5 -0.1,-33 0,-49.5 0,-3.5 -0.5,-5.9 -4.5,-6.2 -4.2,-0.3 -4.4,-2.9 -4.2,-6.3 0.2,-4.6 3.6,-2.7 5.6,-2.8 4.6,-0.2 9.3,0 13.9,0 z m 19.9,17.9 c -1.5,-6.6 -6,-9 -15.3,-8.1 -7.1,0.7 -2.8,6 -3.2,9.1 -0.8,5 -0.2,10.2 -0.2,15.2 0,1.9 -0.2,3.3 2.6,3.7 11,1.6 16.6,-2.8 16.6,-15 0,-0.8 0,-2.9 -0.5,-4.9 z"
     id="path101"
     inkscape:connector-curvature="0"
     style="clip-rule:evenodd;fill:#ff6600;fill-rule:evenodd" /><path
     class="st1"
     d="m 777.6,699.10539 c -0.3,7.4 -0.2,14.8 -1.9,22.1 -2.9,12.5 -9.9,18.9 -21.2,19.3 -16.3,0.6 -24.2,-3.9 -27.7,-17.2 -4.4,-16.9 -4.4,-34.1 0.1,-50.9 2.9,-11 10.2,-16.1 20.6,-16.2 16.2,-0.2 22.4,3.4 26.9,15.4 3.2,8.9 2.8,18.3 3.2,27.5 z m -39.6,19.9 c 2,7.6 7.2,12.1 13.4,11.9 6.1,-0.2 11,-4.4 12.3,-12.1 2.4,-13.8 2.7,-27.7 -0.4,-41.4 -1.8,-8 -6.1,-11.5 -12.6,-11.4 -6.3,0.1 -10.7,4.1 -12.7,11.6 -1.8,6.8 -1.6,13.8 -1.7,20.7 0.2,6.9 -0.2,13.9 1.7,20.7 z"
     id="path103"
     inkscape:connector-curvature="0"
     style="clip-rule:evenodd;fill:#ff6600;fill-rule:evenodd" /><path
     class="st1"
     d="m 1032.9,699.00539 c -0.3,7.6 -0.2,15.3 -2,22.8 -2.9,12 -10,18.3 -21,18.7 -16.3,0.6 -24.3,-3.8 -27.8,-17.1 -4.5,-16.8 -4.4,-34 0,-50.9 2.8,-10.8 10,-16.1 19.9,-16.3 16.7,-0.4 23.2,3.2 27.6,15.3 3.3,8.9 3,18.3 3.3,27.5 z m -13.1,-16.6 c -0.1,-1.4 -0.4,-2.8 -0.7,-4.1 -2.1,-8.4 -6.1,-12.3 -12.7,-12.4 -6.8,0 -11.6,4.2 -13.2,12.7 -2.4,12.8 -2.4,25.8 -0.2,38.7 1.5,8.8 6.7,13.6 13.4,13.6 6.8,0 12,-5.5 13.2,-14.5 0.8,-6 0.9,-12 1.3,-17.7 -0.4,-5.7 -0.7,-11 -1.1,-16.3 z"
     id="path105"
     inkscape:connector-curvature="0"
     style="clip-rule:evenodd;fill:#ff6600;fill-rule:evenodd" /><path
     class="st1"
     d="m 1169.8,697.10539 c -0.4,9.9 -0.3,17.5 -2.1,25 -3,11.9 -10.1,18.1 -21.2,18.4 -16,0.5 -23.9,-3.8 -27.4,-16.7 -4.6,-17.1 -4.5,-34.5 0,-51.6 2.9,-10.9 10.2,-15.9 20.8,-16 16.2,-0.2 22.4,3.4 26.7,15.6 0.9,2.6 1.7,5.3 2,8.1 0.5,6.4 0.8,12.9 1.2,17.2 z m -40.9,16.1 c 0.1,1.8 0.6,3.7 1,5.5 2,7.7 6.9,12.3 13.1,12.3 6.3,0 11.5,-4.4 12.8,-12.4 2.2,-13.5 2.6,-27.2 -0.3,-40.8 -1.8,-8.1 -6,-11.8 -12.3,-11.8 -6.6,-0.1 -11.2,4 -13.2,11.9 -1.8,6.8 -1.6,13.8 -1.2,20.7 0.1,4.8 0,9.7 0.1,14.6 z"
     id="path107"
     inkscape:connector-curvature="0"
     style="clip-rule:evenodd;fill:#ff6600;fill-rule:evenodd" /><path
     class="st1"
     d="m 1307.9,697.20539 c -0.4,9.4 -0.3,16.8 -2,24.1 -2.9,12.5 -10,18.9 -21.2,19.2 -16.2,0.5 -24.2,-3.9 -27.7,-17.2 -4.4,-16.9 -4.4,-34.1 0.1,-50.9 2.9,-11 10.2,-16.1 20.6,-16.2 16.2,-0.2 22.5,3.4 26.8,15.5 0.9,2.6 1.7,5.3 2,8.1 0.7,6.4 1.1,12.8 1.4,17.4 z m -40.8,16 c 0.1,1.8 0.6,3.7 1,5.5 2,7.7 6.9,12.3 13.1,12.3 6.3,0 11.5,-4.4 12.8,-12.4 2.2,-13.5 2.6,-27.2 -0.4,-40.8 -1.8,-8.1 -6,-11.7 -12.4,-11.8 -6.6,0 -11.1,4 -13.2,11.9 -1.7,6.8 -1.5,13.8 -1.1,20.7 0.1,4.9 0,9.8 0.2,14.6 z"
     id="path109"
     inkscape:connector-curvature="0"
     style="clip-rule:evenodd;fill:#ff6600;fill-rule:evenodd" /><path
     class="st1"
     d="m 884.9,739.90539 c -3.2,0 -6.5,0.1 -9.8,0 -1.8,-0.1 -4.5,0.9 -4.4,-2.6 0.1,-2.6 -0.9,-5.9 3.3,-6.2 5,-0.4 5.4,-3.4 5.4,-7.6 -0.2,-16.5 -0.2,-33 0,-49.5 0,-3.8 -0.2,-6.9 -5,-7.3 -4.6,-0.4 -3.7,-3.9 -3.6,-6.8 0.2,-4 3.4,-2.3 5.3,-2.3 8.8,-0.2 17.6,-0.2 26.5,-0.1 12.4,0.3 18.9,6 20.2,18.3 0.5,5 0.6,10.2 0.1,15.3 -1.5,14.8 -8.3,20.6 -23.3,20.9 -2.7,0 -7.2,-2 -7.8,1.5 -1,5.1 -0.2,10.6 0.4,15.8 0.1,0.8 3.2,1.5 5,1.7 4.2,0.5 2.6,3.5 2.9,5.8 0.4,3.4 -1.9,3 -4,3 -3.8,0.1 -7.5,0.1 -11.2,0.1 z m 6.4,-41.7 c -0.3,3.6 1.2,4.1 4.4,4.1 7.9,-0.1 12.5,-2.9 14.5,-9.4 2.7,-8.8 0.4,-19.7 -4.8,-23.3 -3.9,-2.7 -8.7,-3.4 -12.7,-1.9 -3.2,1.2 -0.9,5.8 -1.3,8.9 -0.3,2.5 -0.1,5.1 -0.1,7.7 0.1,4.6 0.3,9.3 0,13.9 z"
     id="path111"
     inkscape:connector-curvature="0"
     style="clip-rule:evenodd;fill:#ff6600;fill-rule:evenodd" /></svg>