<?xml version="1.0" encoding="UTF-8" standalone="no"?>
<!-- Created with Inkscape (http://www.inkscape.org/) -->

<svg
   xmlns:dc="http://purl.org/dc/elements/1.1/"
   xmlns:cc="http://creativecommons.org/ns#"
   xmlns:rdf="http://www.w3.org/1999/02/22-rdf-syntax-ns#"
   xmlns:svg="http://www.w3.org/2000/svg"
   xmlns="http://www.w3.org/2000/svg"
   xmlns:sodipodi="http://sodipodi.sourceforge.net/DTD/sodipodi-0.dtd"
   xmlns:inkscape="http://www.inkscape.org/namespaces/inkscape"
   width="46.5mm"
   height="13mm"
   viewBox="0 0 164.76377 46.062992"
   id="svg4709"
   version="1.1"
   inkscape:version="0.91 r13725"
   sodipodi:docname="drawing.svg">
  <defs
     id="defs4711" />
  <sodipodi:namedview
     id="base"
     pagecolor="#ffffff"
     bordercolor="#666666"
     borderopacity="1.0"
     inkscape:pageopacity="0.0"
     inkscape:pageshadow="2"
     inkscape:zoom="3.6203867"
     inkscape:cx="111.32647"
     inkscape:cy="41.178002"
     inkscape:document-units="px"
     inkscape:current-layer="Capa_x0020_1"
     showgrid="false"
     inkscape:window-width="1366"
     inkscape:window-height="705"
     inkscape:window-x="1358"
     inkscape:window-y="-8"
     inkscape:window-maximized="1" />
  <metadata
     id="metadata4714">
    <rdf:RDF>
      <cc:Work
         rdf:about="">
        <dc:format>image/svg+xml</dc:format>
        <dc:type
           rdf:resource="http://purl.org/dc/dcmitype/StillImage" />
        <dc:title></dc:title>
      </cc:Work>
    </rdf:RDF>
  </metadata>
  <g
     inkscape:label="Capa 1"
     inkscape:groupmode="layer"
     id="layer1"
     transform="translate(0,-1006.2983)">
    <g
       transform="matrix(0.09,0,0,0.09,-298.68165,-471.6857)"
       style="clip-rule:evenodd;fill-rule:evenodd;image-rendering:optimizeQuality;shape-rendering:geometricPrecision;text-rendering:geometricPrecision"
       id="Capa_x0020_1">
      <metadata
         id="CorelCorpID_0Corel-Layer" />
      <g
         id="_154547392"
         transform="translate(-16.445523,11185.436)">
        <g
           id="g157">
          <path
             inkscape:connector-curvature="0"
             class="fil5"
             d="m 4968,5263 0,0 c 2,-1 6,-2 9,-2 12,5 -10,17 -16,10 -1,-5 4,-5 7,-7 z"
             id="path159" />
          <path
             inkscape:connector-curvature="0"
             class="fil5"
             d="m 5011,5264 0,0 c -6,2 -12,2 -15,6 21,5 52,-7 64,14 -11,0 -21,-3 -32,-4 -18,-2 -33,4 -55,7 -4,0 -10,-2 -14,-1 -13,2 -20,16 -32,14 -1,-20 30,-19 48,-28 11,-4 27,-24 35,-8 z"
             id="path161" />
          <path
             inkscape:connector-curvature="0"
             class="fil5"
             d="m 5039,5267 0,0 c -6,3 -15,1 -20,-1 -1,-10 19,-9 20,1 z"
             id="path163" />
          <path
             inkscape:connector-curvature="0"
             class="fil5"
             d="m 5118,5359 0,0 c -9,-6 -13,-14 -21,-20 -7,-5 -18,-9 -23,-16 -2,-3 -3,-10 -6,-14 -10,-13 -44,-16 -67,-12 -18,4 -31,6 -47,7 9,10 28,2 45,-2 27,-5 57,-2 66,17 -21,-4 -40,-13 -64,-9 -8,2 -17,6 -25,7 -8,1 -16,-3 -23,-1 -26,5 -30,39 -54,46 -5,-11 9,-19 16,-25 9,-9 18,-25 28,-35 10,-10 28,-8 42,-10 5,-1 11,-3 17,-4 24,-5 56,0 69,10 7,5 7,13 12,19 3,4 9,4 14,9 10,7 21,19 21,35 z"
             id="path165" />
          <path
             inkscape:connector-curvature="0"
             class="fil5"
             d="m 4929,5307 0,0 c -1,11 -11,20 -21,24 1,-11 7,-23 21,-24 z"
             id="path167" />
          <path
             inkscape:connector-curvature="0"
             class="fil5"
             d="m 4962,5322 0,0 c -12,14 -26,21 -32,36 -2,5 -2,10 -3,14 -4,9 -13,14 -18,24 -6,8 -6,19 -14,25 -7,-13 2,-24 9,-35 4,-6 11,-10 14,-15 3,-6 3,-15 6,-22 7,-12 25,-32 38,-27 z"
             id="path169" />
          <path
             inkscape:connector-curvature="0"
             class="fil5"
             d="m 5150,5422 0,0 c 2,7 3,13 5,19 -2,10 5,25 -6,30 -3,-9 -2,-19 -3,-28 -8,-47 -46,-87 -77,-104 -30,-19 -80,-22 -112,7 -8,7 -8,18 -21,21 0,-13 11,-23 20,-31 42,-36 101,-19 134,5 25,19 47,45 60,81 z"
             id="path171" />
          <path
             inkscape:connector-curvature="0"
             class="fil5"
             d="m 4898,5474 0,0 c -1,-2 -2,-5 -2,-8 2,-29 13,-67 33,-84 6,-4 12,-7 17,-13 11,-10 17,-21 28,-28 38,-22 74,-12 98,5 28,19 63,57 68,105 1,4 2,11 -4,14 -7,-5 -5,-11 -6,-17 -10,-44 -34,-72 -60,-91 -24,-17 -69,-28 -101,-1 -8,7 -12,19 -22,25 -3,2 -9,3 -12,7 -17,13 -24,39 -28,57 -2,9 0,29 -9,27 z"
             id="path173" />
          <path
             inkscape:connector-curvature="0"
             class="fil5"
             d="m 4915,5358 0,0 c 2,15 -10,22 -19,30 -4,-13 7,-24 19,-30 z"
             id="path175" />
          <path
             inkscape:connector-curvature="0"
             class="fil5"
             d="m 4973,5381 0,0 c 7,-1 12,-7 18,-9 43,-17 93,13 103,51 3,10 0,20 2,30 7,37 8,66 -6,89 -7,13 -22,17 -35,29 -7,5 -11,14 -17,18 -8,7 -20,7 -30,13 -5,3 -8,10 -17,10 -6,-16 19,-19 30,-26 18,-10 38,-35 44,-52 4,-10 7,-24 8,-35 1,-13 -4,-25 0,-39 12,2 9,20 9,30 0,21 -2,40 -10,55 23,-17 19,-50 13,-86 -3,-13 -2,-25 -6,-36 -10,-27 -44,-50 -75,-42 -18,5 -32,16 -41,29 -7,10 -16,25 -22,35 -6,12 -6,32 -9,48 -2,13 -2,29 -14,39 -7,-13 1,-28 4,-43 2,-14 2,-30 7,-44 3,-12 12,-24 19,-36 13,-23 14,-45 44,-56 4,-2 16,-5 17,1 2,7 -16,10 -23,14 -7,4 -14,9 -16,16 z"
             id="path177" />
          <path
             inkscape:connector-curvature="0"
             class="fil5"
             d="m 5120,5471 0,0 c -8,-7 -5,-25 -10,-35 -2,-4 -5,-8 -7,-11 -7,-12 -12,-23 -20,-33 -12,-12 -30,-25 -45,-29 -7,-2 -18,1 -23,-9 3,-8 23,-3 33,0 23,8 60,44 71,77 2,5 3,12 5,18 1,7 4,19 -3,24 z"
             id="path179" />
          <path
             inkscape:connector-curvature="0"
             class="fil5"
             d="m 4947,5388 0,0 c 4,14 -9,24 -15,33 -8,16 -8,32 -12,52 -2,10 -2,22 -11,29 -5,-12 -1,-25 1,-38 2,-12 2,-25 5,-36 4,-12 20,-30 29,-40 1,0 2,0 2,-1 z"
             id="path181" />
          <path
             inkscape:connector-curvature="0"
             class="fil5"
             d="m 5073,5454 0,0 c -10,-35 -28,-63 -60,-55 -17,3 -31,16 -38,28 -2,3 -2,7 -4,10 -4,7 -15,13 -11,22 17,-14 33,-68 75,-52 21,8 31,51 32,84 1,27 -12,56 -28,73 -4,4 -10,8 -15,12 -4,3 -7,10 -14,9 2,-19 18,-24 28,-36 15,-19 21,-44 16,-76 -2,-18 -2,-40 -15,-51 -12,-10 -33,-6 -43,5 -6,6 -8,15 -14,25 -2,5 -9,10 -11,16 -3,9 2,18 4,30 1,14 -5,35 -11,46 -3,6 -9,15 -18,17 -3,-12 6,-20 10,-29 4,-12 8,-30 1,-47 -4,-11 -10,-19 -8,-31 2,-11 19,-35 28,-44 25,-27 67,-28 90,0 7,9 22,38 8,46 z"
             id="path183" />
          <path
             inkscape:connector-curvature="0"
             class="fil5"
             d="m 5035,5432 0,0 c -6,-1 -13,-2 -21,-1 -7,-14 25,-13 21,1 z"
             id="path185" />
          <path
             inkscape:connector-curvature="0"
             class="fil5"
             d="m 5010,5428 0,0 c 2,6 -5,7 -7,10 -3,4 -3,12 -7,18 -2,4 -7,7 -9,12 -3,7 -1,17 -7,23 -6,-9 -5,-22 1,-34 2,-3 7,-7 8,-10 4,-7 7,-27 22,-19 z"
             id="path187" />
          <path
             inkscape:connector-curvature="0"
             class="fil5"
             d="m 4974,5597 0,0 c 3,-10 13,-15 20,-25 4,-6 6,-15 11,-21 4,-5 11,-8 15,-12 14,-12 22,-40 18,-61 -1,-3 -2,-7 -3,-10 -3,-9 -2,-24 -14,-23 -11,2 -11,12 -11,21 -18,27 -17,75 -41,100 -3,3 -7,7 -14,7 -3,-12 8,-15 13,-23 12,-19 11,-49 21,-73 3,-6 8,-11 10,-16 3,-5 3,-12 7,-18 11,-12 31,-9 36,3 2,6 1,13 2,18 1,8 4,14 5,21 2,19 -3,40 -14,53 -4,7 -13,10 -19,16 -13,14 -17,40 -42,41 z"
             id="path189" />
          <path
             inkscape:connector-curvature="0"
             class="fil5"
             d="m 5009,5520 0,0 c 12,-4 15,-24 11,-39 -2,1 -2,-1 -3,0 -2,14 -6,26 -7,39 z m 13,-69 0,0 c 6,4 4,13 3,19 12,7 7,45 -3,54 -5,5 -10,8 -14,11 -10,10 -12,23 -20,35 -6,8 -17,19 -26,17 1,-9 9,-12 14,-18 5,-7 21,-32 22,-41 3,-21 6,-44 18,-59 0,-7 -1,-13 5,-16 1,-1 1,-1 2,-1 z"
             id="path191" />
          <path
             inkscape:connector-curvature="0"
             class="fil5"
             d="m 5101,5434 0,0 c 9,5 12,30 4,36 -3,-10 -12,-30 -4,-36 z"
             id="path193" />
          <path
             inkscape:connector-curvature="0"
             class="fil5"
             d="m 4934,5547 0,0 c -12,-24 11,-40 7,-65 1,-1 2,-1 2,-2 1,0 2,2 3,2 10,20 0,35 -5,49 -2,6 -2,14 -8,17 z"
             id="path195" />
          <path
             inkscape:connector-curvature="0"
             class="fil5"
             d="m 5111,5478 0,0 c 7,14 3,33 0,46 -4,14 -8,30 -19,39 -11,11 -26,14 -34,28 14,-1 23,-15 34,-19 4,22 -25,22 -40,31 -9,7 -12,21 -25,20 -1,-9 6,-11 10,-16 6,-9 7,-20 15,-28 14,-13 29,-17 38,-29 14,-18 12,-38 17,-68 0,-2 0,-3 1,-4 1,-1 2,-1 3,-1 z"
             id="path197" />
          <path
             inkscape:connector-curvature="0"
             class="fil5"
             d="m 5142,5473 0,0 c 8,18 4,39 -7,52 -3,4 -7,6 -10,10 -9,13 -9,35 -28,35 -3,-9 5,-12 9,-18 9,-14 14,-37 14,-56 0,-6 -2,-15 4,-19 12,8 1,29 3,40 12,-10 6,-32 12,-45 1,1 2,1 3,1 z"
             id="path199" />
          <path
             inkscape:connector-curvature="0"
             class="fil5"
             d="m 5147,5519 0,0 c 4,11 -7,19 -12,28 3,2 3,-4 7,-4 2,7 -2,10 -5,15 -23,11 -28,32 -51,43 -3,-7 4,-10 8,-13 8,-9 22,-20 29,-32 7,-12 9,-26 20,-35 2,-1 2,-1 3,-1 z"
             id="path201" />
          <path
             inkscape:connector-curvature="0"
             class="fil5"
             d="m 5034,5599 0,0 c -1,10 -18,25 -29,19 -1,-12 20,-19 29,-19 z"
             id="path203" />
          <path
             inkscape:connector-curvature="0"
             class="fil5"
             d="m 5061,5616 0,0 c -2,1 -6,2 -9,2 -11,-6 13,-19 22,-15 0,7 -7,9 -12,12 z"
             id="path205" />
          <path
             inkscape:connector-curvature="0"
             class="fil6"
             d="m 4965,5272 7,-1 c -2,1 -5,1 -7,1 z"
             id="path207" />
          <polygon
             class="fil6"
             points="5118,5359 5118,5358 5118,5358 "
             id="polygon209" />
          <path
             inkscape:connector-curvature="0"
             class="fil6"
             d="m 5007,5286 7,-1 c -2,0 -5,0 -7,1 z"
             id="path211" />
          <polygon
             class="fil6"
             points="4958,5322 4957,5322 4959,5322 "
             id="polygon213" />
          <polygon
             class="fil6"
             points="5149,5471 5149,5471 5150,5471 "
             id="polygon215" />
          <path
             inkscape:connector-curvature="0"
             class="fil6"
             d="m 4999,5316 12,-1 c -4,0 -8,0 -12,1 z"
             id="path217" />
          <path
             inkscape:connector-curvature="0"
             class="fil6"
             d="m 5002,5330 15,-1 c -5,0 -10,1 -15,1 z"
             id="path219" />
          <path
             inkscape:connector-curvature="0"
             class="fil6"
             d="m 4991,5611 4,0 c -1,0 -2,1 -4,1 l 0,0 z"
             id="path221" />
          <path
             inkscape:connector-curvature="0"
             class="fil6"
             d="m 5002,5349 2,0 c -1,0 -2,0 -2,0 z"
             id="path223" />
          <path
             inkscape:connector-curvature="0"
             class="fil6"
             d="m 4946,5388 1,0 0,0 c 0,0 0,0 -1,1 z"
             id="path225" />
          <path
             inkscape:connector-curvature="0"
             class="fil6"
             d="m 5009,5585 3,0 c -1,0 -2,0 -3,0 z"
             id="path227" />
          <path
             inkscape:connector-curvature="0"
             class="fil6"
             d="m 5011,5389 7,-1 c -2,0 -5,0 -7,1 z"
             id="path229" />
          <path
             inkscape:connector-curvature="0"
             class="fil6"
             d="m 5018,5422 5,-1 -1,0 c -1,0 -3,0 -4,1 z"
             id="path231" />
          <polygon
             class="fil6"
             points="4979,5491 4979,5490 4980,5490 "
             id="polygon233" />
          <path
             inkscape:connector-curvature="0"
             class="fil6"
             d="m 4974,5597 6,-1 c -2,0 -4,1 -6,1 l 0,0 z"
             id="path235" />
          <path
             inkscape:connector-curvature="0"
             class="fil6"
             d="m 4943,5480 1,0 c 0,0 0,0 -1,0 l 0,0 z"
             id="path237" />
          <path
             inkscape:connector-curvature="0"
             class="fil6"
             d="m 5027,5624 5,0 c -1,0 -3,1 -5,1 l 0,0 z"
             id="path239" />
          <path
             inkscape:connector-curvature="0"
             class="fil6"
             d="m 5096,5571 5,0 c -1,0 -3,1 -5,1 l 0,0 z"
             id="path241" />
          <polygon
             class="fil6"
             points="5139,5472 5138,5473 5139,5473 "
             id="polygon243" />
          <polygon
             class="fil6"
             points="5087,5600 5087,5600 5088,5600 "
             id="polygon245" />
          <path
             inkscape:connector-curvature="0"
             class="fil6"
             d="m 4924,5664 0,0 c 3,-3 5,-8 5,-13 0,-9 -7,-16 -15,-16 l 0,0 c -9,0 -16,7 -16,16 0,9 7,17 16,17 3,0 7,-2 10,-4 z m 11,-13 0,0 c 0,12 -9,22 -21,22 -12,0 -21,-10 -21,-22 0,-12 9,-21 21,-21 l 0,0 c 11,0 21,9 21,21 z"
             id="path247" />
          <path
             inkscape:connector-curvature="0"
             class="fil6"
             d="m 4911,5644 0,0 2,0 c 3,0 5,0 5,3 0,2 -2,2 -5,2 l -2,0 0,-5 z m 7,8 0,0 c 3,-1 6,-3 6,-6 0,-5 -4,-8 -10,-8 l -9,0 0,0 0,23 6,0 0,-10 8,10 8,0 -9,-9 z"
             id="path249" />
        </g>
        <g
           id="g251">
          <g
             id="g253">
            <polygon
               class="fil5"
               points="3350,5487 3385,5487 3385,5677 3350,5677 "
               id="polygon255" />
            <path
               inkscape:connector-curvature="0"
               id="1"
               class="fil6"
               d="m 3385,5490 -35,0 0,-7 35,0 4,4 -4,4 z m 0,0 0,-7 0,0 0,0 0,0 0,0 0,0 0,0 0,0 0,0 0,0 0,0 0,0 0,0 0,0 0,0 0,0 0,0 0,0 0,0 0,0 0,0 0,0 0,0 0,0 0,0 0,0 0,0 0,0 0,0 0,0 0,0 0,0 0,0 0,0 0,0 0,0 0,0 0,0 0,0 0,0 0,0 0,0 0,0 0,0 0,0 0,0 0,0 0,0 0,0 0,0 0,0 0,0 0,0 0,0 0,0 0,0 0,0 0,0 0,0 0,0 0,0 0,0 0,0 0,0 0,0 z m -4,187 0,-191 8,0 0,191 -4,4 -4,-4 z m 0,0 8,0 0,0 0,0 0,0 0,0 0,0 0,0 0,0 0,0 0,0 0,0 0,0 0,0 0,0 0,0 0,0 0,0 0,0 0,0 0,0 0,0 0,0 0,0 0,0 0,0 0,0 0,0 0,0 0,0 0,0 0,0 0,0 0,0 0,0 0,0 0,0 0,0 0,0 0,0 0,0 0,0 0,0 0,0 0,0 0,0 0,0 0,0 0,0 0,0 0,0 0,0 0,0 0,0 0,0 0,0 0,0 0,0 0,0 0,0 0,0 0,0 0,0 0,0 0,0 0,0 z m -31,-4 35,0 0,7 -35,0 -4,-4 4,-4 z m 0,0 0,7 0,0 0,0 0,0 0,0 0,0 0,0 0,0 0,0 0,0 0,0 0,0 0,0 0,0 0,0 0,0 0,0 0,0 0,0 0,0 0,0 0,0 0,0 0,0 0,0 0,0 0,0 0,0 0,0 0,0 0,0 0,0 0,0 0,0 0,0 0,0 0,0 0,0 0,0 0,0 0,0 0,0 0,0 0,0 0,0 0,0 0,0 0,0 0,0 0,0 0,0 0,0 0,0 0,0 0,0 0,0 0,0 0,0 0,0 0,0 0,0 0,0 0,0 0,0 0,0 z m 4,-187 0,191 -8,0 0,-191 4,-4 4,4 z m 0,0 -8,0 0,0 0,0 0,0 0,0 0,0 0,0 0,0 0,0 0,0 0,0 0,0 0,0 0,0 0,0 0,0 0,0 0,0 0,0 0,0 0,0 0,0 0,0 0,0 0,0 0,0 0,0 0,0 0,0 0,0 0,0 0,0 0,0 0,0 0,0 0,0 0,0 0,0 0,0 0,0 0,0 0,0 0,0 0,0 0,0 0,0 0,0 0,0 0,0 0,0 0,0 0,0 0,0 0,0 0,0 0,0 0,0 0,0 0,0 0,0 0,0 0,0 0,0 0,0 0,0 z" />
          </g>
          <g
             id="g258">
            <path
               inkscape:connector-curvature="0"
               class="fil5"
               d="m 3367,5423 c 13,0 23,10 23,22 0,12 -10,22 -23,22 -13,0 -23,-10 -23,-22 0,-12 10,-22 23,-22 z"
               id="path260" />
            <path
               inkscape:connector-curvature="0"
               id="path262"
               class="fil6"
               d="m 3394,5445 -8,0 0,0 0,-1 0,-1 0,-1 0,-1 0,-1 0,-1 0,-1 0,-1 0,-1 0,-1 0,-1 -1,-1 -1,-1 -1,-1 -1,-1 -1,-1 -1,-1 -1,-1 -1,-1 -1,-1 -1,0 -1,0 -1,0 -1,0 -1,0 -1,0 -1,0 -1,0 -1,0 -1,0 -1,0 -1,0 0,-7 1,0 1,0 1,0 1,0 1,0 1,0 1,0 1,0 1,1 1,1 1,1 1,1 1,1 1,1 1,1 1,1 1,1 1,1 1,1 1,1 1,1 1,1 1,1 1,1 0,1 0,1 0,1 0,1 0,1 0,1 0,1 0,1 0,0 z m -27,26 0,-7 0,0 1,0 1,0 1,0 1,0 1,0 1,0 1,0 1,0 1,0 1,0 1,0 1,0 1,-1 1,-1 1,-1 1,-1 1,-1 1,-1 1,-1 1,-1 1,-1 0,-1 0,-1 0,-1 0,-1 0,-1 0,-1 0,-1 0,-1 0,-1 0,-1 0,-1 8,0 0,1 0,1 0,1 0,1 0,1 0,1 0,1 0,1 -1,1 -1,1 -1,1 -1,1 -1,1 -1,1 -1,1 -1,1 -1,1 -1,1 -1,1 -1,1 -1,1 -1,1 -1,1 -1,1 -1,0 -1,0 -1,0 -1,0 -1,0 -1,0 -1,0 -1,0 0,0 z m -27,-26 8,0 0,0 0,1 0,1 0,1 0,1 0,1 0,1 0,1 0,1 0,1 0,1 0,1 1,1 1,1 1,1 1,1 1,1 1,1 1,1 1,1 1,1 1,0 1,0 1,0 1,0 1,0 1,0 1,0 1,0 1,0 1,0 1,0 1,0 0,7 -1,0 -1,0 -1,0 -1,0 -1,0 -1,0 -1,0 -1,0 -1,-1 -1,-1 -1,-1 -1,-1 -1,-1 -1,-1 -1,-1 -1,-1 -1,-1 -1,-1 -1,-1 -1,-1 -1,-1 -1,-1 -1,-1 -1,-1 0,-1 0,-1 0,-1 0,-1 0,-1 0,-1 0,-1 0,-1 0,0 z m 27,-26 0,7 0,0 -1,0 -1,0 -1,0 -1,0 -1,0 -1,0 -1,0 -1,0 -1,0 -1,0 -1,0 -1,0 -1,1 -1,1 -1,1 -1,1 -1,1 -1,1 -1,1 -1,1 -1,1 0,1 0,1 0,1 0,1 0,1 0,1 0,1 0,1 0,1 0,1 0,1 -8,0 0,-1 0,-1 0,-1 0,-1 0,-1 0,-1 0,-1 0,-1 1,-1 1,-1 1,-1 1,-1 1,-1 1,-1 1,-1 1,-1 1,-1 1,-1 1,-1 1,-1 1,-1 1,-1 1,-1 1,-1 1,0 1,0 1,0 1,0 1,0 1,0 1,0 1,0 0,0 z" />
          </g>
          <g
             id="g264">
            <path
               inkscape:connector-curvature="0"
               class="fil5"
               d="m 3607,5516 c -24,-1 -42,23 -42,43 l 0,119 -35,0 0,-122 c 0,-19 -12,-40 -37,-40 -15,0 -31,9 -44,31 l 0,131 -35,0 0,-191 35,0 0,26 c 25,-42 79,-34 100,2 15,-23 39,-33 61,-31 20,2 41,12 53,30 9,13 12,27 12,42 l 0,121 -35,0 0,-122 c 0,-10 -2,-20 -9,-28 -6,-7 -14,-12 -25,-12 z"
               id="path266" />
            <path
               inkscape:connector-curvature="0"
               id="path268"
               class="fil6"
               d="m 3569,5559 -8,0 0,0 0,-2 0,-2 0,-2 0,-2 0,-2 1,-2 1,-2 1,-2 1,-2 1,-2 1,-2 1,-2 1,-2 1,-2 1,-2 1,-2 2,-2 2,-2 2,-2 2,-1 2,-1 2,-1 2,-1 2,-1 2,-1 2,-1 2,-1 2,-1 2,0 2,0 2,0 3,0 0,7 -2,0 -2,0 -2,0 -2,0 -2,0 -2,1 -2,1 -2,1 -2,1 -2,1 -2,1 -2,1 -2,1 -1,1 -1,1 -1,1 -1,1 -1,2 -1,2 -1,2 -1,2 -1,2 -1,2 -1,2 -1,2 -1,2 -1,2 0,2 0,2 0,2 0,2 0,2 0,0 z m -8,0 8,0 0,0 0,0 0,0 0,0 0,0 0,0 0,0 0,0 0,0 0,0 0,0 0,0 0,0 0,0 0,0 0,0 0,0 0,0 0,0 0,0 0,0 0,0 0,0 0,0 0,0 0,0 0,0 0,0 0,0 0,0 0,0 0,0 0,0 0,0 0,0 0,0 0,0 0,0 0,0 0,0 0,0 0,0 0,0 0,0 0,0 0,0 0,0 0,0 0,0 0,0 0,0 0,0 0,0 0,0 0,0 0,0 0,0 0,0 0,0 0,0 0,0 0,0 0,0 0,0 z m 0,119 0,-119 8,0 0,119 -4,4 -4,-4 z m 0,0 8,0 0,0 0,0 0,0 0,0 0,0 0,0 0,0 0,0 0,0 0,0 0,0 0,0 0,0 0,0 0,0 0,0 0,0 0,0 0,0 0,0 0,0 0,0 0,0 0,0 0,0 0,0 0,0 0,0 0,0 0,0 0,0 0,0 0,0 0,0 0,0 0,0 0,0 0,0 0,0 0,0 0,0 0,0 0,0 0,0 0,0 0,0 0,0 0,0 0,0 0,0 0,0 0,0 0,0 0,0 0,0 0,0 0,0 0,0 0,0 0,0 0,0 0,0 0,0 0,0 z m -31,-4 35,0 0,7 -35,0 -4,-4 4,-4 z m 0,0 0,7 0,0 0,0 0,0 0,0 0,0 0,0 0,0 0,0 0,0 0,0 0,0 0,0 0,0 0,0 0,0 0,0 0,0 0,0 0,0 0,0 0,0 0,0 0,0 0,0 0,0 0,0 0,0 0,0 0,0 0,0 0,0 0,0 0,0 0,0 0,0 0,0 0,0 0,0 0,0 0,0 0,0 0,0 0,0 0,0 0,0 0,0 0,0 0,0 0,0 0,0 0,0 0,0 0,0 0,0 0,0 0,0 0,0 0,0 0,0 0,0 0,0 0,0 0,0 0,0 z m 4,-118 0,122 -8,0 0,-122 0,0 8,0 z m 0,0 -8,0 0,0 0,0 0,0 0,0 0,0 0,0 0,0 0,0 0,0 0,0 0,0 0,0 0,0 0,0 0,0 0,0 0,0 0,0 0,0 0,0 0,0 0,0 0,0 0,0 0,0 0,0 0,0 0,0 0,0 0,0 0,0 0,0 0,0 0,0 0,0 0,0 0,0 0,0 0,0 0,0 0,0 0,0 0,0 0,0 0,0 0,0 0,0 0,0 0,0 0,0 0,0 0,0 0,0 0,0 0,0 0,0 0,0 0,0 0,0 0,0 0,0 0,0 0,0 0,0 z m -41,-37 0,-7 0,0 2,0 2,0 2,0 2,0 2,1 2,1 2,1 2,1 2,1 2,1 2,1 2,1 2,1 1,1 1,1 1,2 1,2 1,2 1,2 1,2 1,2 1,2 1,2 1,2 1,2 1,2 0,2 0,2 0,2 0,2 0,2 0,2 -8,0 0,-2 0,-2 0,-2 0,-2 0,-2 0,-2 0,-2 -1,-2 -1,-2 -1,-2 -1,-2 -1,-2 -1,-1 -1,-1 -1,-1 -1,-1 -1,-1 -1,-1 -1,-1 -1,-1 -1,-1 -1,-1 -1,-1 -1,-1 -2,-1 -2,-1 -2,-1 -2,0 -2,0 -2,0 -2,0 -2,0 0,0 z m -40,28 -8,0 0,-2 1,-2 1,-2 1,-2 1,-2 1,-2 1,-2 1,-2 1,-2 1,-2 1,-1 1,-1 1,-1 1,-1 1,-1 2,-1 2,-1 2,-1 2,-1 2,-1 2,-1 2,-1 2,-1 2,-1 2,-1 2,0 2,0 2,0 2,0 2,0 2,0 2,0 2,0 0,7 -1,0 -1,0 -1,0 -1,0 -1,0 -1,0 -1,0 -1,0 -1,0 -1,0 -1,1 -1,1 -1,1 -1,1 -1,1 -1,1 -1,1 -1,1 -1,1 -1,1 -1,1 -1,1 -1,1 -1,1 -1,1 -1,2 -1,2 -1,2 -1,2 -1,2 -1,2 -1,2 0,-2 z m -7,-2 7,3 0,0 0,0 0,0 0,0 0,0 0,0 0,0 0,0 0,0 0,0 0,0 0,0 0,0 0,0 0,0 0,0 0,0 0,0 0,0 0,0 0,0 0,0 0,0 0,0 0,0 0,0 0,0 0,0 0,0 0,0 0,0 0,0 0,0 0,0 0,0 0,0 0,0 0,0 0,0 0,0 0,0 0,0 0,0 0,0 0,0 0,0 0,0 0,0 0,0 0,0 0,0 0,0 0,0 0,0 0,0 0,0 0,0 0,0 0,0 0,0 0,0 0,0 0,0 0,0 z m 0,132 0,-131 8,0 0,131 -4,4 -4,-4 z m 0,0 8,0 0,0 0,0 0,0 0,0 0,0 0,0 0,0 0,0 0,0 0,0 0,0 0,0 0,0 0,0 0,0 0,0 0,0 0,0 0,0 0,0 0,0 0,0 0,0 0,0 0,0 0,0 0,0 0,0 0,0 0,0 0,0 0,0 0,0 0,0 0,0 0,0 0,0 0,0 0,0 0,0 0,0 0,0 0,0 0,0 0,0 0,0 0,0 0,0 0,0 0,0 0,0 0,0 0,0 0,0 0,0 0,0 0,0 0,0 0,0 0,0 0,0 0,0 0,0 0,0 z m -31,-4 35,0 0,7 -35,0 -4,-4 4,-4 z m 0,0 0,7 0,0 0,0 0,0 0,0 0,0 0,0 0,0 0,0 0,0 0,0 0,0 0,0 0,0 0,0 0,0 0,0 0,0 0,0 0,0 0,0 0,0 0,0 0,0 0,0 0,0 0,0 0,0 0,0 0,0 0,0 0,0 0,0 0,0 0,0 0,0 0,0 0,0 0,0 0,0 0,0 0,0 0,0 0,0 0,0 0,0 0,0 0,0 0,0 0,0 0,0 0,0 0,0 0,0 0,0 0,0 0,0 0,0 0,0 0,0 0,0 0,0 0,0 0,0 0,0 z m 4,-187 0,191 -8,0 0,-191 4,-4 4,4 z m 0,0 -8,0 0,0 0,0 0,0 0,0 0,0 0,0 0,0 0,0 0,0 0,0 0,0 0,0 0,0 0,0 0,0 0,0 0,0 0,0 0,0 0,0 0,0 0,0 0,0 0,0 0,0 0,0 0,0 0,0 0,0 0,0 0,0 0,0 0,0 0,0 0,0 0,0 0,0 0,0 0,0 0,0 0,0 0,0 0,0 0,0 0,0 0,0 0,0 0,0 0,0 0,0 0,0 0,0 0,0 0,0 0,0 0,0 0,0 0,0 0,0 0,0 0,0 0,0 0,0 0,0 z m 31,4 -35,0 0,-7 35,0 4,4 -4,4 z m 0,0 0,-7 0,0 0,0 0,0 0,0 0,0 0,0 0,0 0,0 0,0 0,0 0,0 0,0 0,0 0,0 0,0 0,0 0,0 0,0 0,0 0,0 0,0 0,0 0,0 0,0 0,0 0,0 0,0 0,0 0,0 0,0 0,0 0,0 0,0 0,0 0,0 0,0 0,0 0,0 0,0 0,0 0,0 0,0 0,0 0,0 0,0 0,0 0,0 0,0 0,0 0,0 0,0 0,0 0,0 0,0 0,0 0,0 0,0 0,0 0,0 0,0 0,0 0,0 0,0 0,0 z m -4,22 0,-26 8,0 0,26 0,2 -7,-2 z m 0,0 8,0 0,0 0,0 0,0 0,0 0,0 0,0 0,0 0,0 0,0 0,0 0,0 0,0 0,0 0,0 0,0 0,0 0,0 0,0 0,0 0,0 0,0 0,0 0,0 0,0 0,0 0,0 0,0 0,0 0,0 0,0 0,0 0,0 0,0 0,0 0,0 0,0 0,0 0,0 0,0 0,0 0,0 0,0 0,0 0,0 0,0 0,0 0,0 0,0 0,0 0,0 0,0 0,0 0,0 0,0 0,0 0,0 0,0 0,0 0,0 0,0 0,0 0,0 0,0 0,0 z m 100,0 7,4 -7,0 -2,-3 -2,-3 -2,-3 -2,-3 -3,-2 -3,-2 -3,-2 -3,-2 -3,-2 -3,-2 -3,-1 -3,-1 -3,-1 -3,-1 -3,-1 -3,0 -3,0 -3,0 -3,0 -3,1 -3,1 -3,1 -3,1 -3,1 -3,2 -3,2 -3,2 -3,2 -3,3 -3,3 -2,3 -2,4 -7,-3 3,-4 3,-4 3,-3 3,-3 3,-3 3,-3 3,-2 4,-2 4,-2 4,-1 4,-1 4,-1 4,-1 4,0 4,0 4,0 4,0 4,1 4,1 4,1 4,1 4,2 3,2 3,2 3,2 3,2 3,3 3,3 3,3 3,3 2,3 2,4 -7,0 z m 0,3 7,-3 0,0 0,0 0,0 0,0 0,0 0,0 0,0 0,0 0,0 0,0 0,0 0,0 0,0 0,0 0,0 0,0 0,0 0,0 0,0 0,0 0,0 0,0 0,0 0,0 0,0 0,0 0,0 0,0 0,0 0,0 0,0 0,0 0,0 0,0 0,0 0,0 0,0 0,0 0,0 0,0 0,0 0,0 0,0 0,0 0,0 0,0 0,0 0,0 0,0 0,0 0,0 0,0 0,0 0,0 0,0 0,0 0,0 0,0 0,0 0,0 0,0 0,0 0,0 0,0 z m 65,-36 -1,7 0,0 -2,0 -2,0 -2,0 -2,0 -2,0 -2,0 -2,0 -2,0 -2,0 -2,0 -2,0 -2,1 -2,1 -2,1 -2,1 -2,1 -2,1 -2,1 -2,1 -2,1 -2,1 -2,1 -2,1 -2,1 -2,2 -2,2 -2,2 -2,2 -2,2 -1,2 -1,2 -1,2 -7,-4 2,-2 2,-2 2,-2 2,-2 2,-2 2,-2 2,-2 2,-2 2,-2 2,-2 2,-1 2,-1 2,-1 2,-1 2,-1 2,-1 2,-1 2,-1 2,-1 2,-1 2,-1 2,-1 2,0 2,0 2,0 2,0 2,0 2,0 2,0 2,0 2,0 2,0 0,0 z m 56,32 -7,4 0,0 -1,-2 -1,-2 -1,-1 -1,-1 -1,-1 -1,-1 -1,-1 -1,-1 -1,-1 -1,-1 -1,-1 -2,-1 -2,-1 -2,-1 -2,-1 -2,-1 -2,-1 -2,-1 -2,-1 -2,-1 -2,-1 -2,-1 -2,-1 -2,-1 -2,-1 -2,0 -2,0 -2,0 -2,0 -2,0 -2,0 -2,0 1,-7 2,0 2,0 2,0 2,0 2,0 2,0 2,1 2,1 2,1 2,1 2,1 2,1 2,1 2,1 2,1 2,1 2,1 2,1 2,1 2,1 2,1 2,1 2,1 2,1 2,1 2,1 1,2 1,2 1,2 1,2 1,2 1,2 0,0 z m 13,44 -8,0 0,0 0,-1 0,-1 0,-1 0,-1 0,-1 0,-1 0,-1 0,-1 0,-1 0,-1 0,-1 0,-1 0,-1 0,-1 0,-1 0,-1 0,-1 0,-1 0,-1 0,-1 0,-1 -1,-1 -1,-1 -1,-1 -1,-1 -1,-1 -1,-1 -1,-1 -1,-1 -1,-1 -1,-1 -1,-1 7,-4 1,1 1,1 1,1 1,1 1,1 1,1 1,1 1,1 1,1 1,1 1,1 1,1 0,1 0,1 0,1 0,1 0,1 0,1 0,1 0,1 0,1 0,1 0,1 0,1 0,1 0,1 0,1 0,1 0,1 0,1 0,1 0,1 0,0 z m -8,0 8,0 0,0 0,0 0,0 0,0 0,0 0,0 0,0 0,0 0,0 0,0 0,0 0,0 0,0 0,0 0,0 0,0 0,0 0,0 0,0 0,0 0,0 0,0 0,0 0,0 0,0 0,0 0,0 0,0 0,0 0,0 0,0 0,0 0,0 0,0 0,0 0,0 0,0 0,0 0,0 0,0 0,0 0,0 0,0 0,0 0,0 0,0 0,0 0,0 0,0 0,0 0,0 0,0 0,0 0,0 0,0 0,0 0,0 0,0 0,0 0,0 0,0 0,0 0,0 0,0 z m 0,121 0,-121 8,0 0,121 -4,4 -4,-4 z m 0,0 8,0 0,0 0,0 0,0 0,0 0,0 0,0 0,0 0,0 0,0 0,0 0,0 0,0 0,0 0,0 0,0 0,0 0,0 0,0 0,0 0,0 0,0 0,0 0,0 0,0 0,0 0,0 0,0 0,0 0,0 0,0 0,0 0,0 0,0 0,0 0,0 0,0 0,0 0,0 0,0 0,0 0,0 0,0 0,0 0,0 0,0 0,0 0,0 0,0 0,0 0,0 0,0 0,0 0,0 0,0 0,0 0,0 0,0 0,0 0,0 0,0 0,0 0,0 0,0 0,0 z m -31,-4 35,0 0,7 -35,0 -4,-4 4,-4 z m 0,0 0,7 0,0 0,0 0,0 0,0 0,0 0,0 0,0 0,0 0,0 0,0 0,0 0,0 0,0 0,0 0,0 0,0 0,0 0,0 0,0 0,0 0,0 0,0 0,0 0,0 0,0 0,0 0,0 0,0 0,0 0,0 0,0 0,0 0,0 0,0 0,0 0,0 0,0 0,0 0,0 0,0 0,0 0,0 0,0 0,0 0,0 0,0 0,0 0,0 0,0 0,0 0,0 0,0 0,0 0,0 0,0 0,0 0,0 0,0 0,0 0,0 0,0 0,0 0,0 0,0 z m 4,-119 0,122 -8,0 0,-122 0,0 8,0 z m 0,0 -8,0 0,0 0,0 0,0 0,0 0,0 0,0 0,0 0,0 0,0 0,0 0,0 0,0 0,0 0,0 0,0 0,0 0,0 0,0 0,0 0,0 0,0 0,0 0,0 0,0 0,0 0,0 0,0 0,0 0,0 0,0 0,0 0,0 0,0 0,0 0,0 0,0 0,0 0,0 0,0 0,0 0,0 0,0 0,0 0,0 0,0 0,0 0,0 0,0 0,0 0,0 0,0 0,0 0,0 0,0 0,0 0,0 0,0 0,0 0,0 0,0 0,0 0,0 0,0 0,0 z m -16,-25 6,-4 0,0 1,1 1,1 1,1 1,1 1,1 1,1 1,1 1,1 0,1 0,1 0,1 0,1 0,1 0,1 0,1 0,1 0,1 0,1 0,1 0,1 0,1 0,1 0,1 0,1 0,1 0,1 0,1 0,1 0,1 0,1 0,1 0,1 -8,0 0,-1 0,-1 0,-1 0,-1 0,-1 0,-1 0,-1 0,-1 0,-1 0,-1 0,-1 0,-1 0,-1 0,-1 0,-1 0,-1 0,-1 0,-1 0,-1 0,-1 0,-1 0,-1 0,-1 0,-1 0,-1 0,-1 0,-1 0,-1 -1,-1 -1,-1 -1,-1 -1,-1 0,0 z m 6,-4 -6,4 0,0 0,0 0,0 0,0 0,0 0,0 0,0 0,0 0,0 0,0 0,0 0,0 0,0 0,0 0,0 0,0 0,0 0,0 0,0 0,0 0,0 0,0 0,0 0,0 0,0 0,0 0,0 0,0 0,0 0,0 0,0 0,0 0,0 0,0 0,0 0,0 0,0 0,0 0,0 0,0 0,0 0,0 0,0 0,0 0,0 0,0 0,0 0,0 0,0 0,0 0,0 0,0 0,0 0,0 0,0 0,0 0,0 0,0 0,0 0,0 0,0 0,0 0,0 0,0 z m -28,-6 0,-7 0,0 1,0 1,0 1,0 1,0 1,0 1,0 1,0 1,0 1,0 1,0 1,0 1,0 1,0 1,0 1,0 1,0 1,0 1,0 1,0 1,1 1,1 1,1 1,1 1,1 1,1 1,1 1,1 1,1 1,1 1,1 1,1 1,1 -6,4 0,-1 -1,-1 -1,-1 -1,-1 -1,-1 -1,-1 -1,0 -1,0 -1,0 -1,0 -1,0 -1,0 -1,0 -1,0 -1,0 -1,0 -1,0 -1,0 -1,0 -1,0 -1,0 -1,0 -1,0 -1,0 -1,0 -1,0 -1,0 -1,0 -1,0 -1,0 -1,0 -1,0 0,0 z m 0,-7 0,7 0,0 0,0 0,0 0,0 0,0 0,0 0,0 0,0 0,0 0,0 0,0 0,0 0,0 0,0 0,0 0,0 0,0 0,0 0,0 0,0 0,0 0,0 0,0 0,0 0,0 0,0 0,0 0,0 0,0 0,0 0,0 0,0 0,0 0,0 0,0 0,0 0,0 0,0 0,0 0,0 0,0 0,0 0,0 0,0 0,0 0,0 0,0 0,0 0,0 0,0 0,0 0,0 0,0 0,0 0,0 0,0 0,0 0,0 0,0 0,0 0,0 0,0 0,0 0,0 z" />
          </g>
          <g
             id="g270">
            <path
               inkscape:connector-curvature="0"
               class="fil5"
               d="m 3707,5487 35,0 0,34 c 17,-23 43,-38 72,-38 50,0 91,45 91,100 0,55 -41,100 -91,100 -29,0 -55,-15 -72,-38 l 0,89 -35,0 0,-249 z m 99,28 c 36,0 65,30 65,66 0,37 -29,66 -65,66 -36,0 -65,-30 -65,-66 0,-37 29,-66 65,-66 z"
               id="path272" />
            <path
               inkscape:connector-curvature="0"
               id="path274"
               class="fil6"
               d="m 3741,5490 -35,0 0,-7 35,0 4,4 -4,4 z m 0,0 0,-7 0,0 0,0 0,0 0,0 0,0 0,0 0,0 0,0 0,0 0,0 0,0 0,0 0,0 0,0 0,0 0,0 0,0 0,0 0,0 0,0 0,0 0,0 0,0 0,0 0,0 0,0 0,0 0,0 0,0 0,0 0,0 0,0 0,0 0,0 0,0 0,0 0,0 0,0 0,0 0,0 0,0 0,0 0,0 0,0 0,0 0,0 0,0 0,0 0,0 0,0 0,0 0,0 0,0 0,0 0,0 0,0 0,0 0,0 0,0 0,0 0,0 0,0 0,0 0,0 z m -4,31 0,-34 8,0 0,34 -1,2 -7,-2 z m 0,0 8,0 0,0 0,0 0,0 0,0 0,0 0,0 0,0 0,0 0,0 0,0 0,0 0,0 0,0 0,0 0,0 0,0 0,0 0,0 0,0 0,0 0,0 0,0 0,0 0,0 0,0 0,0 0,0 0,0 0,0 0,0 0,0 0,0 0,0 0,0 0,0 0,0 0,0 0,0 0,0 0,0 0,0 0,0 0,0 0,0 0,0 0,0 0,0 0,0 0,0 0,0 0,0 0,0 0,0 0,0 0,0 0,0 0,0 0,0 0,0 0,0 0,0 0,0 0,0 0,0 z m 76,-42 0,7 0,0 -3,0 -3,0 -3,0 -3,0 -2,0 -2,0 -2,1 -2,1 -2,1 -2,1 -2,1 -2,1 -2,1 -2,1 -2,1 -2,1 -2,1 -2,1 -2,1 -2,1 -2,1 -2,2 -2,2 -2,2 -2,2 -2,2 -2,2 -2,2 -2,2 -2,2 -2,2 -2,2 -7,-4 2,-2 2,-2 2,-2 2,-2 2,-2 2,-2 2,-2 2,-2 2,-2 2,-2 2,-2 2,-2 2,-2 2,-1 2,-1 2,-1 2,-1 2,-1 2,-1 3,-1 3,-1 3,-1 3,-1 3,-1 3,-1 3,-1 3,0 3,0 3,0 3,0 3,0 3,0 0,0 z m 95,104 -8,0 0,0 0,-5 0,-5 -1,-5 -1,-5 -1,-5 -1,-5 -1,-5 -2,-4 -2,-4 -2,-4 -2,-4 -2,-4 -2,-4 -3,-4 -3,-4 -3,-3 -3,-3 -3,-3 -3,-3 -3,-3 -4,-3 -4,-2 -4,-2 -4,-2 -4,-2 -4,-2 -4,-1 -4,-1 -4,-1 -4,-1 -4,0 -4,0 0,-7 5,0 5,0 5,1 5,1 5,1 5,1 4,2 4,2 4,2 4,2 4,3 4,3 4,3 4,3 3,3 3,3 3,4 3,4 3,4 3,4 2,4 2,4 2,4 2,5 2,5 1,5 1,5 1,5 1,5 1,5 0,5 0,5 0,0 z m -95,104 0,-7 0,0 4,0 4,0 4,-1 4,-1 4,-1 4,-1 4,-2 4,-2 4,-2 4,-2 4,-2 4,-3 3,-3 3,-3 3,-3 3,-3 3,-3 3,-4 3,-4 2,-4 2,-4 2,-4 2,-4 2,-4 2,-4 1,-5 1,-5 1,-5 1,-5 1,-5 0,-5 0,-5 8,0 0,5 0,5 -1,5 -1,5 -1,5 -1,5 -1,5 -2,5 -2,5 -2,4 -2,4 -2,4 -3,4 -3,4 -3,4 -3,4 -3,3 -3,3 -4,3 -4,3 -4,3 -4,3 -4,2 -4,2 -4,2 -4,2 -5,1 -5,1 -5,1 -5,1 -5,0 -5,0 0,0 z m -68,-42 -8,0 7,-2 2,2 2,2 2,2 2,2 2,2 2,2 2,2 2,2 2,2 2,2 2,2 2,1 2,1 2,1 2,1 2,1 2,1 2,1 2,1 2,1 2,1 2,1 2,1 2,1 2,1 2,1 2,0 2,0 3,0 3,0 3,0 3,0 0,7 -3,0 -3,0 -3,0 -3,0 -3,0 -3,0 -3,-1 -3,-1 -3,-1 -3,-1 -3,-1 -3,-1 -3,-1 -2,-1 -2,-1 -2,-1 -2,-1 -2,-1 -2,-1 -2,-2 -2,-2 -2,-2 -2,-2 -2,-2 -2,-2 -2,-2 -2,-2 -2,-2 -2,-2 -2,-2 -2,-2 -2,-2 7,-2 z m -1,-2 -7,4 0,0 0,0 0,0 0,0 0,0 0,0 0,0 0,0 0,0 0,0 0,0 0,0 0,0 0,0 0,0 0,0 0,0 0,0 0,0 0,0 0,0 0,0 0,0 0,0 0,0 0,0 0,0 0,0 0,0 0,0 0,0 0,0 0,0 0,0 0,0 0,0 0,0 0,0 0,0 0,0 0,0 0,0 0,0 0,0 0,0 0,0 0,0 0,0 0,0 0,0 0,0 0,0 0,0 0,0 0,0 0,0 0,0 0,0 0,0 0,0 0,0 0,0 0,0 0,0 z m -7,91 0,-89 8,0 0,89 -4,4 -4,-4 z m 0,0 8,0 0,0 0,0 0,0 0,0 0,0 0,0 0,0 0,0 0,0 0,0 0,0 0,0 0,0 0,0 0,0 0,0 0,0 0,0 0,0 0,0 0,0 0,0 0,0 0,0 0,0 0,0 0,0 0,0 0,0 0,0 0,0 0,0 0,0 0,0 0,0 0,0 0,0 0,0 0,0 0,0 0,0 0,0 0,0 0,0 0,0 0,0 0,0 0,0 0,0 0,0 0,0 0,0 0,0 0,0 0,0 0,0 0,0 0,0 0,0 0,0 0,0 0,0 0,0 0,0 z m -31,-4 35,0 0,7 -35,0 -4,-4 4,-4 z m 0,0 0,7 0,0 0,0 0,0 0,0 0,0 0,0 0,0 0,0 0,0 0,0 0,0 0,0 0,0 0,0 0,0 0,0 0,0 0,0 0,0 0,0 0,0 0,0 0,0 0,0 0,0 0,0 0,0 0,0 0,0 0,0 0,0 0,0 0,0 0,0 0,0 0,0 0,0 0,0 0,0 0,0 0,0 0,0 0,0 0,0 0,0 0,0 0,0 0,0 0,0 0,0 0,0 0,0 0,0 0,0 0,0 0,0 0,0 0,0 0,0 0,0 0,0 0,0 0,0 0,0 z m 4,-245 0,249 -8,0 0,-249 4,-4 4,4 z m 0,0 -8,0 0,0 0,0 0,0 0,0 0,0 0,0 0,0 0,0 0,0 0,0 0,0 0,0 0,0 0,0 0,0 0,0 0,0 0,0 0,0 0,0 0,0 0,0 0,0 0,0 0,0 0,0 0,0 0,0 0,0 0,0 0,0 0,0 0,0 0,0 0,0 0,0 0,0 0,0 0,0 0,0 0,0 0,0 0,0 0,0 0,0 0,0 0,0 0,0 0,0 0,0 0,0 0,0 0,0 0,0 0,0 0,0 0,0 0,0 0,0 0,0 0,0 0,0 0,0 0,0 z m 164,95 -8,0 0,0 0,-3 0,-3 0,-3 -1,-3 -1,-3 -1,-3 -1,-3 -1,-3 -1,-3 -1,-3 -1,-3 -2,-3 -2,-2 -2,-2 -2,-2 -2,-2 -2,-2 -2,-2 -2,-2 -2,-2 -2,-2 -3,-2 -3,-1 -3,-1 -3,-1 -3,-1 -3,-1 -3,-1 -3,-1 -3,0 -3,0 -3,0 0,-7 4,0 4,0 3,0 3,1 3,1 3,1 3,1 3,1 3,1 3,2 3,2 3,2 3,2 3,2 2,2 2,2 2,2 2,3 2,3 2,3 2,3 2,3 2,3 1,3 1,3 1,3 1,3 1,3 1,3 0,3 0,4 0,4 0,0 z m -69,70 0,-7 0,0 3,0 3,0 3,0 3,-1 3,-1 3,-1 3,-1 3,-1 3,-1 3,-1 3,-2 2,-2 2,-2 2,-2 2,-2 2,-2 2,-2 2,-2 2,-2 2,-2 2,-3 1,-3 1,-3 1,-3 1,-3 1,-3 1,-3 1,-3 1,-3 0,-3 0,-3 0,-3 8,0 0,4 0,4 0,3 -1,3 -1,3 -1,3 -1,3 -1,3 -1,3 -2,3 -2,3 -2,3 -2,3 -2,3 -2,3 -2,2 -2,2 -2,2 -3,2 -3,2 -3,2 -3,2 -3,2 -3,1 -3,1 -3,1 -3,1 -3,1 -3,1 -3,0 -4,0 -4,0 0,0 z m -69,-70 8,0 0,0 0,3 0,3 0,3 1,3 1,3 1,3 1,3 1,3 1,3 1,3 1,3 2,3 2,2 2,2 2,2 2,2 2,2 2,2 2,2 2,2 2,2 3,2 3,1 3,1 3,1 3,1 3,1 3,1 3,1 3,0 3,0 3,0 0,7 -4,0 -4,0 -3,0 -3,-1 -3,-1 -3,-1 -3,-1 -3,-1 -3,-1 -3,-2 -3,-2 -3,-2 -3,-2 -3,-2 -2,-2 -2,-2 -2,-2 -2,-3 -2,-3 -2,-3 -2,-3 -2,-3 -2,-3 -1,-3 -1,-3 -1,-3 -1,-3 -1,-3 -1,-3 0,-3 0,-4 0,-4 0,0 z m 69,-70 0,7 0,0 -3,0 -3,0 -3,0 -3,1 -3,1 -3,1 -3,1 -3,1 -3,1 -3,1 -3,2 -2,2 -2,2 -2,2 -2,2 -2,2 -2,2 -2,2 -2,2 -2,2 -2,3 -1,3 -1,3 -1,3 -1,3 -1,3 -1,3 -1,3 -1,3 0,3 0,3 0,3 -8,0 0,-4 0,-4 0,-3 1,-3 1,-3 1,-3 1,-3 1,-3 1,-3 2,-3 2,-3 2,-3 2,-3 2,-3 2,-3 2,-2 2,-2 2,-2 3,-2 3,-2 3,-2 3,-2 3,-2 3,-1 3,-1 3,-1 3,-1 3,-1 3,-1 3,0 4,0 4,0 0,0 z" />
          </g>
          <g
             id="g276">
            <path
               inkscape:connector-curvature="0"
               class="fil5"
               d="m 3926,5487 35,0 0,17 c 26,-19 42,-21 64,-19 l 0,33 c -22,-6 -51,5 -60,22 -4,8 -4,16 -4,24 l 0,114 -35,0 0,-191 z"
               id="path278" />
            <path
               inkscape:connector-curvature="0"
               id="path280"
               class="fil6"
               d="m 3961,5490 -35,0 0,-7 35,0 4,4 -4,4 z m 0,0 0,-7 0,0 0,0 0,0 0,0 0,0 0,0 0,0 0,0 0,0 0,0 0,0 0,0 0,0 0,0 0,0 0,0 0,0 0,0 0,0 0,0 0,0 0,0 0,0 0,0 0,0 0,0 0,0 0,0 0,0 0,0 0,0 0,0 0,0 0,0 0,0 0,0 0,0 0,0 0,0 0,0 0,0 0,0 0,0 0,0 0,0 0,0 0,0 0,0 0,0 0,0 0,0 0,0 0,0 0,0 0,0 0,0 0,0 0,0 0,0 0,0 0,0 0,0 0,0 0,0 z m -4,13 0,-17 8,0 0,17 -1,3 -6,-3 z m 0,0 8,0 0,0 0,0 0,0 0,0 0,0 0,0 0,0 0,0 0,0 0,0 0,0 0,0 0,0 0,0 0,0 0,0 0,0 0,0 0,0 0,0 0,0 0,0 0,0 0,0 0,0 0,0 0,0 0,0 0,0 0,0 0,0 0,0 0,0 0,0 0,0 0,0 0,0 0,0 0,0 0,0 0,0 0,0 0,0 0,0 0,0 0,0 0,0 0,0 0,0 0,0 0,0 0,0 0,0 0,0 0,0 0,0 0,0 0,0 0,0 0,0 0,0 0,0 0,0 0,0 z m 72,-19 -8,0 4,4 -2,0 -2,0 -2,0 -2,0 -2,0 -2,0 -2,0 -2,0 -2,0 -2,0 -2,0 -2,0 -2,0 -2,0 -2,0 -2,0 -2,0 -2,1 -2,1 -2,1 -2,1 -2,1 -2,1 -2,1 -2,1 -2,1 -2,1 -2,1 -2,1 -2,2 -2,2 -2,2 -5,-5 2,-2 2,-2 2,-2 2,-2 2,-1 2,-1 2,-1 2,-1 2,-1 2,-1 2,-1 2,-1 2,-1 2,-1 2,-1 2,-1 2,0 2,0 2,0 2,0 2,0 2,0 2,0 2,0 2,0 2,0 2,0 2,0 2,0 2,0 2,0 2,0 4,4 z m -4,4 1,-7 0,0 0,0 0,0 0,0 0,0 0,0 0,0 0,0 0,0 0,0 0,0 0,0 0,0 0,0 0,0 0,0 0,0 0,0 0,0 0,0 0,0 0,0 0,0 0,0 0,0 0,0 0,0 0,0 0,0 0,0 0,0 0,0 0,0 0,0 0,0 0,0 0,0 0,0 0,0 0,0 0,0 0,0 0,0 0,0 0,0 0,0 0,0 0,0 0,0 0,0 0,0 0,0 0,0 0,0 0,0 0,0 0,0 0,0 0,0 0,0 0,0 0,0 0,0 0,0 z m -4,29 0,-33 8,0 0,33 -5,3 -3,-3 z m 0,0 8,0 0,0 0,0 0,0 0,0 0,0 0,0 0,0 0,0 0,0 0,0 0,0 0,0 0,0 0,0 0,0 0,0 0,0 0,0 0,0 0,0 0,0 0,0 0,0 0,0 0,0 0,0 0,0 0,0 0,0 0,0 0,0 0,0 0,0 0,0 0,0 0,0 0,0 0,0 0,0 0,0 0,0 0,0 0,0 0,0 0,0 0,0 0,0 0,0 0,0 0,0 0,0 0,0 0,0 0,0 0,0 0,0 0,0 0,0 0,0 0,0 0,0 0,0 0,0 0,0 z m -53,24 -7,-3 0,0 1,-2 1,-2 1,-2 1,-2 1,-2 2,-1 2,-1 2,-1 2,-1 2,-1 2,-1 2,-1 2,-1 2,-1 2,-1 2,-1 2,-1 2,-1 2,-1 2,-1 2,0 2,0 2,0 2,0 2,0 2,0 2,0 2,0 2,0 2,0 2,0 2,1 -2,7 -2,0 -2,0 -2,0 -2,0 -2,0 -2,0 -2,0 -2,0 -2,0 -2,0 -2,0 -2,0 -2,0 -2,1 -2,1 -2,1 -2,1 -2,1 -2,1 -2,1 -2,1 -2,1 -2,1 -2,1 -1,1 -1,1 -1,1 -1,1 -1,1 -1,1 -1,1 -1,1 0,0 z m -7,-3 7,3 0,0 0,0 0,0 0,0 0,0 0,0 0,0 0,0 0,0 0,0 0,0 0,0 0,0 0,0 0,0 0,0 0,0 0,0 0,0 0,0 0,0 0,0 0,0 0,0 0,0 0,0 0,0 0,0 0,0 0,0 0,0 0,0 0,0 0,0 0,0 0,0 0,0 0,0 0,0 0,0 0,0 0,0 0,0 0,0 0,0 0,0 0,0 0,0 0,0 0,0 0,0 0,0 0,0 0,0 0,0 0,0 0,0 0,0 0,0 0,0 0,0 0,0 0,0 0,0 z m 4,26 -8,0 0,0 0,-1 0,-1 0,-1 0,-1 0,-1 0,-1 0,-1 0,-1 0,-1 0,-1 0,-1 0,-1 0,-1 0,-1 0,-1 0,-1 0,-1 0,-1 0,-1 0,-1 0,-1 0,-1 0,-1 0,-1 0,-1 0,-1 0,-1 0,-1 0,-1 0,-1 0,-1 0,-1 7,3 0,1 0,1 0,1 0,1 0,1 0,1 0,1 0,1 0,1 0,1 0,1 0,1 0,1 0,1 0,1 0,1 0,1 0,1 0,1 0,1 0,1 0,1 0,1 0,1 0,1 0,1 0,1 0,1 0,1 0,1 0,1 0,1 0,0 z m -8,0 8,0 0,0 0,0 0,0 0,0 0,0 0,0 0,0 0,0 0,0 0,0 0,0 0,0 0,0 0,0 0,0 0,0 0,0 0,0 0,0 0,0 0,0 0,0 0,0 0,0 0,0 0,0 0,0 0,0 0,0 0,0 0,0 0,0 0,0 0,0 0,0 0,0 0,0 0,0 0,0 0,0 0,0 0,0 0,0 0,0 0,0 0,0 0,0 0,0 0,0 0,0 0,0 0,0 0,0 0,0 0,0 0,0 0,0 0,0 0,0 0,0 0,0 0,0 0,0 0,0 z m 0,114 0,-114 8,0 0,114 -4,4 -4,-4 z m 0,0 8,0 0,0 0,0 0,0 0,0 0,0 0,0 0,0 0,0 0,0 0,0 0,0 0,0 0,0 0,0 0,0 0,0 0,0 0,0 0,0 0,0 0,0 0,0 0,0 0,0 0,0 0,0 0,0 0,0 0,0 0,0 0,0 0,0 0,0 0,0 0,0 0,0 0,0 0,0 0,0 0,0 0,0 0,0 0,0 0,0 0,0 0,0 0,0 0,0 0,0 0,0 0,0 0,0 0,0 0,0 0,0 0,0 0,0 0,0 0,0 0,0 0,0 0,0 0,0 0,0 z m -31,-4 35,0 0,7 -35,0 -4,-4 4,-4 z m 0,0 0,7 0,0 0,0 0,0 0,0 0,0 0,0 0,0 0,0 0,0 0,0 0,0 0,0 0,0 0,0 0,0 0,0 0,0 0,0 0,0 0,0 0,0 0,0 0,0 0,0 0,0 0,0 0,0 0,0 0,0 0,0 0,0 0,0 0,0 0,0 0,0 0,0 0,0 0,0 0,0 0,0 0,0 0,0 0,0 0,0 0,0 0,0 0,0 0,0 0,0 0,0 0,0 0,0 0,0 0,0 0,0 0,0 0,0 0,0 0,0 0,0 0,0 0,0 0,0 0,0 z m 4,-187 0,191 -8,0 0,-191 4,-4 4,4 z m 0,0 -8,0 0,0 0,0 0,0 0,0 0,0 0,0 0,0 0,0 0,0 0,0 0,0 0,0 0,0 0,0 0,0 0,0 0,0 0,0 0,0 0,0 0,0 0,0 0,0 0,0 0,0 0,0 0,0 0,0 0,0 0,0 0,0 0,0 0,0 0,0 0,0 0,0 0,0 0,0 0,0 0,0 0,0 0,0 0,0 0,0 0,0 0,0 0,0 0,0 0,0 0,0 0,0 0,0 0,0 0,0 0,0 0,0 0,0 0,0 0,0 0,0 0,0 0,0 0,0 0,0 z" />
          </g>
          <g
             id="g282">
            <path
               inkscape:connector-curvature="0"
               class="fil5"
               d="m 4464,5487 35,0 0,22 c 13,-15 32,-24 54,-24 33,0 61,19 69,46 3,11 4,25 4,35 l 0,112 -35,0 0,-76 0,-27 c 0,-10 1,-19 -4,-28 -8,-17 -25,-29 -45,-29 -15,0 -28,10 -37,21 -8,10 -7,15 -7,26 l 0,112 -35,0 0,-191 z"
               id="path284" />
            <path
               inkscape:connector-curvature="0"
               id="path286"
               class="fil6"
               d="m 4499,5490 -35,0 0,-7 35,0 4,4 -4,4 z m 0,0 0,-7 0,0 0,0 0,0 0,0 0,0 0,0 0,0 0,0 0,0 0,0 0,0 0,0 0,0 0,0 0,0 0,0 0,0 0,0 0,0 0,0 0,0 0,0 0,0 0,0 0,0 0,0 0,0 0,0 0,0 0,0 0,0 0,0 0,0 0,0 0,0 0,0 0,0 0,0 0,0 0,0 0,0 0,0 0,0 0,0 0,0 0,0 0,0 0,0 0,0 0,0 0,0 0,0 0,0 0,0 0,0 0,0 0,0 0,0 0,0 0,0 0,0 0,0 0,0 0,0 z m -4,18 0,-22 8,0 0,22 -1,2 -7,-2 z m 0,0 8,0 0,0 0,0 0,0 0,0 0,0 0,0 0,0 0,0 0,0 0,0 0,0 0,0 0,0 0,0 0,0 0,0 0,0 0,0 0,0 0,0 0,0 0,0 0,0 0,0 0,0 0,0 0,0 0,0 0,0 0,0 0,0 0,0 0,0 0,0 0,0 0,0 0,0 0,0 0,0 0,0 0,0 0,0 0,0 0,0 0,0 0,0 0,0 0,0 0,0 0,0 0,0 0,0 0,0 0,0 0,0 0,0 0,0 0,0 0,0 0,0 0,0 0,0 0,0 0,0 z m 58,-28 0,7 0,0 -2,0 -2,0 -2,0 -2,0 -2,0 -2,0 -2,0 -2,0 -2,0 -2,0 -2,0 -2,1 -2,1 -2,1 -2,1 -2,1 -2,1 -2,1 -2,1 -2,1 -1,1 -1,1 -1,1 -1,1 -1,1 -1,1 -1,1 -1,1 -1,1 -1,1 -1,1 -1,1 -6,-4 1,-2 1,-1 1,-1 1,-1 1,-1 1,-1 2,-1 2,-1 2,-1 2,-1 2,-1 2,-1 2,-1 2,-1 2,-1 2,-1 2,-1 2,-1 2,-1 2,-1 2,-1 2,-1 2,0 2,0 2,0 2,0 2,0 2,0 2,0 2,0 2,0 2,0 0,0 z m 73,49 -8,2 0,0 -1,-2 -1,-2 -1,-2 -1,-2 -1,-2 -1,-2 -1,-2 -1,-2 -2,-2 -2,-2 -2,-2 -2,-2 -2,-2 -2,-2 -2,-2 -2,-1 -2,-1 -2,-1 -2,-1 -2,-1 -2,-1 -3,-1 -3,-1 -3,-1 -3,-1 -3,-1 -3,-1 -3,0 -3,0 -3,0 -3,0 -3,0 0,-7 3,0 3,0 3,0 3,0 3,1 3,1 3,1 3,1 3,1 3,1 3,1 3,1 3,1 3,1 3,1 2,2 2,2 2,2 2,2 2,2 2,2 2,2 2,2 2,2 2,2 2,2 1,2 1,2 1,3 1,3 1,3 1,3 0,0 z m 4,36 -8,0 0,0 0,-1 0,-1 0,-1 0,-1 0,-1 0,-1 0,-1 0,-1 0,-1 0,-1 0,-1 0,-1 0,-1 0,-1 0,-1 0,-1 0,-1 0,-1 0,-1 0,-1 0,-1 0,-1 0,-1 0,-1 0,-1 0,-1 0,-1 0,-1 0,-1 0,-1 0,-1 0,-1 8,-2 0,1 0,1 0,1 0,1 0,1 0,1 0,1 0,1 0,1 0,1 0,1 0,1 0,1 0,1 0,1 0,1 0,1 0,1 0,1 0,1 0,1 0,1 0,1 0,1 0,1 0,1 0,1 0,1 0,1 0,1 0,1 0,1 0,0 z m -8,0 8,0 0,0 0,0 0,0 0,0 0,0 0,0 0,0 0,0 0,0 0,0 0,0 0,0 0,0 0,0 0,0 0,0 0,0 0,0 0,0 0,0 0,0 0,0 0,0 0,0 0,0 0,0 0,0 0,0 0,0 0,0 0,0 0,0 0,0 0,0 0,0 0,0 0,0 0,0 0,0 0,0 0,0 0,0 0,0 0,0 0,0 0,0 0,0 0,0 0,0 0,0 0,0 0,0 0,0 0,0 0,0 0,0 0,0 0,0 0,0 0,0 0,0 0,0 0,0 0,0 z m 0,112 0,-112 8,0 0,112 -4,4 -4,-4 z m 0,0 8,0 0,0 0,0 0,0 0,0 0,0 0,0 0,0 0,0 0,0 0,0 0,0 0,0 0,0 0,0 0,0 0,0 0,0 0,0 0,0 0,0 0,0 0,0 0,0 0,0 0,0 0,0 0,0 0,0 0,0 0,0 0,0 0,0 0,0 0,0 0,0 0,0 0,0 0,0 0,0 0,0 0,0 0,0 0,0 0,0 0,0 0,0 0,0 0,0 0,0 0,0 0,0 0,0 0,0 0,0 0,0 0,0 0,0 0,0 0,0 0,0 0,0 0,0 0,0 0,0 z m -31,-4 35,0 0,7 -35,0 -4,-4 4,-4 z m 0,0 0,7 0,0 0,0 0,0 0,0 0,0 0,0 0,0 0,0 0,0 0,0 0,0 0,0 0,0 0,0 0,0 0,0 0,0 0,0 0,0 0,0 0,0 0,0 0,0 0,0 0,0 0,0 0,0 0,0 0,0 0,0 0,0 0,0 0,0 0,0 0,0 0,0 0,0 0,0 0,0 0,0 0,0 0,0 0,0 0,0 0,0 0,0 0,0 0,0 0,0 0,0 0,0 0,0 0,0 0,0 0,0 0,0 0,0 0,0 0,0 0,0 0,0 0,0 0,0 0,0 z m 4,-73 0,76 -8,0 0,-76 0,0 8,0 z m 0,0 -8,0 0,0 0,0 0,0 0,0 0,0 0,0 0,0 0,0 0,0 0,0 0,0 0,0 0,0 0,0 0,0 0,0 0,0 0,0 0,0 0,0 0,0 0,0 0,0 0,0 0,0 0,0 0,0 0,0 0,0 0,0 0,0 0,0 0,0 0,0 0,0 0,0 0,0 0,0 0,0 0,0 0,0 0,0 0,0 0,0 0,0 0,0 0,0 0,0 0,0 0,0 0,0 0,0 0,0 0,0 0,0 0,0 0,0 0,0 0,0 0,0 0,0 0,0 0,0 0,0 z m 0,-27 0,27 -8,0 0,-27 0,0 8,0 z m 0,0 -8,0 0,0 0,0 0,0 0,0 0,0 0,0 0,0 0,0 0,0 0,0 0,0 0,0 0,0 0,0 0,0 0,0 0,0 0,0 0,0 0,0 0,0 0,0 0,0 0,0 0,0 0,0 0,0 0,0 0,0 0,0 0,0 0,0 0,0 0,0 0,0 0,0 0,0 0,0 0,0 0,0 0,0 0,0 0,0 0,0 0,0 0,0 0,0 0,0 0,0 0,0 0,0 0,0 0,0 0,0 0,0 0,0 0,0 0,0 0,0 0,0 0,0 0,0 0,0 0,0 z m -11,-27 7,-3 0,0 0,1 0,1 0,1 0,1 0,1 0,1 0,1 0,1 0,1 0,1 0,1 0,1 0,1 0,1 0,1 0,1 0,1 0,1 0,1 0,1 0,1 0,1 0,1 0,1 0,1 0,1 0,1 0,1 0,1 0,1 0,1 0,1 -8,0 0,-1 0,-1 0,-1 0,-1 0,-1 0,-1 0,-1 0,-1 0,-1 0,-1 0,-1 0,-1 0,-1 0,-1 0,-1 0,-1 0,-1 0,-1 0,-1 0,-1 0,-1 0,-1 0,-1 0,-1 0,-1 0,-1 0,-1 0,-1 0,-1 0,-1 0,-1 0,-1 0,0 z m 7,-3 -7,3 0,0 0,0 0,0 0,0 0,0 0,0 0,0 0,0 0,0 0,0 0,0 0,0 0,0 0,0 0,0 0,0 0,0 0,0 0,0 0,0 0,0 0,0 0,0 0,0 0,0 0,0 0,0 0,0 0,0 0,0 0,0 0,0 0,0 0,0 0,0 0,0 0,0 0,0 0,0 0,0 0,0 0,0 0,0 0,0 0,0 0,0 0,0 0,0 0,0 0,0 0,0 0,0 0,0 0,0 0,0 0,0 0,0 0,0 0,0 0,0 0,0 0,0 0,0 0,0 z m -48,-24 0,-7 0,0 2,0 2,0 2,0 2,0 2,0 2,0 2,0 2,1 2,1 2,1 2,1 2,1 2,1 2,1 2,1 2,1 2,1 2,1 1,1 1,1 1,1 1,1 1,1 1,1 1,1 1,1 1,2 1,2 1,2 1,2 1,2 1,2 -7,3 -1,-1 -1,-1 -1,-1 -1,-1 -1,-1 -1,-1 -1,-1 -1,-1 -1,-1 -1,-1 -1,-1 -1,-1 -1,-1 -1,-1 -1,-1 -1,-1 -1,-1 -1,-1 -1,-1 -1,-1 -1,-1 -1,-1 -2,-1 -2,-1 -2,0 -2,0 -2,0 -2,0 -2,0 -2,0 -2,0 -2,0 0,0 z m -34,20 -6,-4 0,0 1,-1 1,-1 1,-1 1,-1 1,-1 1,-1 1,-1 1,-1 1,-1 1,-1 1,-1 1,-1 1,-1 1,-1 1,-1 1,-1 1,-1 1,-1 1,-1 1,-1 1,-1 1,-1 1,-1 1,0 1,0 1,0 1,0 2,0 2,0 2,0 2,0 2,0 0,7 -1,0 -1,0 -1,0 -1,0 -1,0 -1,0 -1,0 -1,0 -1,0 -1,0 -1,0 -1,0 -1,1 -1,1 -1,1 -1,1 -1,1 -1,1 -1,1 -1,1 -1,1 -1,1 -1,1 -1,1 -1,1 -1,1 -1,1 -1,1 -1,1 -1,1 -1,1 -1,1 0,0 z m -6,-4 6,4 0,0 0,0 0,0 0,0 0,0 0,0 0,0 0,0 0,0 0,0 0,0 0,0 0,0 0,0 0,0 0,0 0,0 0,0 0,0 0,0 0,0 0,0 0,0 0,0 0,0 0,0 0,0 0,0 0,0 0,0 0,0 0,0 0,0 0,0 0,0 0,0 0,0 0,0 0,0 0,0 0,0 0,0 0,0 0,0 0,0 0,0 0,0 0,0 0,0 0,0 0,0 0,0 0,0 0,0 0,0 0,0 0,0 0,0 0,0 0,0 0,0 0,0 0,0 0,0 z m 0,28 -8,0 0,0 0,-1 0,-1 0,-1 0,-1 0,-1 0,-1 0,-1 0,-1 0,-1 0,-1 0,-1 0,-1 0,-1 0,-1 0,-1 0,-1 0,-1 0,-1 0,-1 0,-1 0,-1 0,-1 0,-1 0,-1 0,-1 0,-1 1,-1 1,-1 1,-1 1,-1 1,-1 1,-1 6,4 -1,1 -1,1 -1,1 -1,1 0,1 0,1 0,1 0,1 0,1 0,1 0,1 0,1 0,1 0,1 0,1 0,1 0,1 0,1 0,1 0,1 0,1 0,1 0,1 0,1 0,1 0,1 0,1 0,1 0,1 0,1 0,1 0,1 0,0 z m -8,0 8,0 0,0 0,0 0,0 0,0 0,0 0,0 0,0 0,0 0,0 0,0 0,0 0,0 0,0 0,0 0,0 0,0 0,0 0,0 0,0 0,0 0,0 0,0 0,0 0,0 0,0 0,0 0,0 0,0 0,0 0,0 0,0 0,0 0,0 0,0 0,0 0,0 0,0 0,0 0,0 0,0 0,0 0,0 0,0 0,0 0,0 0,0 0,0 0,0 0,0 0,0 0,0 0,0 0,0 0,0 0,0 0,0 0,0 0,0 0,0 0,0 0,0 0,0 0,0 0,0 z m 0,112 0,-112 8,0 0,112 -4,4 -4,-4 z m 0,0 8,0 0,0 0,0 0,0 0,0 0,0 0,0 0,0 0,0 0,0 0,0 0,0 0,0 0,0 0,0 0,0 0,0 0,0 0,0 0,0 0,0 0,0 0,0 0,0 0,0 0,0 0,0 0,0 0,0 0,0 0,0 0,0 0,0 0,0 0,0 0,0 0,0 0,0 0,0 0,0 0,0 0,0 0,0 0,0 0,0 0,0 0,0 0,0 0,0 0,0 0,0 0,0 0,0 0,0 0,0 0,0 0,0 0,0 0,0 0,0 0,0 0,0 0,0 0,0 0,0 z m -31,-4 35,0 0,7 -35,0 -4,-4 4,-4 z m 0,0 0,7 0,0 0,0 0,0 0,0 0,0 0,0 0,0 0,0 0,0 0,0 0,0 0,0 0,0 0,0 0,0 0,0 0,0 0,0 0,0 0,0 0,0 0,0 0,0 0,0 0,0 0,0 0,0 0,0 0,0 0,0 0,0 0,0 0,0 0,0 0,0 0,0 0,0 0,0 0,0 0,0 0,0 0,0 0,0 0,0 0,0 0,0 0,0 0,0 0,0 0,0 0,0 0,0 0,0 0,0 0,0 0,0 0,0 0,0 0,0 0,0 0,0 0,0 0,0 0,0 z m 4,-187 0,191 -8,0 0,-191 4,-4 4,4 z m 0,0 -8,0 0,0 0,0 0,0 0,0 0,0 0,0 0,0 0,0 0,0 0,0 0,0 0,0 0,0 0,0 0,0 0,0 0,0 0,0 0,0 0,0 0,0 0,0 0,0 0,0 0,0 0,0 0,0 0,0 0,0 0,0 0,0 0,0 0,0 0,0 0,0 0,0 0,0 0,0 0,0 0,0 0,0 0,0 0,0 0,0 0,0 0,0 0,0 0,0 0,0 0,0 0,0 0,0 0,0 0,0 0,0 0,0 0,0 0,0 0,0 0,0 0,0 0,0 0,0 0,0 z" />
          </g>
          <g
             id="g288">
            <polygon
               class="fil5"
               points="4809,5487 4844,5487 4844,5677 4809,5677 "
               id="polygon290" />
            <path
               inkscape:connector-curvature="0"
               id="path292"
               class="fil6"
               d="m 4844,5490 -35,0 0,-7 35,0 4,4 -4,4 z m 0,0 0,-7 0,0 0,0 0,0 0,0 0,0 0,0 0,0 0,0 0,0 0,0 0,0 0,0 0,0 0,0 0,0 0,0 0,0 0,0 0,0 0,0 0,0 0,0 0,0 0,0 0,0 0,0 0,0 0,0 0,0 0,0 0,0 0,0 0,0 0,0 0,0 0,0 0,0 0,0 0,0 0,0 0,0 0,0 0,0 0,0 0,0 0,0 0,0 0,0 0,0 0,0 0,0 0,0 0,0 0,0 0,0 0,0 0,0 0,0 0,0 0,0 0,0 0,0 0,0 0,0 z m -4,187 0,-191 8,0 0,191 -4,4 -4,-4 z m 0,0 8,0 0,0 0,0 0,0 0,0 0,0 0,0 0,0 0,0 0,0 0,0 0,0 0,0 0,0 0,0 0,0 0,0 0,0 0,0 0,0 0,0 0,0 0,0 0,0 0,0 0,0 0,0 0,0 0,0 0,0 0,0 0,0 0,0 0,0 0,0 0,0 0,0 0,0 0,0 0,0 0,0 0,0 0,0 0,0 0,0 0,0 0,0 0,0 0,0 0,0 0,0 0,0 0,0 0,0 0,0 0,0 0,0 0,0 0,0 0,0 0,0 0,0 0,0 0,0 0,0 z m -31,-4 35,0 0,7 -35,0 -4,-4 4,-4 z m 0,0 0,7 0,0 0,0 0,0 0,0 0,0 0,0 0,0 0,0 0,0 0,0 0,0 0,0 0,0 0,0 0,0 0,0 0,0 0,0 0,0 0,0 0,0 0,0 0,0 0,0 0,0 0,0 0,0 0,0 0,0 0,0 0,0 0,0 0,0 0,0 0,0 0,0 0,0 0,0 0,0 0,0 0,0 0,0 0,0 0,0 0,0 0,0 0,0 0,0 0,0 0,0 0,0 0,0 0,0 0,0 0,0 0,0 0,0 0,0 0,0 0,0 0,0 0,0 0,0 0,0 z m 4,-187 0,191 -8,0 0,-191 4,-4 4,4 z m 0,0 -8,0 0,0 0,0 0,0 0,0 0,0 0,0 0,0 0,0 0,0 0,0 0,0 0,0 0,0 0,0 0,0 0,0 0,0 0,0 0,0 0,0 0,0 0,0 0,0 0,0 0,0 0,0 0,0 0,0 0,0 0,0 0,0 0,0 0,0 0,0 0,0 0,0 0,0 0,0 0,0 0,0 0,0 0,0 0,0 0,0 0,0 0,0 0,0 0,0 0,0 0,0 0,0 0,0 0,0 0,0 0,0 0,0 0,0 0,0 0,0 0,0 0,0 0,0 0,0 0,0 z" />
          </g>
          <g
             id="g294">
            <path
               inkscape:connector-curvature="0"
               class="fil5"
               d="m 4740,5481 c 51,0 93,45 93,101 0,56 -42,101 -93,101 -51,0 -93,-45 -93,-101 0,-56 42,-101 93,-101 z m 5,33 c 36,0 66,30 66,67 0,37 -29,67 -66,67 -36,0 -66,-30 -66,-67 0,-37 29,-67 66,-67 z"
               id="path296" />
            <path
               inkscape:connector-curvature="0"
               id="path298"
               class="fil6"
               d="m 4837,5581 -8,0 0,0 0,-5 0,-5 -1,-5 -1,-5 -1,-5 -1,-5 -1,-5 -2,-4 -2,-4 -2,-4 -2,-4 -2,-4 -3,-4 -3,-4 -3,-4 -3,-3 -3,-3 -3,-3 -3,-3 -4,-3 -4,-3 -4,-2 -4,-2 -4,-2 -4,-2 -4,-2 -4,-1 -4,-1 -4,-1 -4,-1 -4,0 -5,0 0,-7 5,0 5,0 5,1 5,1 5,1 5,1 5,2 4,2 4,2 4,2 4,3 4,3 4,3 4,3 4,3 3,3 3,4 3,4 3,4 3,4 3,4 2,4 2,4 2,5 2,5 2,5 1,5 1,5 1,5 1,5 0,5 0,5 0,0 z m -97,104 0,-7 0,0 5,0 4,0 4,-1 4,-1 4,-1 4,-1 4,-2 4,-2 4,-2 4,-2 4,-2 4,-3 4,-3 3,-3 3,-3 3,-3 3,-3 3,-4 3,-4 3,-4 2,-4 2,-4 2,-4 2,-4 2,-4 1,-5 1,-5 1,-5 1,-5 1,-5 0,-5 0,-5 8,0 0,5 0,5 -1,5 -1,5 -1,5 -1,5 -2,5 -2,5 -2,5 -2,4 -2,4 -3,4 -3,4 -3,4 -3,4 -3,4 -3,3 -4,3 -4,3 -4,3 -4,3 -4,3 -4,2 -4,2 -4,2 -5,2 -5,1 -5,1 -5,1 -5,1 -5,0 -5,0 0,0 z m -97,-104 8,0 0,0 0,5 0,5 1,5 1,5 1,5 1,5 1,5 2,4 2,4 2,4 2,4 2,4 3,4 3,4 3,4 3,3 3,3 3,3 3,3 4,3 4,3 4,2 4,2 4,2 4,2 4,2 4,1 4,1 4,1 4,1 4,0 5,0 0,7 -5,0 -5,0 -5,-1 -5,-1 -5,-1 -5,-1 -5,-2 -4,-2 -4,-2 -4,-2 -4,-3 -4,-3 -4,-3 -4,-3 -4,-3 -3,-3 -3,-4 -3,-4 -3,-4 -3,-4 -3,-4 -2,-4 -2,-4 -2,-5 -2,-5 -2,-5 -1,-5 -1,-5 -1,-5 -1,-5 0,-5 0,-5 0,0 z m 97,-104 0,7 0,0 -5,0 -4,0 -4,1 -4,1 -4,1 -4,1 -4,2 -4,2 -4,2 -4,2 -4,2 -4,3 -4,3 -3,3 -3,3 -3,3 -3,3 -3,4 -3,4 -3,4 -2,4 -2,4 -2,4 -2,4 -2,4 -1,5 -1,5 -1,5 -1,5 -1,5 0,5 0,5 -8,0 0,-5 0,-5 1,-5 1,-5 1,-5 1,-5 2,-5 2,-5 2,-5 2,-4 2,-4 3,-4 3,-4 3,-4 3,-4 3,-4 3,-3 4,-3 4,-3 4,-3 4,-3 4,-3 4,-2 4,-2 4,-2 5,-2 5,-1 5,-1 5,-1 5,-1 5,0 5,0 0,0 z m 74,104 -8,0 0,0 0,-3 0,-3 0,-3 -1,-3 -1,-3 -1,-3 -1,-3 -1,-3 -1,-3 -1,-3 -2,-3 -2,-3 -2,-3 -2,-2 -2,-2 -2,-2 -2,-2 -2,-2 -2,-2 -2,-2 -3,-2 -3,-2 -3,-1 -3,-1 -3,-1 -3,-1 -3,-1 -3,-1 -3,-1 -3,0 -3,0 -3,0 0,-7 4,0 4,0 4,0 3,1 3,1 3,1 3,1 3,1 3,1 3,2 3,2 3,2 3,2 3,2 3,2 2,2 2,2 2,3 2,3 2,3 2,3 2,3 2,3 1,3 1,3 1,3 1,3 1,3 1,3 0,4 0,4 0,4 0,0 z m -70,71 0,-7 0,0 3,0 3,0 3,0 3,-1 3,-1 3,-1 3,-1 3,-1 3,-1 3,-1 3,-2 3,-2 2,-2 2,-2 2,-2 2,-2 2,-2 2,-2 2,-2 2,-3 2,-3 2,-3 1,-3 1,-3 1,-3 1,-3 1,-3 1,-3 1,-3 0,-3 0,-3 0,-3 8,0 0,4 0,4 0,4 -1,3 -1,3 -1,3 -1,3 -1,3 -1,3 -2,3 -2,3 -2,3 -2,3 -2,3 -2,3 -2,2 -2,2 -3,2 -3,2 -3,2 -3,2 -3,2 -3,2 -3,1 -3,1 -3,1 -3,1 -3,1 -3,1 -4,0 -4,0 -4,0 0,0 z m -70,-71 8,0 0,0 0,3 0,3 0,3 1,3 1,3 1,3 1,3 1,3 1,3 1,3 2,3 2,3 2,3 2,2 2,2 2,2 2,2 2,2 2,2 2,2 3,2 3,2 3,1 3,1 3,1 3,1 3,1 3,1 3,1 3,0 3,0 3,0 0,7 -4,0 -4,0 -4,0 -3,-1 -3,-1 -3,-1 -3,-1 -3,-1 -3,-1 -3,-2 -3,-2 -3,-2 -3,-2 -3,-2 -3,-2 -2,-2 -2,-2 -2,-3 -2,-3 -2,-3 -2,-3 -2,-3 -2,-3 -1,-3 -1,-3 -1,-3 -1,-3 -1,-3 -1,-3 0,-4 0,-4 0,-4 0,0 z m 70,-71 0,7 0,0 -3,0 -3,0 -3,0 -3,1 -3,1 -3,1 -3,1 -3,1 -3,1 -3,1 -3,2 -3,2 -2,2 -2,2 -2,2 -2,2 -2,2 -2,2 -2,2 -2,3 -2,3 -2,3 -1,3 -1,3 -1,3 -1,3 -1,3 -1,3 -1,3 0,3 0,3 0,3 -8,0 0,-4 0,-4 0,-4 1,-3 1,-3 1,-3 1,-3 1,-3 1,-3 2,-3 2,-3 2,-3 2,-3 2,-3 2,-3 2,-2 2,-2 3,-2 3,-2 3,-2 3,-2 3,-2 3,-2 3,-1 3,-1 3,-1 3,-1 3,-1 3,-1 4,0 4,0 4,0 0,0 z" />
          </g>
          <g
             id="g300">
            <path
               inkscape:connector-curvature="0"
               class="fil5"
               d="m 4399,5487 35,0 0,148 c 2,35 -6,66 -38,88 -18,13 -36,19 -61,19 -32,0 -60,-13 -79,-34 l 27,-24 c 13,18 34,25 54,25 22,0 42,-14 55,-36 5,-9 6,-15 6,-24 -17,20 -41,33 -69,33 -51,0 -93,-45 -93,-100 0,-55 42,-100 93,-100 27,0 52,13 69,33 l 0,-28 z m -64,31 c 35,0 64,29 64,66 0,36 -29,66 -64,66 -35,0 -64,-29 -64,-66 0,-36 29,-66 64,-66 z"
               id="path302" />
            <path
               inkscape:connector-curvature="0"
               id="path304"
               class="fil6"
               d="m 4434,5490 -35,0 0,-7 35,0 4,4 -4,4 z m 0,0 0,-7 0,0 0,0 0,0 0,0 0,0 0,0 0,0 0,0 0,0 0,0 0,0 0,0 0,0 0,0 0,0 0,0 0,0 0,0 0,0 0,0 0,0 0,0 0,0 0,0 0,0 0,0 0,0 0,0 0,0 0,0 0,0 0,0 0,0 0,0 0,0 0,0 0,0 0,0 0,0 0,0 0,0 0,0 0,0 0,0 0,0 0,0 0,0 0,0 0,0 0,0 0,0 0,0 0,0 0,0 0,0 0,0 0,0 0,0 0,0 0,0 0,0 0,0 0,0 0,0 z m -4,144 0,-148 8,0 0,148 -8,0 0,0 z m 0,0 8,0 0,0 0,0 0,0 0,0 0,0 0,0 0,0 0,0 0,0 0,0 0,0 0,0 0,0 0,0 0,0 0,0 0,0 0,0 0,0 0,0 0,0 0,0 0,0 0,0 0,0 0,0 0,0 0,0 0,0 0,0 0,0 0,0 0,0 0,0 0,0 0,0 0,0 0,0 0,0 0,0 0,0 0,0 0,0 0,0 0,0 0,0 0,0 0,0 0,0 0,0 0,0 0,0 0,0 0,0 0,0 0,0 0,0 0,0 0,0 0,0 0,0 0,0 0,0 0,0 z m -31,91 -5,-5 0,0 3,-2 3,-2 3,-2 2,-2 2,-2 2,-2 2,-2 2,-2 2,-2 2,-2 2,-2 1,-3 1,-3 1,-3 1,-3 1,-3 1,-3 1,-3 1,-3 1,-3 1,-3 1,-3 0,-3 0,-3 0,-3 0,-3 0,-3 0,-3 0,-3 0,-3 0,-3 0,-3 8,0 0,3 0,3 0,3 0,3 0,3 0,3 0,3 0,3 0,3 -1,3 -1,3 -1,3 -1,3 -1,3 -1,3 -1,3 -1,3 -1,3 -1,3 -1,3 -2,3 -2,3 -2,3 -2,3 -2,3 -2,3 -2,2 -2,2 -3,2 -3,2 -3,2 -3,2 0,0 z m -63,20 0,-7 0,0 2,0 2,0 2,0 2,0 2,0 2,0 2,0 2,0 2,0 2,0 2,0 2,0 2,0 2,0 2,-1 2,-1 2,-1 2,-1 2,-1 2,-1 2,-1 2,-1 2,-1 2,-1 2,-1 2,-1 2,-1 2,-1 2,-1 2,-1 2,-1 2,-1 5,5 -2,1 -2,1 -2,1 -2,1 -2,1 -2,1 -2,1 -2,1 -2,1 -2,1 -2,1 -2,1 -2,1 -2,1 -2,1 -2,1 -2,1 -2,1 -2,1 -2,0 -2,0 -2,0 -2,0 -2,0 -2,0 -2,0 -2,0 -2,0 -2,0 -2,0 -2,0 -2,0 0,0 z m -81,-40 6,5 0,-5 2,2 2,2 2,2 2,2 2,2 2,2 2,2 2,2 2,1 2,1 2,1 2,1 2,1 2,1 2,1 2,1 2,1 2,1 3,1 3,1 3,1 3,1 3,1 3,1 3,1 3,0 3,0 3,0 3,0 3,0 3,0 3,0 0,7 -3,0 -3,0 -3,0 -3,0 -3,0 -3,0 -3,-1 -3,-1 -3,-1 -3,-1 -3,-1 -3,-1 -3,-1 -3,-1 -3,-1 -3,-1 -3,-1 -3,-1 -2,-1 -2,-1 -2,-1 -2,-1 -2,-2 -2,-2 -2,-2 -2,-2 -2,-2 -2,-2 -2,-2 -2,-2 -2,-2 -2,-2 0,-5 z m 6,0 -6,4 0,0 0,0 0,0 0,0 0,0 0,0 0,0 0,0 0,0 0,0 0,0 0,0 0,0 0,0 0,0 0,0 0,0 0,0 0,0 0,0 0,0 0,0 0,0 0,0 0,0 0,0 0,0 0,0 0,0 0,0 0,0 0,0 0,0 0,0 0,0 0,0 0,0 0,0 0,0 0,0 0,0 0,0 0,0 0,0 0,0 0,0 0,0 0,0 0,0 0,0 0,0 0,0 0,0 0,0 0,0 0,0 0,0 0,0 0,0 0,0 0,0 0,0 0,0 0,0 z m 27,-19 -27,24 -6,-5 27,-24 6,1 -1,4 z m 0,0 -6,-5 0,0 0,0 0,0 0,0 0,0 0,0 0,0 0,0 0,0 0,0 0,0 0,0 0,0 0,0 0,0 0,0 0,0 0,0 0,0 0,0 0,0 0,0 0,0 0,0 0,0 0,0 0,0 0,0 0,0 0,0 0,0 0,0 0,0 0,0 0,0 0,0 0,0 0,0 0,0 0,0 0,0 0,0 0,0 0,0 0,0 0,0 0,0 0,0 0,0 0,0 0,0 0,0 0,0 0,0 0,0 0,0 0,0 0,0 0,0 0,0 0,0 0,0 0,0 0,0 z m 51,19 0,7 0,0 -2,0 -2,0 -2,0 -2,0 -2,0 -2,0 -2,0 -2,0 -2,0 -2,0 -2,-1 -2,-1 -2,-1 -2,-1 -2,-1 -2,-1 -2,-1 -2,-1 -2,-1 -2,-1 -2,-1 -2,-1 -2,-1 -2,-1 -2,-1 -2,-1 -2,-1 -1,-1 -1,-2 -1,-2 -1,-2 -1,-2 7,-4 1,2 1,1 1,1 1,1 1,1 1,1 1,1 1,1 1,1 1,1 2,1 2,1 2,1 2,1 2,1 2,1 2,1 2,1 2,1 2,1 2,1 2,0 2,0 2,0 2,0 2,0 2,0 2,0 2,0 2,0 2,0 2,0 0,0 z m 51,-34 7,3 0,0 -1,2 -1,2 -1,2 -1,2 -1,2 -1,2 -2,2 -2,2 -2,2 -2,2 -2,2 -2,2 -2,1 -2,1 -2,1 -2,1 -2,1 -2,1 -2,1 -2,1 -2,1 -2,1 -2,1 -2,1 -2,1 -2,1 -2,0 -2,0 -2,0 -2,0 -2,0 -2,0 0,-7 2,0 2,0 2,0 2,0 2,0 2,0 2,0 2,-1 2,-1 2,-1 2,-1 2,-1 2,-1 2,-1 2,-1 2,-1 2,-1 2,-1 2,-1 2,-1 2,-1 1,-1 1,-1 1,-2 1,-2 1,-2 1,-2 1,-2 1,-2 1,-2 1,-2 1,-2 0,0 z m 13,-20 -6,-4 7,2 0,1 0,1 0,1 0,1 0,1 0,1 0,1 0,1 0,1 0,1 0,1 0,1 0,1 0,1 0,1 0,1 0,1 0,1 0,1 0,1 0,1 0,1 0,1 0,1 0,1 0,1 0,1 0,1 0,1 0,1 0,1 0,1 -7,-3 0,-1 0,-1 0,-1 0,-1 0,-1 0,-1 0,-1 0,-1 0,-1 0,-1 0,-1 0,-1 0,-1 0,-1 0,-1 0,-1 0,-1 0,-1 0,-1 0,-1 0,-1 0,-1 0,-1 0,-1 0,-1 0,-1 0,-1 0,-1 0,-1 0,-1 0,-1 0,-1 7,2 z m 1,-2 -8,0 0,0 0,0 0,0 0,0 0,0 0,0 0,0 0,0 0,0 0,0 0,0 0,0 0,0 0,0 0,0 0,0 0,0 0,0 0,0 0,0 0,0 0,0 0,0 0,0 0,0 0,0 0,0 0,0 0,0 0,0 0,0 0,0 0,0 0,0 0,0 0,0 0,0 0,0 0,0 0,0 0,0 0,0 0,0 0,0 0,0 0,0 0,0 0,0 0,0 0,0 0,0 0,0 0,0 0,0 0,0 0,0 0,0 0,0 0,0 0,0 0,0 0,0 0,0 0,0 z m -73,36 0,-7 0,0 2,0 2,0 2,0 2,0 2,0 2,0 2,0 2,-1 2,-1 2,-1 2,-1 2,-1 2,-1 2,-1 2,-1 2,-1 2,-1 2,-1 2,-1 2,-1 2,-1 2,-1 2,-1 2,-1 2,-1 2,-2 2,-2 2,-2 2,-2 2,-2 2,-2 2,-2 6,4 -2,2 -2,2 -2,2 -2,2 -2,2 -2,2 -2,2 -2,2 -2,2 -2,1 -2,1 -2,1 -2,1 -2,1 -2,1 -2,1 -2,1 -2,1 -2,1 -2,1 -2,1 -2,1 -2,1 -2,1 -3,1 -3,0 -3,0 -3,0 -3,0 -3,0 -3,0 -3,0 0,0 z m -97,-104 8,0 0,0 0,5 0,5 1,5 1,5 1,5 1,5 1,5 2,4 2,4 2,4 2,4 2,4 3,4 3,4 3,4 3,3 3,3 3,3 3,3 3,3 4,3 4,2 4,2 4,2 4,2 4,2 4,1 4,1 4,1 4,1 4,0 5,0 0,7 -5,0 -5,0 -5,-1 -5,-1 -5,-1 -5,-1 -5,-2 -4,-2 -4,-2 -4,-2 -4,-3 -4,-3 -4,-3 -4,-3 -4,-3 -3,-3 -3,-4 -3,-4 -3,-4 -3,-4 -3,-4 -2,-4 -2,-4 -2,-5 -2,-5 -2,-5 -1,-5 -1,-5 -1,-5 -1,-5 0,-5 0,-5 0,0 z m 97,-104 0,7 0,0 -5,0 -4,0 -4,1 -4,1 -4,1 -4,1 -4,2 -4,2 -4,2 -4,2 -4,2 -4,2 -3,3 -3,3 -3,3 -3,3 -3,3 -3,4 -3,4 -3,4 -2,4 -2,4 -2,4 -2,4 -2,4 -1,5 -1,5 -1,5 -1,5 -1,5 0,5 0,5 -8,0 0,-5 0,-5 1,-5 1,-5 1,-5 1,-5 2,-5 2,-5 2,-5 2,-4 2,-4 3,-4 3,-4 3,-4 3,-4 3,-4 3,-3 4,-3 4,-3 4,-3 4,-3 4,-3 4,-2 4,-2 4,-2 5,-2 5,-1 5,-1 5,-1 5,-1 5,0 5,0 0,0 z m 65,36 8,0 -7,2 -2,-2 -2,-2 -2,-2 -2,-2 -2,-2 -2,-2 -2,-2 -2,-1 -2,-1 -2,-1 -2,-1 -2,-1 -2,-1 -2,-1 -2,-1 -2,-1 -2,-1 -2,-1 -2,-1 -2,-1 -2,-1 -2,-1 -2,-1 -2,-1 -2,-1 -2,0 -2,0 -2,0 -2,0 -2,0 -2,0 -2,0 0,-7 3,0 3,0 3,0 3,0 3,0 3,0 3,0 3,1 2,1 2,1 2,1 2,1 2,1 2,1 2,1 2,1 2,1 2,1 2,1 2,1 2,1 2,1 2,1 2,2 2,2 2,2 2,2 2,2 2,2 2,2 2,2 2,2 -7,2 z m 1,2 6,-4 0,0 0,0 0,0 0,0 0,0 0,0 0,0 0,0 0,0 0,0 0,0 0,0 0,0 0,0 0,0 0,0 0,0 0,0 0,0 0,0 0,0 0,0 0,0 0,0 0,0 0,0 0,0 0,0 0,0 0,0 0,0 0,0 0,0 0,0 0,0 0,0 0,0 0,0 0,0 0,0 0,0 0,0 0,0 0,0 0,0 0,0 0,0 0,0 0,0 0,0 0,0 0,0 0,0 0,0 0,0 0,0 0,0 0,0 0,0 0,0 0,0 0,0 0,0 0,0 z m 7,-30 0,28 -8,0 0,-28 4,-4 4,4 z m 0,0 -8,0 0,0 0,0 0,0 0,0 0,0 0,0 0,0 0,0 0,0 0,0 0,0 0,0 0,0 0,0 0,0 0,0 0,0 0,0 0,0 0,0 0,0 0,0 0,0 0,0 0,0 0,0 0,0 0,0 0,0 0,0 0,0 0,0 0,0 0,0 0,0 0,0 0,0 0,0 0,0 0,0 0,0 0,0 0,0 0,0 0,0 0,0 0,0 0,0 0,0 0,0 0,0 0,0 0,0 0,0 0,0 0,0 0,0 0,0 0,0 0,0 0,0 0,0 0,0 0,0 z m -1,97 -8,0 0,0 0,-3 0,-3 0,-3 -1,-3 -1,-3 -1,-3 -1,-3 -1,-3 -1,-3 -1,-3 -1,-3 -2,-3 -2,-2 -2,-2 -2,-2 -2,-2 -2,-2 -2,-2 -2,-2 -2,-2 -2,-2 -3,-1 -3,-1 -3,-1 -3,-1 -3,-1 -3,-1 -3,-1 -3,-1 -3,0 -3,0 -3,0 0,-7 4,0 3,0 3,0 3,1 3,1 3,1 3,1 3,1 3,1 3,2 3,2 3,2 3,2 3,2 2,2 2,2 2,2 2,3 2,3 2,3 2,3 2,3 1,3 1,3 1,3 1,3 1,3 1,3 1,3 0,3 0,3 0,4 0,0 z m -68,69 0,-7 0,0 3,0 3,0 3,0 3,-1 3,-1 3,-1 3,-1 3,-1 3,-1 3,-1 3,-1 2,-2 2,-2 2,-2 2,-2 2,-2 2,-2 2,-2 2,-2 2,-2 2,-3 1,-3 1,-3 1,-3 1,-3 1,-3 1,-3 1,-3 1,-3 0,-3 0,-3 0,-3 8,0 0,4 0,3 0,3 -1,3 -1,3 -1,3 -1,3 -1,3 -1,3 -1,3 -2,3 -2,3 -2,3 -2,3 -2,3 -2,2 -2,2 -2,2 -3,2 -3,2 -3,2 -3,2 -3,2 -3,1 -3,1 -3,1 -3,1 -3,1 -3,1 -3,0 -3,0 -4,0 0,0 z m -68,-69 8,0 0,0 0,3 0,3 0,3 1,3 1,3 1,3 1,3 1,3 1,3 1,3 1,3 2,3 2,2 2,2 2,2 2,2 2,2 2,2 2,2 2,2 2,2 3,1 3,1 3,1 3,1 3,1 3,1 3,1 3,1 3,0 3,0 3,0 0,7 -4,0 -3,0 -3,0 -3,-1 -3,-1 -3,-1 -3,-1 -3,-1 -3,-1 -3,-2 -3,-2 -3,-2 -3,-2 -3,-2 -2,-2 -2,-2 -2,-2 -2,-3 -2,-3 -2,-3 -2,-3 -2,-3 -1,-3 -1,-3 -1,-3 -1,-3 -1,-3 -1,-3 -1,-3 0,-3 0,-3 0,-4 0,0 z m 68,-69 0,7 0,0 -3,0 -3,0 -3,0 -3,1 -3,1 -3,1 -3,1 -3,1 -3,1 -3,1 -3,1 -2,2 -2,2 -2,2 -2,2 -2,2 -2,2 -2,2 -2,2 -2,2 -2,3 -1,3 -1,3 -1,3 -1,3 -1,3 -1,3 -1,3 -1,3 0,3 0,3 0,3 -8,0 0,-4 0,-3 0,-3 1,-3 1,-3 1,-3 1,-3 1,-3 1,-3 1,-3 2,-3 2,-3 2,-3 2,-3 2,-3 2,-2 2,-2 2,-2 3,-2 3,-2 3,-2 3,-2 3,-2 3,-1 3,-1 3,-1 3,-1 3,-1 3,-1 3,0 3,0 4,0 0,0 z" />
          </g>
          <g
             id="g306">
            <path
               inkscape:connector-curvature="0"
               class="fil5"
               d="m 4127,5480 c 55,0 100,45 100,100 0,6 -1,12 -2,17 l -39,0 0,0 -120,0 c 7,27 31,47 60,47 19,0 37,-9 48,-24 l 28,25 c -18,21 -45,34 -76,34 -55,0 -100,-45 -100,-100 0,-55 45,-100 100,-100 z m -61,87 122,0 c -6,-29 -31,-51 -61,-51 -30,0 -55,22 -61,51 z"
               id="path308" />
            <path
               inkscape:connector-curvature="0"
               id="path310"
               class="fil6"
               d="m 4231,5580 -8,0 0,0 0,-5 0,-5 -1,-5 -1,-5 -1,-5 -1,-5 -2,-5 -2,-4 -2,-4 -2,-4 -2,-4 -3,-4 -3,-4 -3,-4 -3,-4 -3,-3 -3,-3 -4,-3 -4,-3 -4,-3 -4,-3 -4,-2 -4,-2 -4,-2 -4,-2 -4,-2 -5,-1 -5,-1 -5,-1 -5,-1 -5,0 -5,0 0,-7 5,0 5,0 5,1 5,1 5,1 5,1 5,2 5,2 5,2 5,2 4,3 4,3 4,3 4,3 4,3 4,3 3,4 3,4 3,4 3,4 3,4 3,4 2,4 2,5 2,5 2,5 1,5 1,5 1,5 1,5 0,5 0,5 0,0 z m -5,21 0,-7 -4,3 0,-1 0,-1 0,-1 0,-1 0,-1 0,-1 0,-1 0,-1 0,-1 0,-1 0,-1 0,-1 0,-1 0,-1 0,-1 0,-1 0,-1 0,-1 0,-1 0,-1 0,-1 0,-1 0,-1 0,-1 0,-1 0,-1 0,-1 0,-1 0,-1 0,-1 0,-1 0,-1 8,0 0,1 0,1 0,1 0,1 0,1 0,1 0,1 0,1 0,1 0,1 0,1 0,1 0,1 0,1 0,1 0,1 0,1 0,1 0,1 0,1 0,1 0,1 0,1 0,1 0,1 0,1 0,1 0,1 0,1 0,1 0,1 0,1 -4,3 z m -4,-4 8,1 0,0 0,0 0,0 0,0 0,0 0,0 0,0 0,0 0,0 0,0 0,0 0,0 0,0 0,0 0,0 0,0 0,0 0,0 0,0 0,0 0,0 0,0 0,0 0,0 0,0 0,0 0,0 0,0 0,0 0,0 0,0 0,0 0,0 0,0 0,0 0,0 0,0 0,0 0,0 0,0 0,0 0,0 0,0 0,0 0,0 0,0 0,0 0,0 0,0 0,0 0,0 0,0 0,0 0,0 0,0 0,0 0,0 0,0 0,0 0,0 0,0 0,0 0,0 0,0 z m -35,-3 39,0 0,7 -39,0 -4,-4 4,-4 z m 0,0 0,7 0,0 0,0 0,0 0,0 0,0 0,0 0,0 0,0 0,0 0,0 0,0 0,0 0,0 0,0 0,0 0,0 0,0 0,0 0,0 0,0 0,0 0,0 0,0 0,0 0,0 0,0 0,0 0,0 0,0 0,0 0,0 0,0 0,0 0,0 0,0 0,0 0,0 0,0 0,0 0,0 0,0 0,0 0,0 0,0 0,0 0,0 0,0 0,0 0,0 0,0 0,0 0,0 0,0 0,0 0,0 0,0 0,0 0,0 0,0 0,0 0,0 0,0 0,0 0,0 z m 4,4 0,0 -8,0 0,0 4,-4 4,4 z m 0,0 -8,0 0,0 0,0 0,0 0,0 0,0 0,0 0,0 0,0 0,0 0,0 0,0 0,0 0,0 0,0 0,0 0,0 0,0 0,0 0,0 0,0 0,0 0,0 0,0 0,0 0,0 0,0 0,0 0,0 0,0 0,0 0,0 0,0 0,0 0,0 0,0 0,0 0,0 0,0 0,0 0,0 0,0 0,0 0,0 0,0 0,0 0,0 0,0 0,0 0,0 0,0 0,0 0,0 0,0 0,0 0,0 0,0 0,0 0,0 0,0 0,0 0,0 0,0 0,0 0,0 z m -124,-4 120,0 0,7 -120,0 -4,-3 4,-4 z m 0,0 0,7 0,0 0,0 0,0 0,0 0,0 0,0 0,0 0,0 0,0 0,0 0,0 0,0 0,0 0,0 0,0 0,0 0,0 0,0 0,0 0,0 0,0 0,0 0,0 0,0 0,0 0,0 0,0 0,0 0,0 0,0 0,0 0,0 0,0 0,0 0,0 0,0 0,0 0,0 0,0 0,0 0,0 0,0 0,0 0,0 0,0 0,0 0,0 0,0 0,0 0,0 0,0 0,0 0,0 0,0 0,0 0,0 0,0 0,0 0,0 0,0 0,0 0,0 0,0 0,0 z m 60,47 0,7 0,0 -3,0 -3,0 -3,0 -3,0 -3,-1 -3,-1 -3,-1 -3,-1 -3,-1 -2,-1 -2,-1 -2,-1 -2,-1 -2,-1 -2,-2 -2,-2 -2,-2 -2,-2 -2,-2 -2,-2 -2,-2 -2,-2 -2,-2 -2,-2 -1,-2 -1,-2 -1,-2 -1,-2 -1,-3 -1,-3 -1,-3 -1,-3 8,-2 1,2 1,2 1,2 1,2 1,2 1,2 1,2 1,2 1,2 1,2 2,2 2,2 2,2 2,2 2,2 2,2 2,1 2,1 2,1 2,1 2,1 2,1 2,1 2,1 2,1 2,1 2,1 2,0 2,0 2,0 2,0 2,0 0,0 z m 51,-23 -6,5 6,0 -1,1 -1,1 -1,1 -1,1 -1,1 -1,1 -1,1 -1,1 -1,1 -1,1 -1,1 -2,1 -2,1 -2,1 -2,1 -2,1 -2,1 -2,1 -2,1 -2,1 -2,1 -2,1 -2,1 -2,0 -2,0 -2,0 -2,0 -2,0 -2,0 -2,0 -2,0 -2,0 0,-7 2,0 2,0 2,0 2,0 2,0 2,0 2,0 2,0 2,0 2,0 2,0 2,-1 1,-1 1,-1 1,-1 1,-1 1,-1 1,-1 1,-1 1,-1 1,-1 1,-1 1,-1 1,-1 1,-1 1,-1 1,-1 1,-1 1,-1 1,-1 1,-1 1,-1 6,0 z m 0,5 -6,-4 0,0 0,0 0,0 0,0 0,0 0,0 0,0 0,0 0,0 0,0 0,0 0,0 0,0 0,0 0,0 0,0 0,0 0,0 0,0 0,0 0,0 0,0 0,0 0,0 0,0 0,0 0,0 0,0 0,0 0,0 0,0 0,0 0,0 0,0 0,0 0,0 0,0 0,0 0,0 0,0 0,0 0,0 0,0 0,0 0,0 0,0 0,0 0,0 0,0 0,0 0,0 0,0 0,0 0,0 0,0 0,0 0,0 0,0 0,0 0,0 0,0 0,0 0,0 0,0 z m 22,25 -28,-25 6,-5 28,25 0,5 -6,0 z m 0,0 6,-5 0,0 0,0 0,0 0,0 0,0 0,0 0,0 0,0 0,0 0,0 0,0 0,0 0,0 0,0 0,0 0,0 0,0 0,0 0,0 0,0 0,0 0,0 0,0 0,0 0,0 0,0 0,0 0,0 0,0 0,0 0,0 0,0 0,0 0,0 0,0 0,0 0,0 0,0 0,0 0,0 0,0 0,0 0,0 0,0 0,0 0,0 0,0 0,0 0,0 0,0 0,0 0,0 0,0 0,0 0,0 0,0 0,0 0,0 0,0 0,0 0,0 0,0 0,0 0,0 z m -73,35 0,-7 0,0 3,0 3,0 3,0 3,0 3,0 3,0 3,0 3,-1 3,-1 3,-1 2,-1 2,-1 2,-1 2,-1 2,-1 2,-1 2,-1 2,-1 2,-1 2,-1 2,-1 2,-1 2,-1 2,-1 2,-2 2,-2 2,-2 2,-2 2,-2 2,-2 2,-2 2,-2 6,4 -2,2 -2,2 -2,2 -2,2 -2,2 -2,2 -2,2 -2,2 -2,2 -2,2 -2,2 -2,1 -2,1 -2,1 -2,1 -2,1 -3,1 -3,1 -3,1 -3,1 -3,1 -3,1 -3,1 -3,1 -3,1 -3,1 -3,0 -3,0 -3,0 -3,0 -3,0 -3,0 0,0 z m -104,-104 8,0 0,0 0,5 0,5 1,5 1,5 1,5 1,5 2,5 2,4 2,4 2,4 2,4 3,4 3,4 3,4 3,4 3,3 3,3 4,3 4,3 4,3 4,3 4,2 4,2 4,2 4,2 4,2 5,1 5,1 5,1 5,1 5,0 5,0 0,7 -5,0 -5,0 -5,-1 -5,-1 -5,-1 -5,-1 -5,-2 -5,-2 -5,-2 -5,-2 -4,-3 -4,-3 -4,-3 -4,-3 -4,-3 -4,-3 -3,-4 -3,-4 -3,-4 -3,-4 -3,-4 -3,-4 -2,-4 -2,-5 -2,-5 -2,-5 -1,-5 -1,-5 -1,-5 -1,-5 0,-5 0,-5 0,0 z m 104,-104 0,7 0,0 -5,0 -5,0 -5,1 -5,1 -5,1 -5,1 -4,2 -4,2 -4,2 -4,2 -4,2 -4,3 -4,3 -4,3 -4,3 -3,3 -3,3 -3,4 -3,4 -3,4 -3,4 -2,4 -2,4 -2,4 -2,4 -2,5 -1,5 -1,5 -1,5 -1,5 0,5 0,5 -8,0 0,-5 0,-5 1,-5 1,-5 1,-5 1,-5 2,-5 2,-5 2,-5 2,-4 3,-4 3,-4 3,-4 3,-4 3,-4 3,-4 4,-3 4,-3 4,-3 4,-3 4,-3 4,-3 5,-2 5,-2 5,-2 5,-2 5,-1 5,-1 5,-1 5,-1 5,0 5,0 0,0 z m 61,94 -122,0 0,-7 122,0 4,3 -4,4 z m 0,0 0,-7 0,0 0,0 0,0 0,0 0,0 0,0 0,0 0,0 0,0 0,0 0,0 0,0 0,0 0,0 0,0 0,0 0,0 0,0 0,0 0,0 0,0 0,0 0,0 0,0 0,0 0,0 0,0 0,0 0,0 0,0 0,0 0,0 0,0 0,0 0,0 0,0 0,0 0,0 0,0 0,0 0,0 0,0 0,0 0,0 0,0 0,0 0,0 0,0 0,0 0,0 0,0 0,0 0,0 0,0 0,0 0,0 0,0 0,0 0,0 0,0 0,0 0,0 0,0 0,0 z m -61,-51 0,-7 0,0 3,0 3,0 3,0 3,0 3,1 3,1 3,1 3,1 3,1 3,1 3,1 2,1 2,1 2,2 2,2 2,2 2,2 2,2 2,2 2,2 2,2 2,2 2,2 1,2 1,2 1,3 1,3 1,3 1,3 1,3 1,3 1,3 -8,1 -1,-3 -1,-3 -1,-2 -1,-2 -1,-2 -1,-2 -1,-2 -1,-2 -1,-2 -1,-2 -2,-2 -2,-2 -2,-2 -2,-2 -2,-2 -2,-2 -2,-2 -2,-1 -2,-1 -2,-1 -2,-1 -2,-1 -2,-1 -2,-1 -2,-1 -2,-1 -2,-1 -2,-1 -2,0 -3,0 -3,0 -3,0 0,0 z m -61,44 0,7 -4,-4 1,-3 1,-3 1,-3 1,-3 1,-3 1,-3 1,-3 1,-2 1,-2 2,-2 2,-2 2,-2 2,-2 2,-2 2,-2 2,-2 2,-2 2,-2 2,-2 2,-1 2,-1 3,-1 3,-1 3,-1 3,-1 3,-1 3,-1 3,-1 3,0 3,0 3,0 3,0 0,7 -3,0 -3,0 -3,0 -2,0 -2,1 -2,1 -2,1 -2,1 -2,1 -2,1 -2,1 -2,1 -2,1 -2,1 -2,1 -2,2 -2,2 -2,2 -2,2 -2,2 -2,2 -2,2 -1,2 -1,2 -1,2 -1,2 -1,2 -1,2 -1,2 -1,2 -1,3 -1,3 -4,-4 z m -4,3 8,1 0,0 0,0 0,0 0,0 0,0 0,0 0,0 0,0 0,0 0,0 0,0 0,0 0,0 0,0 0,0 0,0 0,0 0,0 0,0 0,0 0,0 0,0 0,0 0,0 0,0 0,0 0,0 0,0 0,0 0,0 0,0 0,0 0,0 0,0 0,0 0,0 0,0 0,0 0,0 0,0 0,0 0,0 0,0 0,0 0,0 0,0 0,0 0,0 0,0 0,0 0,0 0,0 0,0 0,0 0,0 0,0 0,0 0,0 0,0 0,0 0,0 0,0 0,0 0,0 z" />
          </g>
        </g>
      </g>
    </g>
  </g>
</svg>
